<svg xmlns="http://www.w3.org/2000/svg" xmlns:xlink="http://www.w3.org/1999/xlink" version="1.1" x="0px" y="0px" viewBox="0 0 100 125" enable-background="new 0 0 100 100" xml:space="preserve">
	<path fill-rule="evenodd" clip-rule="evenodd" d="M67.555,63.943v-4.809H32.447v4.809c-6.693-5.226-10.995-13.367-10.995-22.515  c0-15.768,12.781-28.548,28.549-28.548s28.547,12.78,28.547,28.548C78.548,50.576,74.247,58.718,67.555,63.943 M48.544,15.311  c0.781-0.302,1.662,0.086,1.965,0.871c0.303,0.782-0.087,1.663-0.871,1.965c-0.267,0.103-0.48,0.292-0.621,0.526  c-0.138,0.23-0.198,0.51-0.163,0.801c0.034,0.281,0.165,0.535,0.356,0.727c0.191,0.193,0.445,0.323,0.728,0.358  c0.29,0.035,0.571-0.027,0.8-0.165c0.235-0.139,0.423-0.355,0.527-0.622c0.303-0.782,1.184-1.173,1.967-0.869  c0.782,0.301,1.17,1.183,0.867,1.965c-0.354,0.918-1,1.658-1.8,2.136c-0.245,0.146-0.504,0.269-0.773,0.364v5.752  c3.589,3.809,11.874,6.784,15.233,10.829c3.674,4.42,4.3,11.371-3.279,14.798v1.337H36.523v-1.337  c-7.581-3.427-6.955-10.377-3.281-14.798c3.36-4.045,11.645-7.02,15.233-10.829v-5.819c-0.538-0.219-1.021-0.542-1.422-0.943  c-0.659-0.659-1.106-1.535-1.228-2.516c-0.12-0.97,0.102-1.926,0.582-2.73C46.887,16.313,47.624,15.667,48.544,15.311z   M50.001,5.026c20.068,0,36.34,16.27,36.34,36.34c-1.226,24.625-18.885,40.221-33.116,52.406c-1.87,1.602-4.577,1.602-6.448,0  c-14.229-12.185-31.891-27.78-33.117-52.406C13.659,21.296,29.93,5.026,50.001,5.026z" />
	
</svg>
