<?xml version="1.0" encoding="utf-8"?>
<!-- Generator: Adobe Illustrator 19.2.1, SVG Export Plug-In . SVG Version: 6.00 Build 0) -->
<svg version="1.1" xmlns="http://www.w3.org/2000/svg" xmlns:xlink="http://www.w3.org/1999/xlink" x="0px" y="0px" viewBox="0 0 512 512" style="enable-background:new 0 0 512 512;" xml:space="preserve">
	<g id="GUIDELINES" style="display:none;">
	</g>
	<g id="Layer_9">
	</g>
	<g id="ICON">
		<ellipse style="fill:#E4C856;" cx="256.4" cy="254.4" rx="256" ry="256" />
	</g>
	<g id="Layer_8">
		<g>
			<g>
				<rect x="267.8" y="261.8" style="fill:#5082A9;" width="109.3" height="116.1" />
				<polygon style="fill:#C9402E;" points="392,266 318.6,175.8 204.3,175.8 277.7,266" />
				<rect x="276.4" y="276.4" style="fill:#87B7DD;" width="100.7" height="101.5" />
				<polygon style="fill:#5082A9;" points="204.6,183.5 137.9,261.8 137.9,377.8 271.3,377.8 271.3,261.8" />
				<rect x="190.6" y="328" style="fill:#1F3049;" width="35.3" height="49.9" />
				<g>
					<path style="fill:#A32929;" d="M129,266h12.7l63-73.9l63,73.9h13.9l-76.9-90.2l-77,90.4C128.1,266,128.5,266,129,266z" />
				</g>
				<g>
					<g>
						<rect x="185.8" y="254.7" style="fill:#F5F5F5;" width="44.8" height="44.8" />
						<rect x="205.4" y="249.8" style="fill:#5082A9;" width="5.6" height="54.7" />
						<rect x="180.9" y="274.3" style="fill:#5082A9;" width="54.7" height="5.6" />
					</g>
					<rect x="181.6" y="300.6" style="fill:#A32929;" width="53.1" height="7.6" />
				</g>
			</g>
			<g>
				<polygon style="fill:#87B7DD;" points="350.6,227.4 317.7,194.5 317.7,134.7 350.6,134.7" />
				<path style="fill:#A32929;" d="M358.8,148.8c0,1.3-1,2.3-2.3,2.3h-44.6c-1.3,0-2.3-1.1-2.3-2.3v-16.4c0-1.3,1-2.3,2.3-2.3h44.6
				c1.3,0,2.3,1.1,2.3,2.3V148.8z" />
			</g>
			<rect x="123" y="375" style="fill:#5082A9;" width="268" height="12" />
		</g>
	</g>
</svg>
