<svg xmlns="http://www.w3.org/2000/svg" viewBox="0 0 32 32">
	<title>
		Food Donate
	</title>
	<g id="Food_Donate" data-name="Food Donate">
		<rect style="fill:#30acc2;" x="1" y="15" width="4" height="11" />
		<path style="fill:#d1e6e9;" d="M19.65,21H14a2,2,0,0,1,2-2h3a2,2,0,0,0,0-4c-10.2,0-8.18-.27-12,1H5v9H7c3.61,1.44,4.59,2,6.16,2,6.07,0,7.39.27,9.27-.86L30,21.58A2,2,0,0,0,28.31,18C19.69,21.11,20.15,21,19.65,21Z" />
		<path style="fill:#a1d8df;" d="M28,13H12c-3.33,0-2.61-6.28,3.2-7.44A20.85,20.85,0,0,1,24,5.39a7.88,7.88,0,0,1,4.63,2.2C30.55,9.55,30.54,13,28,13Z" />
		<path style="fill:#68c7d3;" d="M21,5V8a1,1,0,0,1-2,0V5C19.91,5,20.09,5,21,5Z" />
		<path style="fill:#68c7d3;" d="M25,5.61V7a1,1,0,0,1-2,0V5.22C23.48,5.29,24.71,5.53,25,5.61Z" />
		<path style="fill:#68c7d3;" d="M17,5.22V7a1,1,0,0,1-2,0V5.61C15.19,5.56,16.3,5.33,17,5.22Z" />
	</g>
</svg>
