<?xml version="1.0" encoding="utf-8"?>
<!-- Generator: Adobe Illustrator 16.0.0, SVG Export Plug-In . SVG Version: 6.00 Build 0)  -->
<!DOCTYPE svg PUBLIC "-//W3C//DTD SVG 1.1//EN" "http://www.w3.org/Graphics/SVG/1.1/DTD/svg11.dtd">
<svg version="1.1" id="Layer_1" xmlns="http://www.w3.org/2000/svg" xmlns:xlink="http://www.w3.org/1999/xlink" x="0px" y="0px"
	 width="130px" height="130px" viewBox="0 0 130 130" enable-background="new 0 0 130 130" xml:space="preserve">
<g>
	<g>
		<g>
			<g>
				<path fill="#6DBF96" d="M19.264,90.308c-1.955,0-3.547-1.589-3.547-3.542V40.097c0-1.951,1.592-3.542,3.547-3.542
					c1.955,0,3.545,1.591,3.545,3.542v46.669C22.81,88.719,21.219,90.308,19.264,90.308z"/>
			</g>
			<path fill="#82D1AA" d="M15.717,40.097v46.669c0,0.195,0.028,0.382,0.058,0.568c0.49,0.258,1.042,0.416,1.633,0.416
				c1.954,0,3.545-1.589,3.545-3.542V37.539c0-0.193-0.026-0.382-0.058-0.568c-0.491-0.256-1.041-0.416-1.632-0.416
				C17.309,36.555,15.717,38.146,15.717,40.097z"/>
			<path fill="#6DBF96" d="M19.264,36.555c-1.955,0-3.547,1.591-3.547,3.542v4.21c2.061,0.971,5.029,0.971,7.092,0.001v-4.211
				C22.81,38.146,21.219,36.555,19.264,36.555z"/>
			<g>
				<path fill="#AFF9CD" d="M24.897,29.702H13.631v9.029c0,0.013,0,0.028,0,0.044v0.146h0.006c0.069,0.774,0.614,1.543,1.639,2.134
					c2.193,1.267,5.782,1.267,7.977,0c1.023-0.591,1.568-1.359,1.637-2.134h0.008V29.702z"/>
				<path fill="#9DEABE" d="M14.156,39.582c0,0.018,0,0.034,0,0.053v0.166h0.008c0.013,0.146,0.043,0.294,0.085,0.439
					c0.26,0.295,0.603,0.57,1.027,0.815c2.193,1.267,5.782,1.267,7.977,0c1.023-0.591,1.568-1.359,1.637-2.134h0.008v-9.22H14.156
					V39.582z"/>
				<path fill="#91E2B7" d="M14.839,40.283c0,0.023,0,0.047,0,0.071v0.218h0.01c0.007,0.076,0.016,0.152,0.03,0.228
					c0.123,0.088,0.255,0.174,0.397,0.256c2.193,1.267,5.782,1.267,7.977,0c1.023-0.591,1.568-1.359,1.637-2.134h0.008v-9.22H14.839
					V40.283z"/>
				<path fill="#82D1AA" d="M19.168,41.359c-0.001,0.029-0.001,0.059,0,0.086v0.266h0.013c0.008,0.094,0.019,0.185,0.035,0.275
					c0.008,0.008,0.017,0.012,0.025,0.02c1.453,0.004,2.908-0.313,4.012-0.95c1.023-0.591,1.568-1.359,1.637-2.134h0.008v-9.22
					h-5.729V41.359z"/>
				<path fill="#BCCECC" d="M23.253,27.17c-2.195-1.266-5.784-1.266-7.977,0c-2.195,1.268-2.195,3.338,0,4.607
					c1.875,1.082,4.77,1.238,6.94,0.472c0.37-0.133,0.718-0.288,1.037-0.472C25.445,30.508,25.445,28.438,23.253,27.17z"/>
				<path fill="#A4BCBB" d="M15.276,31.777c1.875,1.082,4.77,1.238,6.94,0.472c0.37-0.133,0.718-0.288,1.037-0.472
					c2.192-1.27,2.192-3.34,0-4.607"/>
			</g>
			<g>
				<g>
					<g>
						<path fill="#E8BF15" d="M19.265,27.57c-0.099,0-0.179-0.081-0.179-0.18v-6.998c0-0.1,0.08-0.18,0.179-0.18
							c0.098,0,0.179,0.08,0.179,0.18v6.998C19.443,27.489,19.363,27.57,19.265,27.57z"/>
					</g>
					<g>
						<path fill="#99C1C1" d="M20.832,19.404c-0.016,0.01-0.033,0.02-0.05,0.029C20.799,19.424,20.816,19.414,20.832,19.404z"/>
						<path fill="#E8BF15" d="M20.874,19.377h0.001c-0.175,0.172-0.362,0.318-0.557,0.434c-0.927,0.533-1.685,0.096-1.685-0.973
							c0-0.455,0.137-0.954,0.365-1.416c-0.011,0.012-0.023,0.021-0.034,0.033c-0.438,0.604-0.725,1.355-0.725,2.016
							c0,1.067,0.757,1.506,1.683,0.971c0.22-0.126,0.43-0.298,0.623-0.498c0.132-0.182,0.251-0.381,0.352-0.58
							C20.891,19.365,20.882,19.373,20.874,19.377z"/>
					</g>
					<polygon fill="#E8BF15" points="20.581,17.758 20.122,18.021 19.939,17.637 19.726,18.253 19.086,18.621 19.513,18.867 
						19.367,19.691 19.937,18.951 20.365,19.115 20.221,18.484 					"/>
				</g>
				<g>
					<path fill="#6DBF96" d="M23.088,27.601c-2.104-1.214-5.543-1.214-7.646,0c-2.104,1.216-2.104,3.201,0,4.415
						c2.103,1.215,5.542,1.215,7.646,0C25.191,30.802,25.191,28.816,23.088,27.601z"/>
					<path fill="#E8BF15" d="M24.228,25.555c-3.986-2.301-5.367-2.631-9.925,0c-2.73,1.576-2.73,4.153,0,5.728
						c2.729,1.577,7.195,1.577,9.925,0C26.957,29.708,26.957,27.131,24.228,25.555z"/>
					<path fill="#EACB13" d="M24.827,27.48c-2.567-1.814-4.238-3.086-5.588-3.77c-1.343,0.027-2.785,0.602-4.936,1.844
						c-2.73,1.576-2.73,4.153,0,5.728c2.729,1.577,7.195,1.577,9.925,0c1.097-0.632,1.745-1.427,1.96-2.253
						C26.022,28.533,25.592,28.021,24.827,27.48z"/>
					<path fill="#F2D02A" d="M19.239,23.711c-1.343,0.027-2.785,0.602-4.936,1.844c-2.73,1.576-2.73,4.153,0,5.728
						c2.729,1.577,7.195,1.577,9.925,0"/>
					<g>
						<path fill="#EACB13" d="M19.265,32.383c-0.099,0-0.179-0.08-0.179-0.179v-8.205c0-0.099,0.08-0.179,0.179-0.179
							c0.098,0,0.179,0.08,0.179,0.179v8.205C19.443,32.303,19.363,32.383,19.265,32.383z"/>
					</g>
					<path fill="#FFDB43" d="M19.239,23.711c-1.343,0.027-2.785,0.602-4.936,1.844c-2.73,1.576-2.73,4.153,0,5.728"/>
					<path fill="#E8BF15" d="M24.228,30.697c-2.73,1.576-7.196,1.576-9.925,0c-1.236-0.713-1.907-1.633-2.024-2.571
						c-0.141,1.135,0.53,2.296,2.024,3.156c2.729,1.577,7.195,1.577,9.925,0c1.493-0.86,2.164-2.021,2.021-3.156
						C26.134,29.064,25.463,29.984,24.228,30.697z"/>
				</g>
			</g>
			<g>
				<path fill="#9DEABE" d="M23.78,36.617v-1.891c0-0.967-0.684-1.361-1.52-0.879c-0.835,0.483-1.519,1.668-1.519,2.633v1.893
					L23.78,36.617z"/>
				<path fill="#4E9EF4" d="M22.261,33.848c-0.835,0.483-1.519,1.668-1.519,2.633v1.529l2.763-1.596v-1.893
					c0-0.349-0.092-0.621-0.246-0.807C22.992,33.596,22.644,33.627,22.261,33.848z"/>
				<path fill="#2F9AEA" d="M23.505,34.521c0-0.349-0.092-0.621-0.246-0.807c-0.268-0.119-0.615-0.088-0.999,0.133
					c-0.835,0.483-1.519,1.668-1.519,2.633v1.529"/>
			</g>
		</g>
		<path fill="#75BF98" d="M17.409,87.75c1.954,0,3.545-1.589,3.545-3.542V65.143l-5.237-3.025v24.648
			c0,0.195,0.028,0.382,0.058,0.568C16.266,87.592,16.817,87.75,17.409,87.75z"/>
	</g>
	<g>
		<g>
			<g>
				<path fill="#6DBF96" d="M40.224,81.479c-1.955,0-3.547-1.589-3.547-3.543V31.268c0-1.951,1.592-3.543,3.547-3.543
					c1.955,0,3.545,1.592,3.545,3.543v46.668C43.769,79.89,42.178,81.479,40.224,81.479z"/>
			</g>
			<path fill="#82D1AA" d="M36.677,31.268v46.668c0,0.195,0.028,0.383,0.058,0.568c0.49,0.258,1.042,0.418,1.633,0.418
				c1.954,0,3.545-1.59,3.545-3.544V28.709c0-0.193-0.026-0.381-0.058-0.567c-0.491-0.258-1.041-0.417-1.632-0.417
				C38.269,27.725,36.677,29.316,36.677,31.268z"/>
			<path fill="#6DBF96" d="M40.224,27.725c-1.955,0-3.547,1.592-3.547,3.543v4.209c2.061,0.971,5.029,0.971,7.092,0.002v-4.211
				C43.769,29.316,42.178,27.725,40.224,27.725z"/>
			<g>
				<path fill="#AFF9CD" d="M45.857,20.872H34.591v9.029c0,0.013,0,0.028,0,0.044v0.146h0.006c0.069,0.774,0.614,1.543,1.639,2.134
					c2.193,1.268,5.782,1.268,7.977,0c1.023-0.591,1.568-1.359,1.637-2.134h0.008V20.872z"/>
				<path fill="#9DEABE" d="M35.115,30.752c0,0.018,0,0.035,0,0.053v0.166h0.008c0.013,0.146,0.043,0.294,0.084,0.439
					c0.261,0.295,0.603,0.57,1.028,0.815c2.193,1.268,5.782,1.268,7.977,0c1.023-0.591,1.568-1.359,1.637-2.134h0.008v-9.22H35.115
					V30.752z"/>
				<path fill="#91E2B7" d="M35.799,31.454c0,0.023,0,0.046,0,0.07v0.218h0.01c0.007,0.076,0.016,0.152,0.03,0.229
					c0.123,0.088,0.255,0.174,0.397,0.255c2.193,1.268,5.782,1.268,7.977,0c1.023-0.591,1.568-1.359,1.637-2.134h0.008v-9.22H35.799
					V31.454z"/>
				<path fill="#82D1AA" d="M40.127,32.53c-0.001,0.028-0.001,0.058,0,0.086v0.266h0.013c0.008,0.093,0.019,0.185,0.035,0.274
					c0.008,0.008,0.018,0.012,0.025,0.02c1.453,0.004,2.908-0.313,4.012-0.95c1.023-0.591,1.568-1.359,1.637-2.134h0.008v-9.22
					h-5.729V32.53z"/>
				<path fill="#BCCECC" d="M44.212,18.34c-2.195-1.266-5.784-1.266-7.977,0c-2.195,1.268-2.195,3.338,0,4.607
					c1.875,1.082,4.77,1.238,6.94,0.473c0.37-0.133,0.718-0.289,1.037-0.473C46.405,21.678,46.405,19.607,44.212,18.34z"/>
				<path fill="#A4BCBB" d="M36.236,22.947c1.875,1.082,4.77,1.238,6.94,0.473c0.37-0.133,0.718-0.289,1.037-0.473
					c2.192-1.27,2.192-3.34,0-4.607"/>
			</g>
			<g>
				<g>
					<g>
						<path fill="#E8BF15" d="M40.224,18.74c-0.099,0-0.179-0.08-0.179-0.179v-6.999c0-0.1,0.08-0.18,0.179-0.18
							c0.098,0,0.179,0.08,0.179,0.18v6.999C40.403,18.66,40.322,18.74,40.224,18.74z"/>
					</g>
					<g>
						<path fill="#99C1C1" d="M41.792,10.574c-0.017,0.01-0.033,0.02-0.05,0.029C41.758,10.594,41.775,10.584,41.792,10.574z"/>
						<path fill="#E8BF15" d="M41.833,10.547h0.001c-0.175,0.172-0.362,0.319-0.557,0.434c-0.927,0.533-1.685,0.096-1.685-0.973
							c0-0.454,0.137-0.954,0.365-1.417c-0.011,0.013-0.023,0.022-0.034,0.034C39.487,9.229,39.2,9.98,39.2,10.641
							c0,1.068,0.757,1.506,1.683,0.972c0.22-0.127,0.43-0.298,0.623-0.499c0.132-0.182,0.251-0.38,0.352-0.58
							C41.851,10.535,41.841,10.543,41.833,10.547z"/>
					</g>
					<polygon fill="#E8BF15" points="41.541,8.928 41.081,9.191 40.898,8.808 40.685,9.423 40.045,9.791 40.473,10.037 
						40.327,10.861 40.896,10.121 41.325,10.285 41.18,9.654 					"/>
				</g>
				<g>
					<path fill="#6DBF96" d="M44.047,18.771c-2.104-1.215-5.543-1.215-7.646,0c-2.104,1.216-2.104,3.201,0,4.415
						c2.103,1.214,5.542,1.214,7.646,0C46.15,21.973,46.15,19.987,44.047,18.771z"/>
					<path fill="#E8BF15" d="M45.188,16.725c-3.986-2.301-5.367-2.631-9.925,0c-2.73,1.577-2.73,4.154,0,5.729
						c2.729,1.576,7.195,1.576,9.925,0C47.917,20.879,47.917,18.302,45.188,16.725z"/>
					<path fill="#EACB13" d="M45.787,18.65c-2.567-1.814-4.238-3.086-5.588-3.77c-1.343,0.027-2.785,0.602-4.936,1.844
						c-2.73,1.577-2.73,4.154,0,5.729c2.729,1.576,7.195,1.576,9.925,0c1.097-0.633,1.745-1.428,1.959-2.254
						C46.982,19.704,46.552,19.191,45.787,18.65z"/>
					<path fill="#F2D02A" d="M40.198,14.881c-1.343,0.027-2.785,0.602-4.936,1.844c-2.73,1.577-2.73,4.154,0,5.729
						c2.729,1.576,7.195,1.576,9.925,0"/>
					<g>
						<path fill="#EACB13" d="M40.224,23.553c-0.099,0-0.179-0.08-0.179-0.178v-8.206c0-0.099,0.08-0.178,0.179-0.178
							c0.098,0,0.179,0.079,0.179,0.178v8.206C40.403,23.473,40.322,23.553,40.224,23.553z"/>
					</g>
					<path fill="#FFDB43" d="M40.198,14.881c-1.343,0.027-2.785,0.602-4.936,1.844c-2.73,1.577-2.73,4.154,0,5.729"/>
					<path fill="#E8BF15" d="M45.188,21.867c-2.73,1.576-7.196,1.576-9.925,0c-1.236-0.713-1.907-1.633-2.024-2.57
						c-0.141,1.134,0.53,2.295,2.024,3.156c2.729,1.576,7.195,1.576,9.925,0c1.493-0.861,2.164-2.022,2.021-3.156
						C47.093,20.234,46.422,21.154,45.188,21.867z"/>
				</g>
			</g>
			<g>
				<path fill="#9DEABE" d="M44.74,27.787v-1.891c0-0.967-0.685-1.361-1.52-0.879c-0.835,0.484-1.519,1.668-1.519,2.633v1.893
					L44.74,27.787z"/>
				<path fill="#4E9EF4" d="M43.22,25.018c-0.835,0.484-1.519,1.668-1.519,2.633v1.529l2.763-1.596v-1.893
					c0-0.349-0.092-0.621-0.246-0.807C43.951,24.767,43.604,24.797,43.22,25.018z"/>
				<path fill="#2F9AEA" d="M44.464,25.691c0-0.349-0.092-0.621-0.246-0.807c-0.268-0.118-0.615-0.088-0.999,0.133
					c-0.835,0.484-1.519,1.668-1.519,2.633v1.529"/>
			</g>
		</g>
		<path fill="#75BF98" d="M38.368,78.922c1.954,0,3.545-1.59,3.545-3.544V56.313l-5.237-3.025v24.648
			c0,0.195,0.028,0.383,0.058,0.568C37.225,78.762,37.776,78.922,38.368,78.922z"/>
	</g>
	<g>
		<polygon fill="#6DBF96" points="15.646,63.419 15.646,92.482 53.4,114.279 53.4,85.216 		"/>
		<polygon fill="#5BAA80" points="91.154,63.419 91.154,92.482 53.4,114.279 53.4,85.216 		"/>
		<polygon fill="#92DDB9" points="15.646,62.055 15.646,91.119 53.4,112.916 53.4,83.854 		"/>
		<polyline fill="#82D1AA" points="53.4,112.916 53.4,83.854 15.646,62.055 		"/>
		<polygon fill="#7CC4A3" points="91.154,62.055 91.154,91.119 53.4,112.916 53.4,83.854 		"/>
		<polyline fill="#6DBF96" points="53.4,112.916 53.4,83.854 91.154,62.055 		"/>
		<polygon fill="#ACE8CA" points="53.4,40.258 15.646,62.055 53.4,83.854 91.154,62.055 		"/>
		<polygon fill="#92DDB9" points="53.4,41.242 17.35,62.055 53.4,82.871 89.45,62.055 		"/>
		<polygon fill="#82D1AA" points="53.4,42.305 18.269,62.589 53.4,82.871 88.53,62.589 		"/>
		<polyline fill="#80CEA6" points="53.4,82.871 88.53,62.589 53.4,42.305 		"/>
		<polygon fill="#6BAA8C" points="27.05,57.518 27.05,67.658 53.4,82.871 72.176,72.031 72.176,56.904 28.115,56.904 		"/>
	</g>
	<g>
		<g>
			<path fill="#ABF4D0" d="M19.859,68.041c1,0.576,1.817,1.992,1.817,3.147v23.423l-3.634-2.098V69.09
				C18.042,67.934,18.86,67.463,19.859,68.041z"/>
			<path fill="#4E9EF4" d="M19.859,68.041c-0.442-0.256-0.842-0.295-1.157-0.172c-0.181,0.223-0.289,0.541-0.289,0.957v23.422
				l3.263,1.885V71.188C21.676,70.033,20.858,68.617,19.859,68.041z"/>
			<path fill="#2F9AEA" d="M21.676,94.133V71.188c0-1.155-0.818-2.571-1.817-3.147c-0.442-0.256-0.842-0.295-1.157-0.172
				c-0.181,0.223-0.289,0.541-0.289,0.957"/>
		</g>
		<g>
			<path fill="#5CC9FF" d="M21.344,74.633c0.031,0,0.06-0.016,0.077-0.047c0.025-0.041,0.01-0.094-0.033-0.121l-2.596-1.496
				c-0.043-0.026-0.098-0.012-0.123,0.033c-0.024,0.041-0.01,0.094,0.033,0.121l2.597,1.5
				C21.313,74.629,21.328,74.633,21.344,74.633z"/>
		</g>
		<g>
			<path fill="#5CC9FF" d="M21.344,78.717c0.031,0,0.06-0.016,0.077-0.047c0.025-0.041,0.01-0.096-0.033-0.12l-2.596-1.497
				c-0.043-0.025-0.098-0.011-0.123,0.032c-0.024,0.043-0.01,0.095,0.033,0.12l2.597,1.5C21.313,78.713,21.328,78.717,21.344,78.717
				z"/>
		</g>
		<g>
			<path fill="#5CC9FF" d="M21.344,82.799c0.031,0,0.06-0.016,0.077-0.043c0.025-0.041,0.01-0.098-0.033-0.122l-2.596-1.498
				c-0.043-0.026-0.098-0.013-0.123,0.032c-0.024,0.043-0.01,0.096,0.033,0.121l2.597,1.5
				C21.313,82.799,21.328,82.799,21.344,82.799z"/>
		</g>
		<g>
			<path fill="#5CC9FF" d="M21.344,86.884c0.031,0,0.06-0.017,0.077-0.046c0.025-0.041,0.01-0.098-0.033-0.121l-2.596-1.497
				c-0.043-0.026-0.098-0.013-0.123,0.032c-0.024,0.041-0.01,0.095,0.033,0.121l2.597,1.5
				C21.313,86.881,21.328,86.884,21.344,86.884z"/>
		</g>
		<g>
			<path fill="#5CC9FF" d="M21.344,90.969c0.031,0,0.06-0.016,0.077-0.047c0.025-0.041,0.01-0.098-0.033-0.121l-2.596-1.496
				c-0.043-0.027-0.098-0.016-0.123,0.03c-0.024,0.042-0.01,0.096,0.033,0.12l2.597,1.5C21.313,90.965,21.328,90.969,21.344,90.969z
				"/>
		</g>
	</g>
	<g>
		<g>
			<path fill="#ABF4D0" d="M26.585,71.902c1,0.576,1.817,1.99,1.817,3.146v23.423l-3.634-2.096V72.949
				C24.769,71.793,25.587,71.324,26.585,71.902z"/>
			<path fill="#4E9EF4" d="M26.585,71.902c-0.441-0.256-0.842-0.295-1.158-0.174c-0.18,0.223-0.288,0.541-0.288,0.957v23.422
				l3.263,1.885V75.048C28.403,73.893,27.585,72.479,26.585,71.902z"/>
			<path fill="#2F9AEA" d="M28.403,97.992V75.048c0-1.155-0.818-2.569-1.817-3.146c-0.441-0.256-0.842-0.295-1.158-0.174
				c-0.18,0.223-0.288,0.541-0.288,0.957"/>
		</g>
		<g>
			<path fill="#5CC9FF" d="M28.07,78.492c0.031,0,0.061-0.016,0.077-0.045c0.025-0.041,0.01-0.096-0.033-0.121l-2.596-1.498
				c-0.042-0.026-0.098-0.012-0.123,0.033c-0.024,0.043-0.01,0.096,0.033,0.121l2.597,1.5C28.039,78.49,28.054,78.492,28.07,78.492z
				"/>
		</g>
		<g>
			<path fill="#5CC9FF" d="M28.07,82.576c0.031,0,0.061-0.016,0.077-0.047c0.025-0.041,0.01-0.096-0.033-0.12l-2.596-1.497
				c-0.042-0.025-0.098-0.012-0.123,0.033c-0.024,0.041-0.01,0.094,0.033,0.121l2.597,1.5C28.039,82.572,28.054,82.576,28.07,82.576
				z"/>
		</g>
		<g>
			<path fill="#5CC9FF" d="M28.07,86.661c0.031,0,0.061-0.017,0.077-0.048c0.025-0.04,0.01-0.096-0.033-0.12l-2.596-1.496
				c-0.042-0.026-0.098-0.015-0.123,0.03c-0.024,0.043-0.01,0.096,0.033,0.121l2.597,1.5C28.039,86.656,28.054,86.661,28.07,86.661z
				"/>
		</g>
		<g>
			<path fill="#5CC9FF" d="M28.07,90.743c0.031,0,0.061-0.017,0.077-0.045c0.025-0.041,0.01-0.095-0.033-0.12l-2.596-1.499
				c-0.042-0.026-0.098-0.013-0.123,0.032c-0.024,0.043-0.01,0.098,0.033,0.121l2.597,1.502
				C28.039,90.739,28.054,90.743,28.07,90.743z"/>
		</g>
		<g>
			<path fill="#5CC9FF" d="M28.07,94.828c0.031,0,0.061-0.018,0.077-0.048c0.025-0.04,0.01-0.096-0.033-0.12l-2.596-1.496
				c-0.042-0.027-0.098-0.013-0.123,0.03c-0.024,0.043-0.01,0.096,0.033,0.12l2.597,1.503C28.039,94.823,28.054,94.828,28.07,94.828
				z"/>
		</g>
	</g>
	<g>
		<g>
			<path fill="#ABF4D0" d="M33.312,75.762c1,0.576,1.817,1.99,1.817,3.146v23.425l-3.634-2.098V76.811
				C31.496,75.655,32.313,75.184,33.312,75.762z"/>
			<path fill="#4E9EF4" d="M33.312,75.762c-0.442-0.256-0.841-0.295-1.157-0.172c-0.181,0.221-0.288,0.539-0.288,0.955v23.424
				l3.263,1.883V78.907C35.129,77.752,34.312,76.338,33.312,75.762z"/>
			<path fill="#2F9AEA" d="M35.129,101.852V78.907c0-1.155-0.817-2.569-1.817-3.146c-0.442-0.256-0.841-0.295-1.157-0.172
				c-0.181,0.221-0.288,0.539-0.288,0.955"/>
		</g>
		<g>
			<path fill="#5CC9FF" d="M34.797,82.354c0.031,0,0.06-0.016,0.077-0.047c0.025-0.041,0.01-0.096-0.033-0.119l-2.596-1.498
				c-0.042-0.025-0.098-0.014-0.123,0.031c-0.023,0.043-0.01,0.096,0.033,0.121l2.597,1.5C34.766,82.35,34.781,82.354,34.797,82.354
				z"/>
		</g>
		<g>
			<path fill="#5CC9FF" d="M34.797,86.436c0.031,0,0.06-0.016,0.077-0.045c0.025-0.041,0.01-0.096-0.033-0.12l-2.596-1.499
				c-0.042-0.025-0.098-0.011-0.123,0.033c-0.023,0.044-0.01,0.096,0.033,0.121l2.597,1.5
				C34.766,86.432,34.781,86.436,34.797,86.436z"/>
		</g>
		<g>
			<path fill="#5CC9FF" d="M34.797,90.521c0.031,0,0.06-0.017,0.077-0.048c0.025-0.04,0.01-0.096-0.033-0.12l-2.596-1.496
				c-0.042-0.026-0.098-0.013-0.123,0.03c-0.023,0.043-0.01,0.096,0.033,0.121l2.597,1.502
				C34.766,90.518,34.781,90.521,34.797,90.521z"/>
		</g>
		<g>
			<path fill="#5CC9FF" d="M34.797,94.603c0.031,0,0.06-0.015,0.077-0.045c0.025-0.041,0.01-0.097-0.033-0.12l-2.596-1.499
				c-0.042-0.026-0.098-0.013-0.123,0.032c-0.023,0.043-0.01,0.097,0.033,0.121l2.597,1.5
				C34.766,94.601,34.781,94.603,34.797,94.603z"/>
		</g>
		<g>
			<path fill="#5CC9FF" d="M34.797,98.688c0.031,0,0.06-0.016,0.077-0.045c0.025-0.041,0.01-0.096-0.033-0.121l-2.596-1.498
				c-0.042-0.027-0.098-0.013-0.123,0.032c-0.023,0.043-0.01,0.097,0.033,0.12l2.597,1.501
				C34.766,98.683,34.781,98.688,34.797,98.688z"/>
		</g>
	</g>
	<g>
		<g>
			<path fill="#ABF4D0" d="M40.039,79.621c1,0.576,1.817,1.992,1.817,3.148v23.422l-3.634-2.098V80.67
				C38.222,79.515,39.04,79.043,40.039,79.621z"/>
			<path fill="#4E9EF4" d="M40.039,79.621c-0.441-0.256-0.842-0.295-1.158-0.172c-0.18,0.221-0.288,0.541-0.288,0.957v23.422
				l3.263,1.885V82.77C41.856,81.613,41.038,80.197,40.039,79.621z"/>
			<path fill="#2F9AEA" d="M41.856,105.713V82.77c0-1.156-0.818-2.572-1.817-3.148c-0.441-0.256-0.842-0.295-1.158-0.172
				c-0.18,0.221-0.288,0.541-0.288,0.957"/>
		</g>
		<g>
			<path fill="#5CC9FF" d="M41.523,86.213c0.031,0,0.061-0.016,0.078-0.047c0.024-0.041,0.009-0.096-0.034-0.119l-2.596-1.498
				c-0.042-0.025-0.097-0.012-0.122,0.031c-0.024,0.043-0.01,0.096,0.033,0.123l2.597,1.5
				C41.493,86.209,41.507,86.213,41.523,86.213z"/>
		</g>
		<g>
			<path fill="#5CC9FF" d="M41.523,90.295c0.031,0,0.061-0.014,0.078-0.045c0.024-0.039,0.009-0.096-0.034-0.119l-2.596-1.497
				c-0.042-0.028-0.097-0.015-0.122,0.03c-0.024,0.043-0.01,0.096,0.033,0.121l2.597,1.5C41.493,90.293,41.507,90.295,41.523,90.295
				z"/>
		</g>
		<g>
			<path fill="#5CC9FF" d="M41.523,94.381c0.031,0,0.061-0.018,0.078-0.046c0.024-0.041,0.009-0.097-0.034-0.12l-2.596-1.499
				c-0.042-0.026-0.097-0.013-0.122,0.032c-0.024,0.043-0.01,0.097,0.033,0.121l2.597,1.5
				C41.493,94.375,41.507,94.381,41.523,94.381z"/>
		</g>
		<g>
			<path fill="#5CC9FF" d="M41.523,98.465c0.031,0,0.061-0.018,0.078-0.048c0.024-0.041,0.009-0.095-0.034-0.12l-2.596-1.496
				c-0.042-0.027-0.097-0.014-0.122,0.029c-0.024,0.043-0.01,0.098,0.033,0.121l2.597,1.504
				C41.493,98.46,41.507,98.465,41.523,98.465z"/>
		</g>
		<g>
			<path fill="#5CC9FF" d="M41.523,102.547c0.031,0,0.061-0.016,0.078-0.045c0.024-0.041,0.009-0.097-0.034-0.121l-2.596-1.498
				c-0.042-0.027-0.097-0.013-0.122,0.032c-0.024,0.043-0.01,0.097,0.033,0.12l2.597,1.501
				C41.493,102.545,41.507,102.547,41.523,102.547z"/>
		</g>
	</g>
	<g>
		<g>
			<path fill="#ABF4D0" d="M46.766,83.48c1,0.576,1.817,1.992,1.817,3.148v23.422l-3.634-2.098V84.529
				C44.949,83.374,45.767,82.904,46.766,83.48z"/>
			<path fill="#4E9EF4" d="M46.766,83.48c-0.442-0.254-0.842-0.295-1.158-0.172c-0.18,0.223-0.288,0.541-0.288,0.957v23.422
				l3.263,1.886V86.629C48.583,85.473,47.765,84.057,46.766,83.48z"/>
			<path fill="#2F9AEA" d="M48.583,109.573V86.629c0-1.156-0.817-2.572-1.817-3.148c-0.442-0.254-0.842-0.295-1.158-0.172
				c-0.18,0.223-0.288,0.541-0.288,0.957"/>
		</g>
		<g>
			<path fill="#5CC9FF" d="M48.25,90.072c0.031,0,0.061-0.016,0.077-0.045c0.025-0.041,0.01-0.096-0.033-0.12l-2.596-1.499
				c-0.042-0.025-0.098-0.012-0.122,0.033c-0.024,0.043-0.01,0.096,0.033,0.121l2.597,1.5C48.219,90.068,48.234,90.072,48.25,90.072
				z"/>
		</g>
		<g>
			<path fill="#5CC9FF" d="M48.25,94.156c0.031,0,0.061-0.016,0.077-0.047c0.025-0.041,0.01-0.096-0.033-0.12l-2.596-1.496
				c-0.042-0.026-0.098-0.013-0.122,0.03c-0.024,0.043-0.01,0.096,0.033,0.121l2.597,1.502
				C48.219,94.152,48.234,94.156,48.25,94.156z"/>
		</g>
		<g>
			<path fill="#5CC9FF" d="M48.25,98.239c0.031,0,0.061-0.015,0.077-0.045c0.025-0.041,0.01-0.097-0.033-0.12l-2.596-1.499
				c-0.042-0.026-0.098-0.013-0.122,0.032c-0.024,0.043-0.01,0.097,0.033,0.121l2.597,1.5C48.219,98.237,48.234,98.239,48.25,98.239
				z"/>
		</g>
		<g>
			<path fill="#5CC9FF" d="M48.25,102.323c0.031,0,0.061-0.017,0.077-0.045c0.025-0.04,0.01-0.097-0.033-0.12l-2.596-1.498
				c-0.042-0.026-0.098-0.014-0.122,0.032c-0.024,0.042-0.01,0.096,0.033,0.12l2.597,1.5
				C48.219,102.319,48.234,102.323,48.25,102.323z"/>
		</g>
		<g>
			<path fill="#5CC9FF" d="M48.25,106.408c0.031,0,0.061-0.018,0.077-0.047c0.025-0.041,0.01-0.097-0.033-0.121l-2.596-1.496
				c-0.042-0.027-0.098-0.012-0.122,0.03c-0.024,0.043-0.01,0.097,0.033,0.12l2.597,1.503
				C48.219,106.404,48.234,106.408,48.25,106.408z"/>
		</g>
	</g>
	<g>
		<g>
			<polygon fill="#6DBF96" points="57.857,88.66 57.857,111.711 87.802,129 87.802,105.947 			"/>
			<polygon fill="#5BAA80" points="117.745,88.66 117.745,111.711 87.802,129 87.802,105.947 			"/>
			<polygon fill="#92DDB9" points="57.857,87.274 57.857,110.326 87.802,127.613 87.802,104.563 			"/>
			<polyline fill="#82D1AA" points="87.802,127.613 87.802,104.563 57.857,87.274 			"/>
			<polygon fill="#7CC4A3" points="117.745,87.274 117.745,110.326 87.802,127.613 87.802,104.563 			"/>
			<polyline fill="#6DBF96" points="87.802,127.613 87.802,104.563 117.745,87.274 			"/>
			<polygon fill="#ACE8CA" points="87.802,69.984 57.857,87.274 87.802,104.563 117.745,87.274 			"/>
			<polygon fill="#92DDB9" points="87.802,70.766 59.209,87.274 87.802,103.781 116.395,87.274 			"/>
			<polygon fill="#82D1AA" points="87.802,71.607 59.938,87.695 87.802,103.781 115.665,87.695 			"/>
			<polyline fill="#80CEA6" points="87.802,103.781 115.665,87.695 87.802,71.607 			"/>
		</g>
		<g>
			<g>
				<path fill="#ABF4D0" d="M61.536,92.192c0.428,0.247,0.777,0.854,0.777,1.343v10.017l-1.553-0.899V92.641
					C60.76,92.147,61.109,91.945,61.536,92.192z"/>
				<path fill="#4E9EF4" d="M61.536,92.192c-0.188-0.11-0.359-0.124-0.495-0.073c-0.076,0.094-0.123,0.23-0.123,0.408v10.013
					l1.395,0.808v-9.813C62.313,93.047,61.963,92.439,61.536,92.192z"/>
				<path fill="#2F9AEA" d="M62.313,103.348v-9.813c0-0.488-0.35-1.096-0.777-1.343c-0.188-0.11-0.359-0.124-0.495-0.073
					c-0.076,0.094-0.123,0.23-0.123,0.408"/>
			</g>
			<g>
				<path fill="#5CC9FF" d="M62.171,95.01c0.013,0,0.025-0.004,0.033-0.019c0.012-0.019,0.004-0.043-0.014-0.054l-1.11-0.64
					c-0.017-0.011-0.041-0.004-0.052,0.015c-0.01,0.018-0.004,0.041,0.014,0.051l1.11,0.643
					C62.158,95.008,62.164,95.01,62.171,95.01z"/>
			</g>
			<g>
				<path fill="#5CC9FF" d="M62.171,96.756c0.013,0,0.025-0.004,0.033-0.02c0.012-0.018,0.004-0.041-0.014-0.053l-1.11-0.64
					c-0.017-0.011-0.041-0.005-0.052,0.015c-0.01,0.018-0.004,0.041,0.014,0.053l1.11,0.641
					C62.158,96.753,62.164,96.756,62.171,96.756z"/>
			</g>
			<g>
				<path fill="#5CC9FF" d="M62.171,98.503c0.013,0,0.025-0.009,0.033-0.021c0.012-0.016,0.004-0.041-0.014-0.053l-1.11-0.641
					c-0.017-0.01-0.041-0.006-0.052,0.015c-0.01,0.019-0.004,0.043,0.014,0.052l1.11,0.643
					C62.158,98.501,62.164,98.503,62.171,98.503z"/>
			</g>
			<g>
				<path fill="#5CC9FF" d="M62.171,100.248c0.013,0,0.025-0.007,0.033-0.021c0.012-0.014,0.004-0.041-0.014-0.049l-1.11-0.641
					c-0.017-0.012-0.041-0.006-0.052,0.015c-0.01,0.017-0.004,0.038,0.014,0.051l1.11,0.64
					C62.158,100.246,62.164,100.248,62.171,100.248z"/>
			</g>
			<g>
				<path fill="#5CC9FF" d="M62.171,101.994c0.013,0,0.025-0.008,0.033-0.021c0.012-0.019,0.004-0.04-0.014-0.051l-1.11-0.642
					c-0.017-0.011-0.041-0.004-0.052,0.014c-0.01,0.019-0.004,0.041,0.014,0.053l1.11,0.643
					C62.158,101.992,62.164,101.994,62.171,101.994z"/>
			</g>
		</g>
		<g>
			<g>
				<path fill="#ABF4D0" d="M65.168,94.264c0.428,0.245,0.777,0.85,0.777,1.343v10.015l-1.553-0.898V94.711
					C64.393,94.217,64.742,94.014,65.168,94.264z"/>
				<path fill="#4E9EF4" d="M65.168,94.264c-0.188-0.111-0.359-0.127-0.495-0.076c-0.077,0.094-0.123,0.232-0.123,0.411v10.013
					l1.395,0.805v-9.81C65.946,95.113,65.596,94.509,65.168,94.264z"/>
				<path fill="#2F9AEA" d="M65.946,105.416v-9.81c0-0.493-0.35-1.098-0.777-1.343c-0.188-0.111-0.359-0.127-0.495-0.076
					c-0.077,0.094-0.123,0.232-0.123,0.411"/>
			</g>
			<g>
				<path fill="#5CC9FF" d="M65.804,97.08c0.014,0,0.026-0.006,0.033-0.021c0.012-0.017,0.005-0.041-0.014-0.051l-1.109-0.64
					c-0.018-0.01-0.042-0.006-0.052,0.014c-0.01,0.019-0.003,0.041,0.014,0.051l1.11,0.641C65.791,97.078,65.797,97.08,65.804,97.08
					z"/>
			</g>
			<g>
				<path fill="#5CC9FF" d="M65.804,98.826c0.014,0,0.026-0.006,0.033-0.021c0.012-0.016,0.005-0.04-0.014-0.051l-1.109-0.64
					c-0.018-0.009-0.042-0.006-0.052,0.015c-0.01,0.016-0.003,0.041,0.014,0.053l1.11,0.641
					C65.791,98.824,65.797,98.826,65.804,98.826z"/>
			</g>
			<g>
				<path fill="#5CC9FF" d="M65.804,100.574c0.014,0,0.026-0.009,0.033-0.021c0.012-0.018,0.005-0.041-0.014-0.053l-1.109-0.64
					c-0.018-0.011-0.042-0.007-0.052,0.015c-0.01,0.018-0.003,0.041,0.014,0.051l1.11,0.642
					C65.791,100.572,65.797,100.574,65.804,100.574z"/>
			</g>
			<g>
				<path fill="#5CC9FF" d="M65.804,102.317c0.014,0,0.026-0.007,0.033-0.021c0.012-0.017,0.005-0.041-0.014-0.049l-1.109-0.643
					c-0.018-0.011-0.042-0.004-0.052,0.015c-0.01,0.019-0.003,0.041,0.014,0.054l1.11,0.639
					C65.791,102.317,65.797,102.317,65.804,102.317z"/>
			</g>
			<g>
				<path fill="#5CC9FF" d="M65.804,104.063c0.014,0,0.026-0.006,0.033-0.018c0.012-0.019,0.005-0.041-0.014-0.051l-1.109-0.643
					c-0.018-0.012-0.042-0.004-0.052,0.012c-0.01,0.021-0.003,0.041,0.014,0.056l1.11,0.642
					C65.791,104.063,65.797,104.063,65.804,104.063z"/>
			</g>
		</g>
		<g>
			<g>
				<path fill="#ABF4D0" d="M68.802,96.334c0.428,0.245,0.777,0.851,0.777,1.341v10.017l-1.554-0.897V96.779
					C68.025,96.287,68.375,96.084,68.802,96.334z"/>
				<path fill="#4E9EF4" d="M68.802,96.334c-0.188-0.11-0.359-0.127-0.495-0.076c-0.077,0.095-0.123,0.233-0.123,0.412v10.01
					l1.395,0.807v-9.812C69.579,97.185,69.229,96.579,68.802,96.334z"/>
				<path fill="#2F9AEA" d="M69.579,107.486v-9.812c0-0.49-0.35-1.096-0.777-1.341c-0.188-0.11-0.359-0.127-0.495-0.076
					c-0.077,0.095-0.123,0.233-0.123,0.412"/>
			</g>
			<g>
				<path fill="#5CC9FF" d="M69.437,99.152c0.013,0,0.025-0.008,0.033-0.021c0.012-0.02,0.004-0.043-0.015-0.052l-1.109-0.64
					c-0.018-0.012-0.042-0.006-0.052,0.016c-0.009,0.016-0.003,0.039,0.014,0.051l1.11,0.639
					C69.423,99.148,69.43,99.152,69.437,99.152z"/>
			</g>
			<g>
				<path fill="#5CC9FF" d="M69.437,100.896c0.013,0,0.025-0.006,0.033-0.021c0.012-0.019,0.004-0.04-0.015-0.051l-1.109-0.64
					c-0.018-0.013-0.042-0.006-0.052,0.014c-0.009,0.017-0.003,0.039,0.014,0.053l1.11,0.641
					C69.423,100.896,69.43,100.896,69.437,100.896z"/>
			</g>
			<g>
				<path fill="#5CC9FF" d="M69.437,102.643c0.013,0,0.025-0.006,0.033-0.019c0.012-0.019,0.004-0.041-0.015-0.054l-1.109-0.642
					c-0.018-0.011-0.042-0.004-0.052,0.015c-0.009,0.018-0.003,0.043,0.014,0.053l1.11,0.643
					C69.423,102.641,69.43,102.643,69.437,102.643z"/>
			</g>
			<g>
				<path fill="#5CC9FF" d="M69.437,104.389c0.013,0,0.025-0.007,0.033-0.021c0.012-0.016,0.004-0.041-0.015-0.051l-1.109-0.64
					c-0.018-0.013-0.042-0.005-0.052,0.015c-0.009,0.018-0.003,0.039,0.014,0.051l1.11,0.643
					C69.423,104.387,69.43,104.389,69.437,104.389z"/>
			</g>
			<g>
				<path fill="#5CC9FF" d="M69.437,106.134c0.013,0,0.025-0.005,0.033-0.019c0.012-0.018,0.004-0.041-0.015-0.053l-1.109-0.643
					c-0.018-0.01-0.042-0.004-0.052,0.015c-0.009,0.021-0.003,0.041,0.014,0.054l1.11,0.643
					C69.423,106.132,69.43,106.134,69.437,106.134z"/>
			</g>
		</g>
		<g>
			<g>
				<path fill="#ABF4D0" d="M72.435,98.402c0.428,0.248,0.777,0.854,0.777,1.344v10.016l-1.553-0.896V98.851
					C71.658,98.357,72.008,98.155,72.435,98.402z"/>
				<path fill="#4E9EF4" d="M72.435,98.402c-0.188-0.109-0.359-0.123-0.495-0.073c-0.077,0.095-0.123,0.233-0.123,0.409v10.012
					l1.394,0.808v-9.812C73.211,99.256,72.862,98.65,72.435,98.402z"/>
				<path fill="#2F9AEA" d="M73.211,109.558v-9.812c0-0.49-0.349-1.096-0.777-1.344c-0.188-0.109-0.359-0.123-0.495-0.073
					c-0.077,0.095-0.123,0.233-0.123,0.409"/>
			</g>
			<g>
				<path fill="#5CC9FF" d="M73.07,101.22c0.013,0,0.025-0.005,0.033-0.019c0.011-0.019,0.005-0.043-0.014-0.051l-1.109-0.643
					c-0.018-0.01-0.042-0.004-0.052,0.015s-0.004,0.041,0.014,0.052l1.11,0.641C73.057,101.217,73.063,101.22,73.07,101.22z"/>
			</g>
			<g>
				<path fill="#5CC9FF" d="M73.07,102.965c0.013,0,0.025-0.004,0.033-0.018c0.011-0.019,0.005-0.041-0.014-0.051l-1.109-0.643
					c-0.018-0.01-0.042-0.004-0.052,0.014c-0.01,0.02-0.004,0.041,0.014,0.054l1.11,0.64
					C73.057,102.963,73.063,102.965,73.07,102.965z"/>
			</g>
			<g>
				<path fill="#5CC9FF" d="M73.07,104.713c0.013,0,0.025-0.006,0.033-0.021c0.011-0.017,0.005-0.04-0.014-0.053L71.979,104
					c-0.018-0.011-0.042-0.004-0.052,0.014c-0.01,0.019-0.004,0.043,0.014,0.051l1.11,0.643
					C73.057,104.711,73.063,104.713,73.07,104.713z"/>
			</g>
			<g>
				<path fill="#5CC9FF" d="M73.07,106.459c0.013,0,0.025-0.008,0.033-0.022c0.011-0.015,0.005-0.039-0.014-0.05l-1.109-0.639
					c-0.018-0.012-0.042-0.007-0.052,0.014c-0.01,0.02-0.004,0.039,0.014,0.051l1.11,0.641
					C73.057,106.457,73.063,106.459,73.07,106.459z"/>
			</g>
			<g>
				<path fill="#5CC9FF" d="M73.07,108.205c0.013,0,0.025-0.009,0.033-0.021c0.011-0.016,0.005-0.041-0.014-0.05l-1.109-0.643
					c-0.018-0.011-0.042-0.005-0.052,0.015s-0.004,0.041,0.014,0.053l1.11,0.642C73.057,108.203,73.063,108.205,73.07,108.205z"/>
			</g>
		</g>
		<g>
			<g>
				<path fill="#ABF4D0" d="M76.068,100.474c0.427,0.248,0.776,0.853,0.776,1.343v10.015l-1.553-0.897v-10.012
					C75.292,100.426,75.641,100.225,76.068,100.474z"/>
				<path fill="#4E9EF4" d="M76.068,100.474c-0.188-0.11-0.359-0.127-0.496-0.073c-0.076,0.094-0.122,0.23-0.122,0.409v10.012
					l1.394,0.808v-9.813C76.844,101.326,76.495,100.722,76.068,100.474z"/>
				<path fill="#2F9AEA" d="M76.844,111.629v-9.813c0-0.49-0.349-1.095-0.776-1.343c-0.188-0.11-0.359-0.127-0.496-0.073
					c-0.076,0.094-0.122,0.23-0.122,0.409"/>
			</g>
			<g>
				<path fill="#5CC9FF" d="M76.703,103.291c0.013,0,0.025-0.007,0.032-0.021c0.012-0.016,0.004-0.041-0.014-0.051l-1.109-0.64
					c-0.018-0.011-0.042-0.007-0.053,0.015c-0.01,0.018-0.003,0.041,0.014,0.051l1.111,0.64
					C76.689,103.288,76.696,103.291,76.703,103.291z"/>
			</g>
			<g>
				<path fill="#5CC9FF" d="M76.703,105.036c0.013,0,0.025-0.007,0.032-0.021c0.012-0.017,0.004-0.041-0.014-0.051l-1.109-0.641
					c-0.018-0.01-0.042-0.006-0.053,0.016c-0.01,0.018-0.003,0.041,0.014,0.053l1.111,0.639
					C76.689,105.034,76.696,105.036,76.703,105.036z"/>
			</g>
			<g>
				<path fill="#5CC9FF" d="M76.703,106.783c0.013,0,0.025-0.008,0.032-0.02c0.012-0.019,0.004-0.041-0.014-0.053l-1.109-0.641
					c-0.018-0.01-0.042-0.006-0.053,0.016c-0.01,0.016-0.003,0.043,0.014,0.05l1.111,0.642
					C76.689,106.783,76.696,106.783,76.703,106.783z"/>
			</g>
			<g>
				<path fill="#5CC9FF" d="M76.703,108.529c0.013,0,0.025-0.008,0.032-0.022c0.012-0.017,0.004-0.04-0.014-0.049l-1.109-0.64
					c-0.018-0.013-0.042-0.006-0.053,0.014c-0.01,0.017-0.003,0.041,0.014,0.052l1.111,0.64
					C76.689,108.527,76.696,108.529,76.703,108.529z"/>
			</g>
			<g>
				<path fill="#5CC9FF" d="M76.703,110.273c0.013,0,0.025-0.006,0.032-0.018c0.012-0.02,0.004-0.041-0.014-0.053l-1.109-0.641
					c-0.018-0.013-0.042-0.005-0.053,0.014c-0.01,0.019-0.003,0.042,0.014,0.053l1.111,0.643
					C76.689,110.273,76.696,110.273,76.703,110.273z"/>
			</g>
		</g>
		<g>
			<g>
				<path fill="#ABF4D0" d="M79.701,102.545c0.427,0.244,0.777,0.85,0.777,1.342v10.016l-1.553-0.898V102.99
					C78.924,102.497,79.274,102.295,79.701,102.545z"/>
				<path fill="#4E9EF4" d="M79.701,102.545c-0.188-0.111-0.359-0.127-0.495-0.076c-0.076,0.094-0.122,0.232-0.122,0.41v10.011
					l1.394,0.808v-9.811C80.478,103.395,80.128,102.789,79.701,102.545z"/>
				<path fill="#2F9AEA" d="M80.478,113.697v-9.811c0-0.492-0.35-1.098-0.777-1.342c-0.188-0.111-0.359-0.127-0.495-0.076
					c-0.076,0.094-0.122,0.232-0.122,0.41"/>
			</g>
			<g>
				<path fill="#5CC9FF" d="M80.335,105.361c0.013,0,0.026-0.006,0.033-0.021c0.011-0.017,0.004-0.043-0.014-0.052l-1.11-0.639
					c-0.018-0.011-0.042-0.007-0.052,0.014c-0.01,0.016-0.004,0.041,0.014,0.051l1.11,0.641
					C80.322,105.359,80.329,105.361,80.335,105.361z"/>
			</g>
			<g>
				<path fill="#5CC9FF" d="M80.335,107.107c0.013,0,0.026-0.007,0.033-0.02c0.011-0.02,0.004-0.043-0.014-0.053l-1.11-0.64
					c-0.018-0.013-0.042-0.005-0.052,0.015c-0.01,0.016-0.004,0.041,0.014,0.053l1.11,0.64
					C80.322,107.105,80.329,107.107,80.335,107.107z"/>
			</g>
			<g>
				<path fill="#5CC9FF" d="M80.335,108.853c0.013,0,0.026-0.007,0.033-0.019c0.011-0.018,0.004-0.041-0.014-0.053l-1.11-0.641
					c-0.018-0.012-0.042-0.004-0.052,0.013c-0.01,0.019-0.004,0.043,0.014,0.054l1.11,0.642
					C80.322,108.853,80.329,108.853,80.335,108.853z"/>
			</g>
			<g>
				<path fill="#5CC9FF" d="M80.335,110.598c0.013,0,0.026-0.006,0.033-0.02c0.011-0.017,0.004-0.041-0.014-0.049l-1.11-0.643
					c-0.018-0.012-0.042-0.004-0.052,0.015c-0.01,0.019-0.004,0.038,0.014,0.051l1.11,0.642
					C80.322,110.596,80.329,110.598,80.335,110.598z"/>
			</g>
			<g>
				<path fill="#5CC9FF" d="M80.335,112.344c0.013,0,0.026-0.006,0.033-0.018c0.011-0.02,0.004-0.041-0.014-0.054l-1.11-0.642
					c-0.018-0.011-0.042-0.002-0.052,0.014c-0.01,0.021-0.004,0.041,0.014,0.054l1.11,0.642
					C80.322,112.342,80.329,112.344,80.335,112.344z"/>
			</g>
		</g>
		<g>
			<g>
				<path fill="#ABF4D0" d="M83.333,104.613c0.427,0.247,0.777,0.852,0.777,1.343v10.017l-1.553-0.897v-10.015
					C82.558,104.568,82.907,104.365,83.333,104.613z"/>
				<path fill="#4E9EF4" d="M83.333,104.613c-0.188-0.109-0.359-0.125-0.495-0.074c-0.076,0.094-0.122,0.233-0.122,0.409v10.013
					l1.394,0.807v-9.812C84.11,105.465,83.761,104.86,83.333,104.613z"/>
				<path fill="#2F9AEA" d="M84.11,115.768v-9.812c0-0.491-0.35-1.096-0.777-1.343c-0.188-0.109-0.359-0.125-0.495-0.074
					c-0.076,0.094-0.122,0.233-0.122,0.409"/>
			</g>
			<g>
				<path fill="#5CC9FF" d="M83.968,107.43c0.013,0,0.026-0.004,0.033-0.019c0.011-0.017,0.004-0.042-0.014-0.051l-1.109-0.642
					c-0.018-0.011-0.042-0.004-0.053,0.014c-0.01,0.019-0.003,0.041,0.014,0.053l1.111,0.641
					C83.955,107.43,83.962,107.43,83.968,107.43z"/>
			</g>
			<g>
				<path fill="#5CC9FF" d="M83.968,109.176c0.013,0,0.026-0.004,0.033-0.019c0.011-0.019,0.004-0.041-0.014-0.052l-1.109-0.641
					c-0.018-0.011-0.042-0.005-0.053,0.014c-0.01,0.018-0.003,0.041,0.014,0.053l1.111,0.643
					C83.955,109.174,83.962,109.176,83.968,109.176z"/>
			</g>
			<g>
				<path fill="#5CC9FF" d="M83.968,110.924c0.013,0,0.026-0.007,0.033-0.02c0.011-0.018,0.004-0.041-0.014-0.053l-1.109-0.642
					c-0.018-0.011-0.042-0.005-0.053,0.015c-0.01,0.018-0.003,0.043,0.014,0.051l1.111,0.642
					C83.955,110.922,83.962,110.924,83.968,110.924z"/>
			</g>
			<g>
				<path fill="#5CC9FF" d="M83.968,112.67c0.013,0,0.026-0.007,0.033-0.021c0.011-0.016,0.004-0.041-0.014-0.051l-1.109-0.641
					c-0.018-0.012-0.042-0.006-0.053,0.016c-0.01,0.018-0.003,0.038,0.014,0.051l1.111,0.64
					C83.955,112.667,83.962,112.67,83.968,112.67z"/>
			</g>
			<g>
				<path fill="#5CC9FF" d="M83.968,114.416c0.013,0,0.026-0.01,0.033-0.021c0.011-0.017,0.004-0.041-0.014-0.051l-1.109-0.643
					c-0.018-0.01-0.042-0.004-0.053,0.016c-0.01,0.02-0.003,0.039,0.014,0.052l1.111,0.642
					C83.955,114.414,83.962,114.416,83.968,114.416z"/>
			</g>
		</g>
		<path fill="#92DDB9" d="M103.845,100.107c-4.989,2.885-9.072,9.949-9.072,15.707v7.774l16.494-9.521v-9.938
			c0-2.088-0.546-3.705-1.466-4.813C108.204,98.611,106.129,98.781,103.845,100.107z"/>
		<path fill="#E5AF17" d="M110.473,104.032c0-2.087-0.546-3.703-1.466-4.812c-0.311-0.135-0.646-0.231-0.991-0.299
			c-0.602-0.024-1.246,0.051-1.917,0.23c-0.063,0.018-0.128,0.037-0.192,0.056c-0.258,0.077-0.521,0.173-0.787,0.28
			c-0.087,0.037-0.173,0.067-0.261,0.105c-0.333,0.148-0.67,0.313-1.014,0.514c-4.989,2.885-9.072,9.949-9.072,15.707v7.774
			l15.699-9.063V104.032z"/>
		<path fill="#F2D62C" d="M110.473,108.563l-9.972-5.761c-0.002,0.002-0.004,0.004-0.006,0.007
			c-0.251,0.261-0.484,0.547-0.724,0.827c-0.224,0.262-0.448,0.521-0.661,0.798c-0.227,0.291-0.445,0.594-0.658,0.902
			c-0.214,0.307-0.418,0.624-0.617,0.943c-0.18,0.29-0.365,0.574-0.531,0.873c-0.333,0.596-0.646,1.203-0.923,1.82
			c-0.084,0.188-0.147,0.384-0.225,0.57c-0.203,0.495-0.392,0.99-0.553,1.49c-0.077,0.238-0.143,0.479-0.209,0.718
			c-0.133,0.479-0.245,0.952-0.334,1.429c-0.041,0.213-0.086,0.428-0.118,0.639c-0.099,0.676-0.167,1.347-0.167,1.996v7.807
			l15.699-9.065V108.563z"/>
		<path fill="#EACB13" d="M110.473,114.556v-5.993l-9.972-5.761c-0.002,0.002-0.004,0.004-0.006,0.007
			c-0.251,0.261-0.484,0.547-0.724,0.827c-0.224,0.262-0.448,0.521-0.661,0.798c-0.227,0.291-0.445,0.594-0.658,0.902
			c-0.214,0.307-0.418,0.624-0.617,0.943c-0.18,0.29-0.365,0.574-0.531,0.873c-0.333,0.596-0.646,1.203-0.923,1.82
			c-0.084,0.188-0.147,0.384-0.225,0.57c-0.203,0.495-0.392,0.99-0.553,1.49c-0.077,0.238-0.143,0.479-0.209,0.718
			c-0.133,0.479-0.245,0.952-0.334,1.429c-0.041,0.213-0.086,0.428-0.118,0.639c-0.099,0.676-0.167,1.347-0.167,1.996"/>
	</g>
	<g>
		<g>
			<polygon fill="#6DBF96" points="66.393,72.494 66.393,88.975 87.802,101.335 87.802,84.854 			"/>
			<polygon fill="#5BAA80" points="109.21,72.494 109.21,88.975 87.802,101.335 87.802,84.854 			"/>
			<polygon fill="#92DDB9" points="66.393,71.502 66.393,87.984 87.802,100.344 87.802,83.862 			"/>
			<polyline fill="#82D1AA" points="87.802,100.344 87.802,83.862 66.393,71.502 			"/>
			<polygon fill="#7CC4A3" points="109.21,71.502 109.21,87.984 87.802,100.344 87.802,83.862 			"/>
			<polyline fill="#6DBF96" points="87.802,100.344 87.802,83.862 109.21,71.502 			"/>
			<polygon fill="#ACE8CA" points="87.802,59.141 66.393,71.502 87.802,83.862 109.21,71.502 			"/>
			<polygon fill="#92DDB9" points="87.802,59.699 67.359,71.502 87.802,83.305 108.245,71.502 			"/>
			<polygon fill="#82D1AA" points="87.802,60.303 67.881,71.804 87.802,83.305 107.723,71.804 			"/>
			<polyline fill="#80CEA6" points="87.802,83.305 107.723,71.804 87.802,60.303 			"/>
			<polygon fill="#6BAA8C" points="74.317,68.088 70.599,70.234 70.599,73.373 87.802,83.305 105.245,73.234 105.245,70.373 
				101.286,68.088 			"/>
		</g>
		<g>
			<g>
				<path fill="#ABF4D0" d="M69.022,75.02c0.306,0.177,0.556,0.609,0.556,0.959v7.162l-1.11-0.643V75.34
					C68.468,74.988,68.717,74.843,69.022,75.02z"/>
				<path fill="#4E9EF4" d="M69.022,75.02c-0.134-0.078-0.257-0.089-0.354-0.053c-0.055,0.066-0.088,0.165-0.088,0.292v7.159
					l0.997,0.576v-7.016C69.578,75.629,69.328,75.196,69.022,75.02z"/>
				<path fill="#2F9AEA" d="M69.578,82.994v-7.016c0-0.35-0.25-0.782-0.556-0.959c-0.134-0.078-0.257-0.089-0.354-0.053
					c-0.055,0.066-0.088,0.165-0.088,0.292"/>
			</g>
			<g>
				<path fill="#5CC9FF" d="M69.477,77.033c0.009,0,0.018-0.004,0.023-0.014c0.009-0.012,0.004-0.031-0.01-0.037l-0.793-0.457
					c-0.012-0.009-0.03-0.004-0.037,0.01c-0.007,0.012-0.003,0.029,0.01,0.037l0.794,0.457
					C69.467,77.031,69.472,77.033,69.477,77.033z"/>
			</g>
			<g>
				<path fill="#5CC9FF" d="M69.477,78.281c0.009,0,0.018-0.002,0.023-0.013c0.009-0.013,0.004-0.03-0.01-0.038l-0.793-0.457
					c-0.012-0.008-0.03-0.004-0.037,0.01c-0.007,0.014-0.003,0.029,0.01,0.037l0.794,0.459
					C69.467,78.279,69.472,78.281,69.477,78.281z"/>
			</g>
			<g>
				<path fill="#5CC9FF" d="M69.477,79.531c0.009,0,0.018-0.006,0.023-0.015c0.009-0.013,0.004-0.03-0.01-0.038l-0.793-0.457
					c-0.012-0.008-0.03-0.005-0.037,0.01c-0.007,0.014-0.003,0.03,0.01,0.037l0.794,0.459
					C69.467,79.529,69.472,79.531,69.477,79.531z"/>
			</g>
			<g>
				<path fill="#5CC9FF" d="M69.477,80.779c0.009,0,0.018-0.006,0.023-0.017c0.009-0.011,0.004-0.028-0.01-0.035l-0.793-0.458
					c-0.012-0.008-0.03-0.004-0.037,0.011c-0.007,0.013-0.003,0.028,0.01,0.036l0.794,0.459
					C69.467,80.777,69.472,80.779,69.477,80.779z"/>
			</g>
			<g>
				<path fill="#5CC9FF" d="M69.477,82.027c0.009,0,0.018-0.006,0.023-0.015c0.009-0.014,0.004-0.03-0.01-0.037l-0.793-0.459
					c-0.012-0.007-0.03-0.002-0.037,0.011c-0.007,0.014-0.003,0.029,0.01,0.039l0.794,0.457
					C69.467,82.025,69.472,82.027,69.477,82.027z"/>
			</g>
		</g>
		<g>
			<g>
				<path fill="#ABF4D0" d="M71.62,76.5c0.306,0.176,0.556,0.607,0.556,0.96v7.159l-1.111-0.641v-7.159
					C71.065,76.466,71.315,76.322,71.62,76.5z"/>
				<path fill="#4E9EF4" d="M71.62,76.5c-0.135-0.078-0.257-0.09-0.354-0.055c-0.055,0.067-0.087,0.168-0.087,0.295v7.158
					l0.997,0.575V77.46C72.176,77.107,71.926,76.676,71.62,76.5z"/>
				<path fill="#2F9AEA" d="M72.176,84.474V77.46c0-0.353-0.25-0.784-0.556-0.96c-0.135-0.078-0.257-0.09-0.354-0.055
					c-0.055,0.067-0.087,0.168-0.087,0.295"/>
			</g>
			<g>
				<path fill="#5CC9FF" d="M72.074,78.514c0.01,0,0.019-0.004,0.023-0.014c0.008-0.013,0.003-0.03-0.01-0.037l-0.793-0.457
					c-0.013-0.008-0.03-0.005-0.037,0.01c-0.007,0.013-0.003,0.029,0.01,0.036l0.793,0.458
					C72.064,78.512,72.069,78.514,72.074,78.514z"/>
			</g>
			<g>
				<path fill="#5CC9FF" d="M72.074,79.762c0.01,0,0.019-0.004,0.023-0.014c0.008-0.013,0.003-0.03-0.01-0.037l-0.793-0.458
					c-0.013-0.007-0.03-0.004-0.037,0.011c-0.007,0.012-0.003,0.029,0.01,0.037l0.793,0.458
					C72.064,79.761,72.069,79.762,72.074,79.762z"/>
			</g>
			<g>
				<path fill="#5CC9FF" d="M72.074,81.012c0.01,0,0.019-0.006,0.023-0.016c0.008-0.013,0.003-0.028-0.01-0.037l-0.793-0.458
					c-0.013-0.007-0.03-0.005-0.037,0.011c-0.007,0.013-0.003,0.029,0.01,0.036l0.793,0.459
					C72.064,81.01,72.069,81.012,72.074,81.012z"/>
			</g>
			<g>
				<path fill="#5CC9FF" d="M72.074,82.258c0.01,0,0.019-0.004,0.023-0.014c0.008-0.012,0.003-0.029-0.01-0.035l-0.793-0.459
					c-0.013-0.008-0.03-0.004-0.037,0.01c-0.007,0.013-0.003,0.029,0.01,0.038l0.793,0.458
					C72.064,82.258,72.069,82.258,72.074,82.258z"/>
			</g>
			<g>
				<path fill="#5CC9FF" d="M72.074,83.506c0.01,0,0.019-0.004,0.023-0.012c0.008-0.014,0.003-0.029-0.01-0.037l-0.793-0.459
					c-0.013-0.01-0.03-0.004-0.037,0.009c-0.007,0.015-0.003,0.028,0.01,0.04l0.793,0.459
					C72.064,83.506,72.069,83.506,72.074,83.506z"/>
			</g>
		</g>
		<g>
			<g>
				<path fill="#ABF4D0" d="M74.217,77.98c0.306,0.176,0.556,0.607,0.556,0.959v7.16l-1.111-0.641v-7.16
					C73.662,77.947,73.912,77.803,74.217,77.98z"/>
				<path fill="#4E9EF4" d="M74.217,77.98c-0.135-0.078-0.257-0.091-0.354-0.055c-0.055,0.068-0.087,0.167-0.087,0.294v7.157
					l0.997,0.578v-7.016C74.773,78.588,74.523,78.156,74.217,77.98z"/>
				<path fill="#2F9AEA" d="M74.773,85.955v-7.016c0-0.352-0.25-0.783-0.556-0.959c-0.135-0.078-0.257-0.091-0.354-0.055
					c-0.055,0.068-0.087,0.167-0.087,0.294"/>
			</g>
			<g>
				<path fill="#5CC9FF" d="M74.671,79.995c0.01,0,0.019-0.005,0.023-0.016c0.008-0.013,0.003-0.03-0.01-0.036l-0.793-0.457
					c-0.013-0.01-0.03-0.006-0.037,0.011c-0.007,0.011-0.003,0.028,0.01,0.034l0.793,0.459
					C74.662,79.992,74.667,79.995,74.671,79.995z"/>
			</g>
			<g>
				<path fill="#5CC9FF" d="M74.671,81.242c0.01,0,0.019-0.004,0.023-0.015c0.008-0.013,0.003-0.03-0.01-0.036l-0.793-0.457
					c-0.013-0.01-0.03-0.004-0.037,0.009c-0.007,0.013-0.003,0.028,0.01,0.038l0.793,0.457
					C74.662,81.242,74.667,81.242,74.671,81.242z"/>
			</g>
			<g>
				<path fill="#5CC9FF" d="M74.671,82.49c0.01,0,0.019-0.004,0.023-0.013c0.008-0.013,0.003-0.03-0.01-0.038l-0.793-0.459
					c-0.013-0.008-0.03-0.003-0.037,0.011c-0.007,0.013-0.003,0.03,0.01,0.038l0.793,0.459C74.662,82.49,74.667,82.49,74.671,82.49z
					"/>
			</g>
			<g>
				<path fill="#5CC9FF" d="M74.671,83.738c0.01,0,0.019-0.004,0.023-0.014c0.008-0.012,0.003-0.029-0.01-0.037l-0.793-0.457
					c-0.013-0.009-0.03-0.004-0.037,0.01c-0.007,0.014-0.003,0.028,0.01,0.037l0.793,0.459
					C74.662,83.736,74.667,83.738,74.671,83.738z"/>
			</g>
			<g>
				<path fill="#5CC9FF" d="M74.671,84.986c0.01,0,0.019-0.004,0.023-0.013c0.008-0.013,0.003-0.028-0.01-0.038l-0.793-0.459
					c-0.013-0.007-0.03-0.003-0.037,0.01c-0.007,0.016-0.003,0.029,0.01,0.039l0.793,0.459
					C74.662,84.986,74.667,84.986,74.671,84.986z"/>
			</g>
		</g>
		<g>
			<g>
				<path fill="#ABF4D0" d="M76.815,79.459c0.306,0.178,0.555,0.609,0.555,0.96v7.162l-1.11-0.642v-7.16
					C76.26,79.428,76.51,79.283,76.815,79.459z"/>
				<path fill="#4E9EF4" d="M76.815,79.459c-0.135-0.078-0.257-0.088-0.354-0.052c-0.055,0.066-0.088,0.165-0.088,0.292v7.158
					l0.997,0.577v-7.016C77.37,80.068,77.121,79.637,76.815,79.459z"/>
				<path fill="#2F9AEA" d="M77.37,87.435v-7.016c0-0.351-0.25-0.782-0.555-0.96c-0.135-0.078-0.257-0.088-0.354-0.052
					c-0.055,0.066-0.088,0.165-0.088,0.292"/>
			</g>
			<g>
				<path fill="#5CC9FF" d="M77.269,81.474c0.009,0,0.018-0.004,0.023-0.015c0.008-0.012,0.004-0.03-0.01-0.035l-0.793-0.459
					c-0.013-0.008-0.03-0.002-0.037,0.01c-0.007,0.014-0.003,0.029,0.01,0.037l0.794,0.458
					C77.259,81.472,77.264,81.474,77.269,81.474z"/>
			</g>
			<g>
				<path fill="#5CC9FF" d="M77.269,82.721c0.009,0,0.018-0.002,0.023-0.012c0.008-0.014,0.004-0.03-0.01-0.037l-0.793-0.459
					c-0.013-0.008-0.03-0.003-0.037,0.01c-0.007,0.014-0.003,0.03,0.01,0.038l0.794,0.458C77.259,82.72,77.264,82.721,77.269,82.721
					z"/>
			</g>
			<g>
				<path fill="#5CC9FF" d="M77.269,83.971c0.009,0,0.018-0.004,0.023-0.014c0.008-0.012,0.004-0.03-0.01-0.038l-0.793-0.458
					c-0.013-0.008-0.03-0.004-0.037,0.01c-0.007,0.014-0.003,0.031,0.01,0.037l0.794,0.459
					C77.259,83.97,77.264,83.971,77.269,83.971z"/>
			</g>
			<g>
				<path fill="#5CC9FF" d="M77.269,85.219c0.009,0,0.018-0.006,0.023-0.016c0.008-0.011,0.004-0.027-0.01-0.035l-0.793-0.457
					c-0.013-0.008-0.03-0.006-0.037,0.01c-0.007,0.014-0.003,0.027,0.01,0.036l0.794,0.458
					C77.259,85.218,77.264,85.219,77.269,85.219z"/>
			</g>
			<g>
				<path fill="#5CC9FF" d="M77.269,86.468c0.009,0,0.018-0.007,0.023-0.015c0.008-0.012,0.004-0.03-0.01-0.037l-0.793-0.459
					c-0.013-0.008-0.03-0.002-0.037,0.01c-0.007,0.015-0.003,0.029,0.01,0.039l0.794,0.459
					C77.259,86.466,77.264,86.468,77.269,86.468z"/>
			</g>
		</g>
		<g>
			<g>
				<path fill="#ABF4D0" d="M79.413,80.94c0.305,0.177,0.555,0.608,0.555,0.96v7.159l-1.11-0.642V81.26
					C78.857,80.906,79.107,80.762,79.413,80.94z"/>
				<path fill="#4E9EF4" d="M79.413,80.94c-0.135-0.079-0.257-0.091-0.354-0.054c-0.055,0.068-0.087,0.166-0.087,0.294v7.157
					l0.997,0.576V81.9C79.967,81.549,79.717,81.117,79.413,80.94z"/>
				<path fill="#2F9AEA" d="M79.967,88.914V81.9c0-0.352-0.25-0.783-0.555-0.96c-0.135-0.079-0.257-0.091-0.354-0.054
					c-0.055,0.068-0.087,0.166-0.087,0.294"/>
			</g>
			<g>
				<path fill="#5CC9FF" d="M79.866,82.953c0.01,0,0.019-0.004,0.023-0.014c0.008-0.012,0.003-0.029-0.01-0.037l-0.793-0.457
					c-0.013-0.008-0.03-0.004-0.038,0.01c-0.006,0.014-0.002,0.029,0.01,0.037l0.794,0.457
					C79.857,82.951,79.861,82.953,79.866,82.953z"/>
			</g>
			<g>
				<path fill="#5CC9FF" d="M79.866,84.201c0.01,0,0.019-0.004,0.023-0.014c0.008-0.012,0.003-0.029-0.01-0.037l-0.793-0.457
					c-0.013-0.008-0.03-0.004-0.038,0.011c-0.006,0.013-0.002,0.028,0.01,0.038l0.794,0.457
					C79.857,84.201,79.861,84.201,79.866,84.201z"/>
			</g>
			<g>
				<path fill="#5CC9FF" d="M79.866,85.451c0.01,0,0.019-0.006,0.023-0.015c0.008-0.013,0.003-0.028-0.01-0.038l-0.793-0.457
					c-0.013-0.007-0.03-0.005-0.038,0.011c-0.006,0.011-0.002,0.03,0.01,0.036l0.794,0.459
					C79.857,85.451,79.861,85.451,79.866,85.451z"/>
			</g>
			<g>
				<path fill="#5CC9FF" d="M79.866,86.699c0.01,0,0.019-0.006,0.023-0.016c0.008-0.012,0.003-0.029-0.01-0.035l-0.793-0.457
					c-0.013-0.009-0.03-0.005-0.038,0.01c-0.006,0.012-0.002,0.028,0.01,0.037l0.794,0.457
					C79.857,86.699,79.861,86.699,79.866,86.699z"/>
			</g>
			<g>
				<path fill="#5CC9FF" d="M79.866,87.945c0.01,0,0.019-0.004,0.023-0.012c0.008-0.014,0.003-0.029-0.01-0.037l-0.793-0.459
					c-0.013-0.009-0.03-0.003-0.038,0.01c-0.006,0.014-0.002,0.03,0.01,0.039l0.794,0.459
					C79.857,87.945,79.861,87.945,79.866,87.945z"/>
			</g>
		</g>
		<g>
			<g>
				<path fill="#ABF4D0" d="M82.01,82.42c0.305,0.176,0.555,0.608,0.555,0.961v7.16l-1.11-0.643v-7.159
					C81.455,82.387,81.705,82.242,82.01,82.42z"/>
				<path fill="#4E9EF4" d="M82.01,82.42c-0.135-0.078-0.257-0.09-0.354-0.054c-0.054,0.067-0.087,0.167-0.087,0.294v7.157
					l0.997,0.577v-7.014C82.565,83.028,82.315,82.596,82.01,82.42z"/>
				<path fill="#2F9AEA" d="M82.565,90.395v-7.014c0-0.353-0.25-0.785-0.555-0.961c-0.135-0.078-0.257-0.09-0.354-0.054
					c-0.054,0.067-0.087,0.167-0.087,0.294"/>
			</g>
			<g>
				<path fill="#5CC9FF" d="M82.463,84.434c0.01,0,0.019-0.004,0.024-0.014c0.008-0.012,0.002-0.031-0.01-0.037l-0.793-0.457
					c-0.013-0.007-0.03-0.004-0.038,0.01c-0.007,0.012-0.002,0.03,0.01,0.036l0.794,0.458
					C82.454,84.433,82.459,84.434,82.463,84.434z"/>
			</g>
			<g>
				<path fill="#5CC9FF" d="M82.463,85.683c0.01,0,0.019-0.005,0.024-0.015c0.008-0.014,0.002-0.029-0.01-0.036l-0.793-0.458
					c-0.013-0.008-0.03-0.004-0.038,0.01c-0.007,0.013-0.002,0.029,0.01,0.038l0.794,0.458
					C82.454,85.681,82.459,85.683,82.463,85.683z"/>
			</g>
			<g>
				<path fill="#5CC9FF" d="M82.463,86.931c0.01,0,0.019-0.005,0.024-0.013c0.008-0.014,0.002-0.03-0.01-0.037l-0.793-0.459
					c-0.013-0.01-0.03-0.003-0.038,0.01c-0.007,0.012-0.002,0.029,0.01,0.037l0.794,0.459
					C82.454,86.931,82.459,86.931,82.463,86.931z"/>
			</g>
			<g>
				<path fill="#5CC9FF" d="M82.463,88.179c0.01,0,0.019-0.004,0.024-0.015c0.008-0.012,0.002-0.029-0.01-0.035l-0.793-0.459
					c-0.013-0.008-0.03-0.002-0.038,0.01c-0.007,0.014-0.002,0.029,0.01,0.037l0.794,0.459
					C82.454,88.177,82.459,88.179,82.463,88.179z"/>
			</g>
			<g>
				<path fill="#5CC9FF" d="M82.463,89.427c0.01,0,0.019-0.004,0.024-0.013c0.008-0.014,0.002-0.029-0.01-0.039l-0.793-0.459
					c-0.013-0.006-0.03-0.002-0.038,0.011c-0.007,0.016-0.002,0.03,0.01,0.038l0.794,0.459
					C82.454,89.426,82.459,89.427,82.463,89.427z"/>
			</g>
		</g>
		<g>
			<g>
				<path fill="#ABF4D0" d="M84.607,83.899c0.305,0.177,0.555,0.608,0.555,0.96v7.162l-1.11-0.641v-7.162
					C84.052,83.867,84.302,83.723,84.607,83.899z"/>
				<path fill="#4E9EF4" d="M84.607,83.899c-0.135-0.077-0.257-0.089-0.354-0.052c-0.054,0.066-0.087,0.165-0.087,0.292v7.157
					l0.997,0.578v-7.016C85.163,84.508,84.913,84.076,84.607,83.899z"/>
				<path fill="#2F9AEA" d="M85.163,91.875v-7.016c0-0.352-0.25-0.783-0.555-0.96c-0.135-0.077-0.257-0.089-0.354-0.052
					c-0.054,0.066-0.087,0.165-0.087,0.292"/>
			</g>
			<g>
				<path fill="#5CC9FF" d="M85.061,85.914c0.01,0,0.019-0.004,0.023-0.014c0.008-0.014,0.003-0.031-0.01-0.037l-0.793-0.459
					c-0.013-0.007-0.03-0.002-0.038,0.011c-0.007,0.013-0.002,0.028,0.01,0.038l0.794,0.457
					C85.051,85.914,85.057,85.914,85.061,85.914z"/>
			</g>
			<g>
				<path fill="#5CC9FF" d="M85.061,87.162c0.01,0,0.019-0.004,0.023-0.014c0.008-0.014,0.003-0.029-0.01-0.037l-0.793-0.459
					c-0.013-0.007-0.03-0.002-0.038,0.011c-0.007,0.013-0.002,0.03,0.01,0.038l0.794,0.459
					C85.051,87.16,85.057,87.162,85.061,87.162z"/>
			</g>
			<g>
				<path fill="#5CC9FF" d="M85.061,88.41c0.01,0,0.019-0.004,0.023-0.013c0.008-0.013,0.003-0.028-0.01-0.038L84.281,87.9
					c-0.013-0.007-0.03-0.003-0.038,0.011c-0.007,0.013-0.002,0.03,0.01,0.036l0.794,0.459C85.051,88.41,85.057,88.41,85.061,88.41z
					"/>
			</g>
			<g>
				<path fill="#5CC9FF" d="M85.061,89.66c0.01,0,0.019-0.006,0.023-0.016c0.008-0.012,0.003-0.029-0.01-0.037l-0.793-0.457
					c-0.013-0.009-0.03-0.005-0.038,0.012c-0.007,0.012-0.002,0.026,0.01,0.035l0.794,0.457
					C85.051,89.658,85.057,89.66,85.061,89.66z"/>
			</g>
			<g>
				<path fill="#5CC9FF" d="M85.061,90.908c0.01,0,0.019-0.007,0.023-0.016c0.008-0.012,0.003-0.029-0.01-0.036l-0.793-0.46
					c-0.013-0.006-0.03-0.002-0.038,0.012c-0.007,0.014-0.002,0.028,0.01,0.037l0.794,0.459
					C85.051,90.906,85.057,90.908,85.061,90.908z"/>
			</g>
		</g>
		<g>
			<g>
				<path fill="#ABF4D0" d="M106.561,75.02c-0.306,0.177-0.556,0.609-0.556,0.959v7.162l1.11-0.643V75.34
					C107.115,74.988,106.866,74.843,106.561,75.02z"/>
				<path fill="#4E9EF4" d="M106.561,75.02c0.134-0.078,0.257-0.089,0.354-0.053c0.055,0.066,0.088,0.165,0.088,0.292v7.159
					l-0.997,0.576v-7.016C106.005,75.629,106.255,75.196,106.561,75.02z"/>
				<path fill="#2F9AEA" d="M106.005,82.994v-7.016c0-0.35,0.25-0.782,0.556-0.959c0.134-0.078,0.257-0.089,0.354-0.053
					c0.055,0.066,0.088,0.165,0.088,0.292"/>
			</g>
			<g>
				<path fill="#5CC9FF" d="M106.106,77.033c-0.009,0-0.018-0.004-0.023-0.014c-0.009-0.012-0.004-0.031,0.01-0.037l0.793-0.457
					c0.012-0.009,0.03-0.004,0.037,0.01c0.007,0.012,0.002,0.029-0.01,0.037l-0.794,0.457
					C106.116,77.031,106.111,77.033,106.106,77.033z"/>
			</g>
			<g>
				<path fill="#5CC9FF" d="M106.106,78.281c-0.009,0-0.018-0.002-0.023-0.013c-0.009-0.013-0.004-0.03,0.01-0.038l0.793-0.457
					c0.012-0.008,0.03-0.004,0.037,0.01c0.007,0.014,0.002,0.029-0.01,0.037l-0.794,0.459
					C106.116,78.279,106.111,78.281,106.106,78.281z"/>
			</g>
			<g>
				<path fill="#5CC9FF" d="M106.106,79.531c-0.009,0-0.018-0.006-0.023-0.015c-0.009-0.013-0.004-0.03,0.01-0.038l0.793-0.457
					c0.012-0.008,0.03-0.005,0.037,0.01c0.007,0.014,0.002,0.03-0.01,0.037l-0.794,0.459
					C106.116,79.529,106.111,79.531,106.106,79.531z"/>
			</g>
			<g>
				<path fill="#5CC9FF" d="M106.106,80.779c-0.009,0-0.018-0.006-0.023-0.017c-0.009-0.011-0.004-0.028,0.01-0.035l0.793-0.458
					c0.012-0.008,0.03-0.004,0.037,0.011c0.007,0.013,0.002,0.028-0.01,0.036l-0.794,0.459
					C106.116,80.777,106.111,80.779,106.106,80.779z"/>
			</g>
			<g>
				<path fill="#5CC9FF" d="M106.106,82.027c-0.009,0-0.018-0.006-0.023-0.015c-0.009-0.014-0.004-0.03,0.01-0.037l0.793-0.459
					c0.012-0.007,0.03-0.002,0.037,0.011c0.007,0.014,0.002,0.029-0.01,0.039l-0.794,0.457
					C106.116,82.025,106.111,82.027,106.106,82.027z"/>
			</g>
		</g>
		<g>
			<g>
				<path fill="#ABF4D0" d="M103.963,76.5c-0.306,0.176-0.556,0.607-0.556,0.96v7.159l1.111-0.641v-7.159
					C104.518,76.466,104.268,76.322,103.963,76.5z"/>
				<path fill="#4E9EF4" d="M103.963,76.5c0.135-0.078,0.257-0.09,0.354-0.055c0.055,0.067,0.087,0.168,0.087,0.295v7.158
					l-0.997,0.575V77.46C103.407,77.107,103.657,76.676,103.963,76.5z"/>
				<path fill="#2F9AEA" d="M103.407,84.474V77.46c0-0.353,0.25-0.784,0.556-0.96c0.135-0.078,0.257-0.09,0.354-0.055
					c0.055,0.067,0.087,0.168,0.087,0.295"/>
			</g>
			<g>
				<path fill="#5CC9FF" d="M103.509,78.514c-0.01,0-0.019-0.004-0.023-0.014c-0.008-0.013-0.003-0.03,0.01-0.037l0.793-0.457
					c0.013-0.008,0.03-0.005,0.037,0.01c0.007,0.013,0.003,0.029-0.01,0.036l-0.793,0.458
					C103.519,78.512,103.514,78.514,103.509,78.514z"/>
			</g>
			<g>
				<path fill="#5CC9FF" d="M103.509,79.762c-0.01,0-0.019-0.004-0.023-0.014c-0.008-0.013-0.003-0.03,0.01-0.037l0.793-0.458
					c0.013-0.007,0.03-0.004,0.037,0.011c0.007,0.012,0.003,0.029-0.01,0.037l-0.793,0.458
					C103.519,79.761,103.514,79.762,103.509,79.762z"/>
			</g>
			<g>
				<path fill="#5CC9FF" d="M103.509,81.012c-0.01,0-0.019-0.006-0.023-0.016c-0.008-0.013-0.003-0.028,0.01-0.037l0.793-0.458
					c0.013-0.007,0.03-0.005,0.037,0.011c0.007,0.013,0.003,0.029-0.01,0.036l-0.793,0.459
					C103.519,81.01,103.514,81.012,103.509,81.012z"/>
			</g>
			<g>
				<path fill="#5CC9FF" d="M103.509,82.258c-0.01,0-0.019-0.004-0.023-0.014c-0.008-0.012-0.003-0.029,0.01-0.035l0.793-0.459
					c0.013-0.008,0.03-0.004,0.037,0.01c0.007,0.013,0.003,0.029-0.01,0.038l-0.793,0.458
					C103.519,82.258,103.514,82.258,103.509,82.258z"/>
			</g>
			<g>
				<path fill="#5CC9FF" d="M103.509,83.506c-0.01,0-0.019-0.004-0.023-0.012c-0.008-0.014-0.003-0.029,0.01-0.037l0.793-0.459
					c0.013-0.01,0.03-0.004,0.037,0.009c0.007,0.015,0.003,0.028-0.01,0.04l-0.793,0.459
					C103.519,83.506,103.514,83.506,103.509,83.506z"/>
			</g>
		</g>
		<g>
			<g>
				<path fill="#ABF4D0" d="M101.366,77.98c-0.306,0.176-0.556,0.607-0.556,0.959v7.16l1.111-0.641v-7.16
					C101.921,77.947,101.671,77.803,101.366,77.98z"/>
				<path fill="#4E9EF4" d="M101.366,77.98c0.134-0.078,0.257-0.091,0.354-0.055c0.055,0.068,0.087,0.167,0.087,0.294v7.157
					l-0.997,0.578v-7.016C100.81,78.588,101.06,78.156,101.366,77.98z"/>
				<path fill="#2F9AEA" d="M100.81,85.955v-7.016c0-0.352,0.25-0.783,0.556-0.959c0.134-0.078,0.257-0.091,0.354-0.055
					c0.055,0.068,0.087,0.167,0.087,0.294"/>
			</g>
			<g>
				<path fill="#5CC9FF" d="M100.912,79.995c-0.01,0-0.019-0.005-0.023-0.016c-0.008-0.013-0.003-0.03,0.01-0.036l0.793-0.457
					c0.013-0.01,0.03-0.006,0.037,0.011c0.007,0.011,0.003,0.028-0.01,0.034l-0.793,0.459
					C100.921,79.992,100.917,79.995,100.912,79.995z"/>
			</g>
			<g>
				<path fill="#5CC9FF" d="M100.912,81.242c-0.01,0-0.019-0.004-0.023-0.015c-0.008-0.013-0.003-0.03,0.01-0.036l0.793-0.457
					c0.013-0.01,0.03-0.004,0.037,0.009c0.007,0.013,0.003,0.028-0.01,0.038l-0.793,0.457
					C100.921,81.242,100.917,81.242,100.912,81.242z"/>
			</g>
			<g>
				<path fill="#5CC9FF" d="M100.912,82.49c-0.01,0-0.019-0.004-0.023-0.013c-0.008-0.013-0.003-0.03,0.01-0.038l0.793-0.459
					c0.013-0.008,0.03-0.003,0.037,0.011c0.007,0.013,0.003,0.03-0.01,0.038l-0.793,0.459
					C100.921,82.49,100.917,82.49,100.912,82.49z"/>
			</g>
			<g>
				<path fill="#5CC9FF" d="M100.912,83.738c-0.01,0-0.019-0.004-0.023-0.014c-0.008-0.012-0.003-0.029,0.01-0.037l0.793-0.457
					c0.013-0.009,0.03-0.004,0.037,0.01c0.007,0.014,0.003,0.028-0.01,0.037l-0.793,0.459
					C100.921,83.736,100.917,83.738,100.912,83.738z"/>
			</g>
			<g>
				<path fill="#5CC9FF" d="M100.912,84.986c-0.01,0-0.019-0.004-0.023-0.013c-0.008-0.013-0.003-0.028,0.01-0.038l0.793-0.459
					c0.013-0.007,0.03-0.003,0.037,0.01c0.007,0.016,0.003,0.029-0.01,0.039l-0.793,0.459
					C100.921,84.986,100.917,84.986,100.912,84.986z"/>
			</g>
		</g>
		<g>
			<g>
				<path fill="#ABF4D0" d="M98.768,79.459c-0.306,0.178-0.555,0.609-0.555,0.96v7.162l1.11-0.642v-7.16
					C99.323,79.428,99.073,79.283,98.768,79.459z"/>
				<path fill="#4E9EF4" d="M98.768,79.459c0.135-0.078,0.257-0.088,0.354-0.052c0.055,0.066,0.088,0.165,0.088,0.292v7.158
					l-0.997,0.577v-7.016C98.213,80.068,98.462,79.637,98.768,79.459z"/>
				<path fill="#2F9AEA" d="M98.213,87.435v-7.016c0-0.351,0.25-0.782,0.555-0.96c0.135-0.078,0.257-0.088,0.354-0.052
					c0.055,0.066,0.088,0.165,0.088,0.292"/>
			</g>
			<g>
				<path fill="#5CC9FF" d="M98.314,81.474c-0.009,0-0.018-0.004-0.023-0.015c-0.008-0.012-0.004-0.03,0.01-0.035l0.793-0.459
					c0.013-0.008,0.03-0.002,0.037,0.01c0.007,0.014,0.003,0.029-0.01,0.037l-0.793,0.458
					C98.324,81.472,98.319,81.474,98.314,81.474z"/>
			</g>
			<g>
				<path fill="#5CC9FF" d="M98.314,82.721c-0.009,0-0.018-0.002-0.023-0.012c-0.008-0.014-0.004-0.03,0.01-0.037l0.793-0.459
					c0.013-0.008,0.03-0.003,0.037,0.01c0.007,0.014,0.003,0.03-0.01,0.038l-0.793,0.458C98.324,82.72,98.319,82.721,98.314,82.721z
					"/>
			</g>
			<g>
				<path fill="#5CC9FF" d="M98.314,83.971c-0.009,0-0.018-0.004-0.023-0.014c-0.008-0.012-0.004-0.03,0.01-0.038l0.793-0.458
					c0.013-0.008,0.03-0.004,0.037,0.01c0.007,0.014,0.003,0.031-0.01,0.037l-0.793,0.459C98.324,83.97,98.319,83.971,98.314,83.971
					z"/>
			</g>
			<g>
				<path fill="#5CC9FF" d="M98.314,85.219c-0.009,0-0.018-0.006-0.023-0.016c-0.008-0.011-0.004-0.027,0.01-0.035l0.793-0.457
					c0.013-0.008,0.03-0.006,0.037,0.01c0.007,0.014,0.003,0.027-0.01,0.036l-0.793,0.458
					C98.324,85.218,98.319,85.219,98.314,85.219z"/>
			</g>
			<g>
				<path fill="#5CC9FF" d="M98.314,86.468c-0.009,0-0.018-0.007-0.023-0.015c-0.008-0.012-0.004-0.03,0.01-0.037l0.793-0.459
					c0.013-0.008,0.03-0.002,0.037,0.01c0.007,0.015,0.003,0.029-0.01,0.039l-0.793,0.459
					C98.324,86.466,98.319,86.468,98.314,86.468z"/>
			</g>
		</g>
		<g>
			<g>
				<path fill="#ABF4D0" d="M96.17,80.94c-0.305,0.177-0.555,0.608-0.555,0.96v7.159l1.11-0.642V81.26
					C96.726,80.906,96.476,80.762,96.17,80.94z"/>
				<path fill="#4E9EF4" d="M96.17,80.94c0.135-0.079,0.257-0.091,0.354-0.054c0.055,0.068,0.087,0.166,0.087,0.294v7.157
					l-0.997,0.576V81.9C95.616,81.549,95.865,81.117,96.17,80.94z"/>
				<path fill="#2F9AEA" d="M95.616,88.914V81.9c0-0.352,0.25-0.783,0.555-0.96c0.135-0.079,0.257-0.091,0.354-0.054
					c0.055,0.068,0.087,0.166,0.087,0.294"/>
			</g>
			<g>
				<path fill="#5CC9FF" d="M95.717,82.953c-0.01,0-0.019-0.004-0.023-0.014c-0.008-0.012-0.003-0.029,0.01-0.037l0.793-0.457
					c0.013-0.008,0.03-0.004,0.038,0.01c0.007,0.014,0.002,0.029-0.01,0.037l-0.794,0.457
					C95.726,82.951,95.722,82.953,95.717,82.953z"/>
			</g>
			<g>
				<path fill="#5CC9FF" d="M95.717,84.201c-0.01,0-0.019-0.004-0.023-0.014c-0.008-0.012-0.003-0.029,0.01-0.037l0.793-0.457
					c0.013-0.008,0.03-0.004,0.038,0.011c0.007,0.013,0.002,0.028-0.01,0.038l-0.794,0.457
					C95.726,84.201,95.722,84.201,95.717,84.201z"/>
			</g>
			<g>
				<path fill="#5CC9FF" d="M95.717,85.451c-0.01,0-0.019-0.006-0.023-0.015c-0.008-0.013-0.003-0.028,0.01-0.038l0.793-0.457
					c0.013-0.007,0.03-0.005,0.038,0.011c0.007,0.011,0.002,0.03-0.01,0.036l-0.794,0.459
					C95.726,85.451,95.722,85.451,95.717,85.451z"/>
			</g>
			<g>
				<path fill="#5CC9FF" d="M95.717,86.699c-0.01,0-0.019-0.006-0.023-0.016c-0.008-0.012-0.003-0.029,0.01-0.035l0.793-0.457
					c0.013-0.009,0.03-0.005,0.038,0.01c0.007,0.012,0.002,0.028-0.01,0.037l-0.794,0.457
					C95.726,86.699,95.722,86.699,95.717,86.699z"/>
			</g>
			<g>
				<path fill="#5CC9FF" d="M95.717,87.945c-0.01,0-0.019-0.004-0.023-0.012c-0.008-0.014-0.003-0.029,0.01-0.037l0.793-0.459
					c0.013-0.009,0.03-0.003,0.038,0.01c0.007,0.014,0.002,0.03-0.01,0.039l-0.794,0.459C95.726,87.945,95.722,87.945,95.717,87.945
					z"/>
			</g>
		</g>
		<g>
			<g>
				<path fill="#ABF4D0" d="M93.573,82.42c-0.305,0.176-0.555,0.608-0.555,0.961v7.16l1.11-0.643v-7.159
					C94.128,82.387,93.878,82.242,93.573,82.42z"/>
				<path fill="#4E9EF4" d="M93.573,82.42c0.135-0.078,0.257-0.09,0.354-0.054c0.054,0.067,0.087,0.167,0.087,0.294v7.157
					l-0.997,0.577v-7.014C93.018,83.028,93.268,82.596,93.573,82.42z"/>
				<path fill="#2F9AEA" d="M93.018,90.395v-7.014c0-0.353,0.25-0.785,0.555-0.961c0.135-0.078,0.257-0.09,0.354-0.054
					c0.054,0.067,0.087,0.167,0.087,0.294"/>
			</g>
			<g>
				<path fill="#5CC9FF" d="M93.12,84.434c-0.01,0-0.019-0.004-0.024-0.014c-0.008-0.012-0.002-0.031,0.01-0.037l0.793-0.457
					c0.013-0.007,0.03-0.004,0.038,0.01c0.007,0.012,0.002,0.03-0.01,0.036l-0.794,0.458C93.129,84.433,93.124,84.434,93.12,84.434z
					"/>
			</g>
			<g>
				<path fill="#5CC9FF" d="M93.12,85.683c-0.01,0-0.019-0.005-0.024-0.015c-0.008-0.014-0.002-0.029,0.01-0.036l0.793-0.458
					c0.013-0.008,0.03-0.004,0.038,0.01c0.007,0.013,0.002,0.029-0.01,0.038l-0.794,0.458C93.129,85.681,93.124,85.683,93.12,85.683
					z"/>
			</g>
			<g>
				<path fill="#5CC9FF" d="M93.12,86.931c-0.01,0-0.019-0.005-0.024-0.013c-0.008-0.014-0.002-0.03,0.01-0.037l0.793-0.459
					c0.013-0.01,0.03-0.003,0.038,0.01c0.007,0.012,0.002,0.029-0.01,0.037l-0.794,0.459C93.129,86.931,93.124,86.931,93.12,86.931z
					"/>
			</g>
			<g>
				<path fill="#5CC9FF" d="M93.12,88.179c-0.01,0-0.019-0.004-0.024-0.015c-0.008-0.012-0.002-0.029,0.01-0.035l0.793-0.459
					c0.013-0.008,0.03-0.002,0.038,0.01c0.007,0.014,0.002,0.029-0.01,0.037l-0.794,0.459C93.129,88.177,93.124,88.179,93.12,88.179
					z"/>
			</g>
			<g>
				<path fill="#5CC9FF" d="M93.12,89.427c-0.01,0-0.019-0.004-0.024-0.013c-0.008-0.014-0.002-0.029,0.01-0.039l0.793-0.459
					c0.013-0.006,0.03-0.002,0.038,0.011c0.007,0.016,0.002,0.03-0.01,0.038l-0.794,0.459C93.129,89.426,93.124,89.427,93.12,89.427
					z"/>
			</g>
		</g>
		<g>
			<g>
				<path fill="#ABF4D0" d="M90.976,83.899c-0.305,0.177-0.555,0.608-0.555,0.96v7.162l1.11-0.641v-7.162
					C91.531,83.867,91.281,83.723,90.976,83.899z"/>
				<path fill="#4E9EF4" d="M90.976,83.899c0.135-0.077,0.257-0.089,0.354-0.052c0.054,0.066,0.087,0.165,0.087,0.292v7.157
					l-0.997,0.578v-7.016C90.42,84.508,90.67,84.076,90.976,83.899z"/>
				<path fill="#2F9AEA" d="M90.42,91.875v-7.016c0-0.352,0.25-0.783,0.555-0.96c0.135-0.077,0.257-0.089,0.354-0.052
					c0.054,0.066,0.087,0.165,0.087,0.292"/>
			</g>
			<g>
				<path fill="#5CC9FF" d="M90.522,85.914c-0.01,0-0.019-0.004-0.023-0.014c-0.008-0.014-0.003-0.031,0.01-0.037l0.793-0.459
					c0.013-0.007,0.03-0.002,0.038,0.011c0.007,0.013,0.002,0.028-0.01,0.038l-0.794,0.457
					C90.532,85.914,90.526,85.914,90.522,85.914z"/>
			</g>
			<g>
				<path fill="#5CC9FF" d="M90.522,87.162c-0.01,0-0.019-0.004-0.023-0.014c-0.008-0.014-0.003-0.029,0.01-0.037l0.793-0.459
					c0.013-0.007,0.03-0.002,0.038,0.011c0.007,0.013,0.002,0.03-0.01,0.038l-0.794,0.459C90.532,87.16,90.526,87.162,90.522,87.162
					z"/>
			</g>
			<g>
				<path fill="#5CC9FF" d="M90.522,88.41c-0.01,0-0.019-0.004-0.023-0.013c-0.008-0.013-0.003-0.028,0.01-0.038l0.793-0.459
					c0.013-0.007,0.03-0.003,0.038,0.011c0.007,0.013,0.002,0.03-0.01,0.036l-0.794,0.459C90.532,88.41,90.526,88.41,90.522,88.41z"
					/>
			</g>
			<g>
				<path fill="#5CC9FF" d="M90.522,89.66c-0.01,0-0.019-0.006-0.023-0.016c-0.008-0.012-0.003-0.029,0.01-0.037l0.793-0.457
					c0.013-0.009,0.03-0.005,0.038,0.012c0.007,0.012,0.002,0.026-0.01,0.035l-0.794,0.457C90.532,89.658,90.526,89.66,90.522,89.66
					z"/>
			</g>
			<g>
				<path fill="#5CC9FF" d="M90.522,90.908c-0.01,0-0.019-0.007-0.023-0.016c-0.008-0.012-0.003-0.029,0.01-0.036l0.793-0.46
					c0.013-0.006,0.03-0.002,0.038,0.012c0.007,0.014,0.002,0.028-0.01,0.037l-0.794,0.459
					C90.532,90.906,90.526,90.908,90.522,90.908z"/>
			</g>
		</g>
	</g>
	<g>
		<g>
			<path fill="#6DBF96" d="M67.774,52.484c-7.909-4.564-20.839-4.564-28.744,0c-7.909,4.564-7.909,12.032,0,16.595
				c7.904,4.564,20.835,4.564,28.744,0C75.677,64.517,75.677,57.049,67.774,52.484z"/>
			<path fill="#E8BF15" d="M72.057,44.792c-14.983-8.646-20.173-9.892-37.309,0c-10.265,5.929-10.265,15.618,0,21.54
				c10.26,5.928,27.044,5.928,37.309,0C82.315,60.41,82.315,50.721,72.057,44.792z"/>
			<path fill="#EACB13" d="M74.311,52.033c-9.652-6.818-15.932-11.605-21.007-14.169c-5.05,0.101-10.471,2.261-18.556,6.928
				c-10.265,5.929-10.265,15.618,0,21.54c10.26,5.928,27.044,5.928,37.309,0c4.123-2.382,6.559-5.371,7.368-8.478
				C78.806,55.992,77.188,54.066,74.311,52.033z"/>
			<path fill="#F2D02A" d="M53.304,37.864c-5.05,0.101-10.471,2.261-18.556,6.928c-10.265,5.929-10.265,15.618,0,21.54
				c10.26,5.928,27.044,5.928,37.309,0"/>
			<g>
				<path fill="#EACB13" d="M53.401,70.465c-0.371,0-0.672-0.303-0.672-0.672v-30.85c0-0.369,0.301-0.671,0.672-0.671
					c0.371,0,0.672,0.302,0.672,0.671v30.85C54.073,70.162,53.771,70.465,53.401,70.465z"/>
			</g>
			<path fill="#FFDB43" d="M53.304,37.864c-5.05,0.101-10.471,2.261-18.556,6.928c-10.265,5.929-10.265,15.618,0,21.54"/>
			<path fill="#E8BF15" d="M72.057,64.122c-10.264,5.928-27.048,5.928-37.309,0c-4.648-2.681-7.168-6.135-7.608-9.661
				c-0.53,4.262,1.991,8.631,7.608,11.871c10.26,5.928,27.044,5.928,37.309,0c5.613-3.24,8.133-7.609,7.603-11.871
				C79.222,57.987,76.702,61.441,72.057,64.122z"/>
		</g>
		<g>
			<g>
				<path fill="#E8BF15" d="M53.401,39.15c-0.371,0-0.672-0.303-0.672-0.673V12.172c0-0.373,0.301-0.674,0.672-0.674
					c0.371,0,0.672,0.301,0.672,0.674v26.306C54.073,38.848,53.771,39.15,53.401,39.15z"/>
			</g>
			<g>
				<path fill="#99C1C1" d="M59.293,8.453c-0.063,0.039-0.124,0.078-0.187,0.112C59.169,8.531,59.231,8.492,59.293,8.453z"/>
				<path fill="#E8BF15" d="M59.451,8.355c0.001-0.003,0.003-0.003,0.004-0.007c-0.657,0.649-1.361,1.206-2.094,1.63
					c-3.483,2.011-6.332,0.365-6.332-3.656c0-1.706,0.515-3.578,1.374-5.322c-0.043,0.043-0.087,0.088-0.13,0.133
					c-1.644,2.271-2.725,5.092-2.725,7.567c0,4.021,2.849,5.667,6.332,3.657c0.826-0.48,1.616-1.121,2.343-1.877
					c0.496-0.687,0.942-1.422,1.321-2.186C59.512,8.314,59.482,8.334,59.451,8.355z"/>
			</g>
			<polygon fill="#E8BF15" points="58.345,2.27 56.624,3.257 55.937,1.81 55.135,4.127 52.729,5.514 54.333,6.439 53.786,9.535 
				55.93,6.754 57.541,7.365 56.996,4.992 			"/>
		</g>
	</g>
	<g>
		<g>
			<path fill="#6DBF96" d="M97.197,65.816c-5.17-2.982-13.623-2.982-18.789,0c-5.17,2.984-5.17,7.866,0,10.849
				c5.167,2.982,13.619,2.982,18.789,0C102.363,73.683,102.363,68.801,97.197,65.816z"/>
			<path fill="#E8BF15" d="M99.997,60.788c-9.794-5.651-13.187-6.466-24.387,0c-6.71,3.876-6.71,10.21,0,14.082
				c6.707,3.874,17.678,3.874,24.387,0C106.702,70.998,106.702,64.664,99.997,60.788z"/>
			<path fill="#EACB13" d="M101.471,65.521c-6.311-4.455-10.415-7.586-13.732-9.262c-3.301,0.065-6.844,1.479-12.129,4.528
				c-6.71,3.876-6.71,10.21,0,14.082c6.707,3.874,17.678,3.874,24.387,0c2.695-1.558,4.287-3.512,4.816-5.542
				C104.408,68.109,103.351,66.852,101.471,65.521z"/>
			<path fill="#F2D02A" d="M87.738,56.26c-3.301,0.065-6.844,1.479-12.129,4.528c-6.71,3.876-6.71,10.21,0,14.082
				c6.707,3.874,17.678,3.874,24.387,0"/>
			<path fill="#FFDB43" d="M87.738,56.26c-3.301,0.065-6.844,1.479-12.129,4.528c-6.71,3.876-6.71,10.21,0,14.082"/>
			<path fill="#E8BF15" d="M99.997,73.425c-6.709,3.874-17.68,3.874-24.387,0c-3.039-1.752-4.687-4.011-4.974-6.315
				c-0.347,2.785,1.302,5.641,4.974,7.761c6.707,3.874,17.678,3.874,24.387,0c3.669-2.12,5.316-4.976,4.97-7.761
				C104.68,69.414,103.033,71.673,99.997,73.425z"/>
		</g>
	</g>
	<g>
		<g>
			<path fill="#CEA90D" d="M95.182,59.027c-4.061-2.344-10.702-2.344-14.76,0c-4.062,2.346-4.062,6.18,0,8.523
				c4.059,2.343,10.699,2.343,14.76,0C99.241,65.207,99.241,61.373,95.182,59.027z"/>
			<path fill="#E8BF15" d="M97.382,55.078c-7.694-4.44-10.359-5.08-19.159,0c-5.272,3.044-5.272,8.021,0,11.063
				c5.269,3.043,13.888,3.043,19.159,0C102.649,63.099,102.649,58.122,97.382,55.078z"/>
			<path fill="#EACB13" d="M98.54,58.797c-4.958-3.5-8.182-5.959-10.788-7.276c-2.593,0.052-5.376,1.161-9.528,3.558
				c-5.272,3.044-5.272,8.021,0,11.063c5.269,3.043,13.888,3.043,19.159,0c2.117-1.225,3.368-2.76,3.784-4.354
				C100.848,60.83,100.017,59.842,98.54,58.797z"/>
			<path fill="#F2D02A" d="M87.751,51.521c-2.593,0.052-5.376,1.161-9.528,3.558c-5.272,3.044-5.272,8.021,0,11.063
				c5.269,3.043,13.888,3.043,19.159,0"/>
			<path fill="#FFDB43" d="M87.751,51.521c-2.593,0.052-5.376,1.161-9.528,3.558c-5.272,3.044-5.272,8.021,0,11.063"/>
			<path fill="#E8BF15" d="M97.382,65.006c-5.271,3.042-13.89,3.042-19.159,0c-2.387-1.377-3.682-3.152-3.907-4.962
				c-0.272,2.188,1.022,4.431,3.907,6.097c5.269,3.043,13.888,3.043,19.159,0c2.883-1.666,4.177-3.908,3.904-6.097
				C101.061,61.854,99.767,63.629,97.382,65.006z"/>
		</g>
	</g>
	<g>
		<g>
			<path fill="#CEA90D" d="M92.409,54.244c-2.536-1.465-6.681-1.465-9.215,0c-2.536,1.463-2.536,3.856,0,5.32
				c2.534,1.463,6.68,1.463,9.215,0C94.943,58.101,94.943,55.707,92.409,54.244z"/>
			<path fill="#E8BF15" d="M93.782,51.775c-4.804-2.771-6.468-3.17-11.961,0c-3.292,1.902-3.292,5.009,0,6.908
				c3.289,1.9,8.67,1.9,11.961,0C97.071,56.784,97.071,53.678,93.782,51.775z"/>
			<path fill="#EACB13" d="M94.505,54.098c-3.095-2.185-5.108-3.72-6.735-4.541c-1.619,0.031-3.356,0.725-5.949,2.219
				c-3.292,1.902-3.292,5.009,0,6.908c3.289,1.9,8.67,1.9,11.961,0c1.322-0.765,2.103-1.724,2.363-2.719
				C95.946,55.367,95.428,54.75,94.505,54.098z"/>
			<path fill="#F2D02A" d="M87.77,49.557c-1.619,0.031-3.356,0.725-5.949,2.219c-3.292,1.902-3.292,5.009,0,6.908
				c3.289,1.9,8.67,1.9,11.961,0"/>
			<path fill="#FFDB43" d="M87.77,49.557c-1.619,0.031-3.356,0.725-5.949,2.219c-3.292,1.902-3.292,5.009,0,6.908"/>
			<path fill="#E8BF15" d="M93.782,57.975c-3.291,1.899-8.672,1.899-11.961,0c-1.491-0.859-2.299-1.967-2.439-3.098
				c-0.17,1.367,0.638,2.766,2.439,3.807c3.289,1.9,8.67,1.9,11.961,0c1.8-1.041,2.608-2.439,2.438-3.807
				C96.08,56.008,95.271,57.115,93.782,57.975z"/>
		</g>
	</g>
</g>
</svg>
