<?xml version="1.0" encoding="utf-8"?>
<!-- Generator: Adobe Illustrator 22.0.1, SVG Export Plug-In . SVG Version: 6.00 Build 0)  -->
<svg version="1.1" id="Layer_1" xmlns="http://www.w3.org/2000/svg" xmlns:xlink="http://www.w3.org/1999/xlink" x="0px" y="0px"
	 viewBox="0 0 512 512" style="enable-background:new 0 0 512 512;" xml:space="preserve">
<g>
	<g>
		<g>
			<path style="fill:#EDF3FC;" d="M255.999,40.929c-118.778,0-215.071,96.294-215.071,215.074c0,118.776,96.292,215.068,215.071,215.068
				S471.07,374.779,471.07,256.003C471.07,137.223,374.777,40.929,255.999,40.929z"/>
		</g>
	</g>
	<g>
		<g>
			<path style="fill:#EDF3FC;" d="M255.999,1C115.391,1,1,115.392,1,256.002C1,396.609,115.391,511,255.999,511S511,396.609,511,256.002
				C511,115.392,396.607,1,255.999,1z M255.999,502.832c-136.103,0-246.83-110.728-246.83-246.83
				c0-136.104,110.727-246.833,246.83-246.833c136.102,0,246.832,110.729,246.832,246.833
				C502.831,392.104,392.101,502.832,255.999,502.832z"/>
		</g>
	</g>
	<path style="fill:#5D8EF9;" d="M186.538,133.08h138.919c0.721,0,1.433,0.036,2.135,0.108c10.528,1.069,18.746,9.96,18.746,20.769v0.003
		V358.04v0.004c0,10.81-8.218,19.7-18.746,20.769c-0.702,0.071-1.414,0.108-2.135,0.108H186.538
		c-11.528,0-20.876-9.348-20.876-20.881V153.96C165.662,142.427,175.01,133.08,186.538,133.08z"/>
	<path style="fill:#FFBE1B;" d="M302.09,205.782c0,25.456-20.636,46.089-46.091,46.089c-25.455,0-46.089-20.634-46.089-46.089
		c0-25.455,20.634-46.089,46.089-46.089C281.454,159.693,302.09,180.328,302.09,205.782z"/>
	<path style="fill:#FFFFFF;" d="M255.999,251.872c11.481,0,21.972-4.206,30.04-11.15c-0.45-4.503-3.561-8.353-7.964-9.678l-7.057-2.128
		c0,0-2.318-0.675-2.658-0.788c-2.152-0.724-3.814-1.484-4.177-2.621c-0.31-0.962-0.467-1.953-0.531-2.903
		c-0.04,0.024-0.079,0.043-0.117,0.066c0.88-0.518,1.769-1.106,2.675-1.813c3.768-2.946,7.271-6.284,7.271-10.032
		c0-0.47-0.015-1.221-0.041-2.177c0.265,0.05,0.546,0.05,0.808-0.079c0.878-0.429,1.68-3.879,1.976-4.993
		c0.293-1.114,0.383-2.685-0.878-3.712c-0.314-0.254-0.659-0.336-1.003-0.317c0.037-0.265,0.073-0.537,0.111-0.822
		c0.363-2.726,3.963-11.981-1.153-18.211c-1.929-2.35-4.34-3.547-7.007-3.22c-2.028-2.641-7.164-3.546-12.072-2.89
		c-5.415,0.724-8.552,1.626-12.444,4.264c-2.226,1.508-6.136,5.093-6.708,9.486c-0.523,4.015,0.492,8.584,1.264,11.392
		c-0.339-0.016-0.677,0.066-0.985,0.317c-1.261,1.027-1.171,2.598-0.878,3.712c0.293,1.115,1.098,4.564,1.976,4.993
		c0.695,0.339,1.52-0.159,1.836-0.381c-0.003,0.563-0.006,1.112-0.006,1.622c0,4.444,2.739,7.316,6.798,10.414
		c1.049,0.799,2.309,1.609,3.567,2.347c-0.064,0.96-0.221,1.962-0.532,2.935c-0.223,0.693-1.165,1.311-2.435,1.897
		c-0.787,0.363-5.63,1.871-5.63,1.871l-6.064,1.794c-4.418,1.308-7.55,5.151-8.015,9.657
		C234.032,247.667,244.522,251.872,255.999,251.872z"/>
	<path style="fill:#FFFFFF;" d="M317.995,278.231H201c-2.762,0-5-2.239-5-5s2.238-5,5-5h116.995c2.762,0,5,2.239,5,5
		S320.757,278.231,317.995,278.231z"/>
	<path style="fill:#FFFFFF;" d="M317.995,311.432H201c-2.762,0-5-2.239-5-5s2.238-5,5-5h116.995c2.762,0,5,2.239,5,5
		S320.757,311.432,317.995,311.432z"/>
	<path style="fill:#FFFFFF;" d="M317.995,344.631H201c-2.762,0-5-2.239-5-5s2.238-5,5-5h116.995c2.762,0,5,2.239,5,5
		S320.757,344.631,317.995,344.631z"/>
	<path style="fill:#5D8EF9;" d="M421.166,264.199l1.834,0.459l-1.834,0.459c-10.737,2.69-19.117,11.073-21.807,21.81l-0.462,1.832
		l-0.46-1.832c-2.69-10.737-11.072-19.12-21.812-21.81l-1.827-0.459l1.827-0.459c10.741-2.69,19.122-11.075,21.812-21.807l0.46-1.83
		l0.462,1.83C402.049,253.124,410.429,261.508,421.166,264.199L421.166,264.199z"/>
	<path style="fill:#5D8EF9;" d="M388.351,325.876l1.129,0.283l-1.129,0.283c-6.612,1.657-11.772,6.818-13.428,13.43L374.638,341l-0.283-1.128
		c-1.656-6.612-6.818-11.774-13.431-13.43l-1.125-0.283l1.125-0.283c6.614-1.657,11.775-6.82,13.431-13.428l0.283-1.127l0.284,1.127
		C376.579,319.056,381.739,324.219,388.351,325.876L388.351,325.876z"/>
	<path style="fill:#FFBE1B;" d="M175.824,120.758l2.129,0.533l-2.129,0.533c-12.464,3.123-22.191,12.854-25.314,25.318l-0.536,2.126
		l-0.534-2.126c-3.122-12.464-12.852-22.195-25.32-25.318L122,121.292l2.121-0.533c12.468-3.123,22.198-12.856,25.32-25.314
		l0.534-2.124l0.536,2.124C153.633,107.902,163.36,117.635,175.824,120.758L175.824,120.758z"/>
	<path style="fill:#FFBE1B;" d="M221.659,106.525l1.252,0.314l-1.252,0.314c-7.331,1.837-13.053,7.561-14.889,14.892l-0.315,1.251
		l-0.314-1.251c-1.836-7.331-7.56-13.055-14.893-14.892L190,106.838l1.248-0.314c7.334-1.837,13.057-7.562,14.893-14.889l0.314-1.25
		l0.315,1.25C208.606,98.963,214.328,104.688,221.659,106.525L221.659,106.525z"/>
	<path style="fill:#FFBE1B;" d="M143.469,197.462l1.442,0.361l-1.442,0.361c-8.445,2.116-15.036,8.709-17.151,17.154l-0.363,1.441
		l-0.362-1.441c-2.115-8.445-8.708-15.038-17.156-17.154L107,197.823l1.437-0.361c8.448-2.116,15.04-8.711,17.156-17.151
		l0.362-1.439l0.363,1.439C128.433,188.751,135.024,195.346,143.469,197.462L143.469,197.462z"/>
	<path style="fill:#330D84;" d="M299.716,415.973l2.373,0.595l-2.373,0.595c-13.896,3.482-24.741,14.331-28.222,28.227l-0.598,2.37
		l-0.595-2.37c-3.481-13.897-14.329-24.745-28.229-28.227l-2.365-0.595l2.365-0.595c13.9-3.482,24.748-14.334,28.229-28.222
		l0.595-2.369l0.598,2.369C274.975,401.639,285.82,412.491,299.716,415.973L299.716,415.973z"/>
</g>
</svg>
