<?xml version="1.0" encoding="UTF-8"?>
<svg xmlns="http://www.w3.org/2000/svg" xmlns:xlink="http://www.w3.org/1999/xlink" viewBox="0 0 1000 1000">
  <defs>
    <linearGradient id="linear-gradient" x1="209.78" y1="364.26" x2="209.78" y2="635.74" gradientUnits="userSpaceOnUse">
      <stop offset="0" stop-color="#0c8f75"/>
      <stop offset=".3" stop-color="#0c8c74"/>
      <stop offset=".5" stop-color="#0c8373"/>
      <stop offset=".68" stop-color="#0e7371"/>
      <stop offset=".84" stop-color="#0f5e6e"/>
      <stop offset=".99" stop-color="#11426a"/>
      <stop offset="1" stop-color="#12406a"/>
    </linearGradient>
  </defs>
  <g id="Layer_1_copy">
    <g>
      <path d="M432.71,578.55h4.69v5.67h-5.32c-3.78,0-6.79-1.17-9.03-3.5-2.19,2.24-5.3,3.41-9.31,3.5h-9.17c-4.57,0-6.86,2.33-6.86,7v11.83l-6.02,3.22v-15.26c0-3.87,1.12-6.93,3.36-9.17,2.01-2.05,4.67-3.15,7.98-3.29-1.68-2.71-2.52-6.02-2.52-9.94,0-5.09,1.33-9.05,3.99-11.9,2.38-2.52,5.51-3.78,9.38-3.78s7.02,1.24,9.17,3.71c1.91,2.19,2.87,5.06,2.87,8.61v6.3c0,4.67,2.26,7,6.79,7ZM419.9,572.04v-6.51c0-4.67-2.01-7-6.02-7-2.33,0-4.14.88-5.42,2.62-1.28,1.75-1.92,4.19-1.92,7.32s.61,5.65,1.82,7.42c1.21,1.77,2.92,2.66,5.11,2.66,4.29,0,6.44-2.17,6.44-6.51Z" style="fill: #0b4167;"/>
      <path d="M457.07,578.55h4.62v5.67h-5.32c-4.01,0-7.12-1.28-9.31-3.85-2.33,2.57-5.55,3.85-9.66,3.85h-4.2v-5.67h3.71c4.85,0,7.28-2.54,7.28-7.63v-28.63l6.09-3.22v31.92c0,2.71.53,4.64,1.58,5.81,1.05,1.17,2.79,1.75,5.21,1.75Z" style="fill: #0b4167;"/>
      <path d="M457.49,584.22v-5.67h6.3c4.53,0,6.79-2.33,6.79-7v-9.8l6.02-3.22v13.02c0,4.67,2.29,7,6.86,7h3.22c4.57,0,6.86-2.33,6.86-7v-12.18l6.02-3.15v15.33c0,4.67,2.26,7,6.79,7h3.29c4.57,0,6.86-2.33,6.86-7v-14.49l6.02-3.22v17.08c0,5.09,2.43,7.63,7.28,7.63h5.81v5.67h-6.3c-4.2,0-7.4-1.42-9.59-4.27-1.96,2.8-5.02,4.22-9.17,4.27h-4.83c-4.11,0-7.16-1.38-9.17-4.13-2.01,2.71-4.99,4.08-8.96,4.13h-4.83c-4.01,0-7.07-1.38-9.17-4.13-2.01,2.75-5.06,4.13-9.17,4.13h-6.93Z" style="fill: #0b4167;"/>
      <path d="M542.89,565.25c0-4.06,1.21-7.21,3.64-9.45,2.15-1.91,4.95-2.87,8.4-2.87,4.43,0,7.84,1.63,10.22,4.9,2.05,2.75,3.08,6.35,3.08,10.78,0,5.04-1.31,8.98-3.92,11.83-2.29,2.52-5.27,3.78-8.96,3.78-4.2,0-7.4-1.17-9.59-3.5-2.24,2.33-5.25,3.5-9.03,3.5h-5.32v-5.67h4.62c4.57,0,6.86-2.33,6.86-7v-6.3ZM548.91,572.04c0,4.34,2.12,6.51,6.37,6.51,2.19,0,3.91-.89,5.14-2.66,1.24-1.77,1.86-4.25,1.86-7.42s-.65-5.57-1.96-7.32c-1.31-1.75-3.1-2.62-5.39-2.62-4.01,0-6.02,2.33-6.02,7v6.51Z" style="fill: #0b4167;"/>
      <path d="M639.21,578.55h4.62v5.67h-5.32c-2.52,0-4.78-.56-6.79-1.68-.65,4.81-2.82,8.59-6.51,11.34-3.27,2.43-7.3,3.64-12.11,3.64-6.25,0-11.08-2.1-14.49-6.3-2.61-3.27-3.92-7.16-3.92-11.69,0-3.97.96-7.35,2.87-10.15l6.02-1.33c-2.15,3.31-3.22,6.93-3.22,10.85s1.24,7.05,3.71,9.52c2.29,2.29,5.3,3.43,9.03,3.43,4.25,0,7.51-1.26,9.8-3.78,1.96-2.15,2.94-4.9,2.94-8.26v-37.52l6.09-3.22v32.48c0,4.67,2.43,7,7.28,7Z" style="fill: #0b4167;"/>
      <path d="M677.92,578.55h3.99v5.67h-4.62c-3.92,0-6.98-1.21-9.17-3.64-2.19,2.43-5.25,3.64-9.17,3.64h-19.32v-5.67h18.76c4.48,0,6.72-2.36,6.72-7.07v-.63c0-3.5-1.35-6.16-4.06-7.98-2.15-1.49-4.78-2.24-7.91-2.24-2.47,0-4.95.47-7.42,1.4v-5.95l15.33-17.01h6.16l-13.79,15.54h.42c5.32,0,9.61,1.61,12.88,4.83,2.94,2.99,4.41,6.77,4.41,11.34v.77c0,4.67,2.26,7,6.79,7Z" style="fill: #0b4167;"/>
      <path d="M677.71,584.22v-5.67h3.71c4.85,0,7.28-2.54,7.28-7.63v-28.63l6.09-3.22v31.92c0,4.15-1.24,7.44-3.71,9.87-2.33,2.24-5.39,3.36-9.17,3.36h-4.2Z" style="fill: #0b4167;"/>
      <path d="M751.7,578.55h4.62v5.67h-5.32c-4.81,0-8.26-1.77-10.36-5.32-2.24,2.15-5.02,3.22-8.33,3.22-4.11,0-7.37-1.54-9.8-4.62-2.01-2.61-3.01-5.81-3.01-9.59,0-4.53,1.38-8.17,4.13-10.92,2.33-2.38,5.18-3.57,8.54-3.57,2.57,0,4.78.65,6.65,1.96v-3.01l6.09-3.22v22.4c0,4.67,2.26,7,6.79,7ZM738.82,561.89c-1.73-1.91-3.85-2.87-6.37-2.87-2.05,0-3.73.83-5.04,2.49-1.31,1.66-1.96,3.81-1.96,6.47s.65,4.88,1.96,6.51c1.31,1.63,3.01,2.45,5.11,2.45,2.61,0,4.76-1.07,6.44-3.22-.09-.84-.14-1.49-.14-1.96v-9.87ZM729.79,544.67c-2.29,0-3.43-1.17-3.43-3.5s1.14-3.43,3.43-3.43,3.36,1.14,3.36,3.43-1.12,3.5-3.36,3.5ZM738.68,544.67c-2.29,0-3.43-1.17-3.43-3.5s1.14-3.43,3.43-3.43,3.36,1.14,3.36,3.43-1.12,3.5-3.36,3.5Z" style="fill: #0b4167;"/>
      <path d="M823.8,578.55h4.62v5.67h-5.32c-3.92,0-6.98-1.21-9.17-3.64-2.2,2.43-5.25,3.64-9.17,3.64h-28.98c-3.88,0-6.93-1.24-9.17-3.71-2.24,2.47-5.3,3.71-9.17,3.71h-5.32v-5.67h4.62c4.57,0,6.86-2.33,6.86-7v-9.8l6.02-3.22v13.02c0,3.92,1.52,6.18,4.55,6.79,1.87-7.05,4.95-12.93,9.24-17.64,4.8-5.18,10.4-7.77,16.8-7.77,5.32,0,9.57,1.84,12.74,5.53,2.66,3.13,3.99,6.98,3.99,11.55v1.68c0,4.57,2.29,6.86,6.86,6.86ZM804.41,578.55c4.34,0,6.51-2.43,6.51-7.28v-1.26c0-3.64-1.12-6.53-3.36-8.68-1.96-1.87-4.39-2.8-7.28-2.8-4.95,0-9.4,2.29-13.37,6.86-3.04,3.5-5.37,7.89-7,13.16h24.5Z" style="fill: #0b4167;"/>
      <path d="M848.58,578.55h4.62v5.67h-5.32c-3.88,0-6.93-1.24-9.17-3.71-2.24,2.47-5.3,3.71-9.17,3.71h-5.32v-5.67h4.62c4.57,0,6.86-2.33,6.86-7v-14.49l6.02-3.22v17.71c0,4.67,2.29,7,6.86,7ZM837.52,545.37c-2.29,0-3.43-1.17-3.43-3.5s1.14-3.43,3.43-3.43,3.36,1.14,3.36,3.43-1.12,3.5-3.36,3.5Z" style="fill: #0b4167;"/>
      <path d="M860.48,565.25c0-4.06,1.21-7.21,3.64-9.45,2.15-1.91,4.95-2.87,8.4-2.87,4.43,0,7.84,1.63,10.22,4.9,2.05,2.75,3.08,6.35,3.08,10.78,0,5.04-1.31,8.98-3.92,11.83-2.29,2.52-5.27,3.78-8.96,3.78-4.2,0-7.4-1.17-9.59-3.5-2.24,2.33-5.25,3.5-9.03,3.5h-5.32v-5.67h4.62c4.57,0,6.86-2.33,6.86-7v-6.3ZM866.5,572.04c0,4.34,2.12,6.51,6.37,6.51,2.19,0,3.91-.89,5.14-2.66,1.24-1.77,1.86-4.25,1.86-7.42s-.65-5.57-1.96-7.32-3.1-2.62-5.39-2.62c-4.01,0-6.02,2.33-6.02,7v6.51Z" style="fill: #0b4167;"/>
    </g>
    <g>
      <path d="M468.52,469.45c-1.13,8.65-6.02,15.42-14.66,20.3-7.8,4.32-17.53,6.49-29.19,6.49-15.6,0-27.35-4.47-35.25-13.4-5.83-6.67-8.74-14.85-8.74-24.53,0-7.42,1.74-13.91,5.22-19.46l16.92-3.53c-3.76,6.39-5.64,13.11-5.64,20.16,0,7.9,2.35,13.96,7.05,18.19,4.7,4.32,11.51,6.49,20.44,6.49,13.91,0,22.37-3.57,25.38-10.72h-13.54l8.88-17.06h23.55v17.06h-.42ZM415.22,527.4c-2.82,0-5.08-.87-6.77-2.61-1.69-1.74-2.54-4.02-2.54-6.84s.85-4.93,2.54-6.63c1.69-1.69,3.95-2.54,6.77-2.54s5.05.82,6.7,2.47,2.47,3.88,2.47,6.7c0,6.3-3.06,9.45-9.17,9.45ZM436.94,527.4c-2.82,0-5.08-.85-6.77-2.54-1.69-1.69-2.54-4-2.54-6.91,0-6.11,3.1-9.17,9.31-9.17,2.82,0,5.05.82,6.7,2.47,1.64,1.64,2.47,3.88,2.47,6.7,0,6.3-3.06,9.45-9.17,9.45Z" style="fill: #0b4167;"/>
      <path d="M511.95,452.39h12.69v17.06h-14.38c-6.86,0-12.55-1.83-17.06-5.5-4.51,3.67-10.2,5.5-17.06,5.5h-14.38v-17.06h12.69c3.57,0,6.11-.78,7.61-2.33,1.5-1.55,2.26-4.16,2.26-7.83v-26.08l17.77-9.31v35.39c0,3.67.75,6.27,2.26,7.83,1.5,1.55,4.04,2.33,7.61,2.33ZM475.15,394.44c-2.82,0-5.08-.85-6.77-2.54s-2.54-3.99-2.54-6.91c0-2.73.85-4.93,2.54-6.63,1.69-1.69,3.95-2.54,6.77-2.54s5.05.82,6.7,2.47c1.64,1.65,2.47,3.88,2.47,6.7,0,6.3-3.06,9.45-9.17,9.45ZM496.72,394.44c-2.82,0-5.08-.87-6.77-2.61-1.69-1.74-2.54-4.02-2.54-6.84s.87-4.93,2.61-6.63c1.74-1.69,3.97-2.54,6.7-2.54s5.05.82,6.7,2.47c1.64,1.65,2.47,3.88,2.47,6.7,0,6.3-3.06,9.45-9.17,9.45Z" style="fill: #0b4167;"/>
      <path d="M516.18,469.45v-17.06h8.88c4.32,0,7.4-.94,9.24-2.82,1.83-1.88,2.75-5.08,2.75-9.59v-52.03l17.62-9.45v61.62c0,9.12-2.77,16.4-8.32,21.86-5.08,4.98-11.84,7.47-20.3,7.47h-9.87Z" style="fill: #0b4167;"/>
      <path d="M605.99,469.45c-8.55,0-15.18-2.73-19.88-8.18-4.04-4.7-6.06-10.76-6.06-18.19v-55.27l17.77-9.31v63.73c0,3.67.75,6.27,2.26,7.83,1.5,1.55,4.04,2.33,7.62,2.33h12.69v17.06h-14.38Z" style="fill: #0b4167;"/>
      <path d="M611.92,469.45v-17.06h24.82v17.06h-24.82Z" style="fill: #0b4167;"/>
      <path d="M628.27,469.45v-17.06h24.82v17.06h-24.82Z" style="fill: #0b4167;"/>
      <path d="M644.63,469.45v-17.06h24.82v17.06h-24.82Z" style="fill: #0b4167;"/>
      <path d="M660.98,469.45v-17.06h24.82v17.06h-24.82Z" style="fill: #0b4167;"/>
      <path d="M677.34,469.45v-17.06h24.82v17.06h-24.82Z" style="fill: #0b4167;"/>
      <path d="M693.7,469.45v-17.06h24.82v17.06h-24.82Z" style="fill: #0b4167;"/>
      <path d="M710.05,469.45v-17.06h14.95c3.57,0,6.13-.78,7.68-2.33s2.33-4.16,2.33-7.83v-18.61l17.77-9.31v27.92c0,3.67.75,6.27,2.26,7.83,1.5,1.55,4.04,2.33,7.61,2.33h9.59c3.57,0,6.11-.78,7.61-2.33,1.5-1.55,2.26-4.16,2.26-7.83v-22.28l17.77-9.45v31.73c0,3.67.78,6.27,2.33,7.83,1.55,1.55,4.11,2.33,7.68,2.33h9.59c3.57,0,6.11-.78,7.61-2.33,1.5-1.55,2.26-4.16,2.26-7.83v-26.08l17.77-9.31v36.24c0,8.37-2.54,14.95-7.61,19.74-4.42,4.23-10.25,6.44-17.48,6.63h-13.96c-6.96,0-12.64-2.07-17.06-6.2-4.04,4.04-9.4,6.11-16.07,6.2h-13.96c-6.96,0-12.64-2.07-17.06-6.2-4.42,4.14-10.11,6.2-17.06,6.2h-16.78Z" style="fill: #0b4167;"/>
      <path d="M897.87,460.71c0,10.9-3.01,19.74-9.02,26.51-5.55,6.3-12.88,9.45-22,9.45-5.92,0-11.7-1.5-17.34-4.51v-15.51c4.89,2.72,9.68,4.09,14.38,4.09,5.17,0,9.19-1.67,12.06-5.01,2.87-3.34,4.3-7.97,4.3-13.89v-45.54l17.62-9.45v53.86Z" style="fill: #0b4167;"/>
    </g>
  </g>
  <g id="Layer_4">
    <path d="M210.19,593.47c19.14-9.89,36.91-22.25,56.67-31.1,26.72-11.97,54.91-8.58,85.54,8.93-10.77-17.66-18.67-28.11-28.8-35.47-10.07-7.32-20.63-10.51-31.53-10.89v-39.71h1.53l2.28-8.68h-4.55v-38.79c11.38-4.59-6.35-28.97-10.06-33.85,2.54-.33,4.51-2.5,4.51-5.13,0-2.77-2.18-5.03-4.92-5.17,1.96-.14,3.5-1.76,3.5-3.75,0-1.29-.65-2.43-1.64-3.11,5.26-1,9.24-5.61,9.24-11.16,0-.13,0-.26-.01-.39-1.09,3.83-4.61,6.63-8.79,6.63-5.05,0-9.14-4.1-9.14-9.15,0-3.78,2.29-7.01,5.55-8.41-5.8.52-10.34,5.39-10.34,11.32,0,5.55,3.98,10.16,9.24,11.16-.99.68-1.64,1.82-1.64,3.11,0,1.99,1.54,3.61,3.49,3.75-2.73.14-4.91,2.4-4.91,5.17s1.98,4.82,4.54,5.14c-3.71,4.89-21.43,29.26-10.05,33.85v38.79h-4.54l2.28,8.68h1.53v42.51c-1.28.33-2.57.68-3.86,1.06-2.37.69-4.71,1.45-7.03,2.25-2.32-26.65-30.2-49.29-53.85-62.03.91-.44,1.66-1.19,2.09-2.11,1.77-3.75-.82-7.42-4.33-7.6.46-.03.94-.14,1.42-.35.75-.33,1.37-.95,1.7-1.7.85-1.93.13-3.81-1.27-4.77,5.36-1.01,9.39-5.81,9.19-11.51-1.37,4.83-6.62,8.03-12.17,5.99-2.41-.89-4.32-2.88-5.14-5.32-1.69-5.02.87-9.75,5-11.51-7.17.64-12.4,7.96-9.43,15.7,1.07,2.78,3.34,5.01,6.13,6.05.72.27,1.43.46,2.14.59-.52.35-.94.85-1.2,1.42-1.17,2.65.63,5.21,3.08,5.4-.7.04-1.43.22-2.16.56-.92.43-1.69,1.2-2.12,2.12-1.09,2.31-.53,4.58.87,6.03-10.03,4.82-19.8,10.27-28.95,16.9-19.88,14.09-36.73,35.75-33.86,61.49.66,6.02,2.22,11.9,4.55,17.47-4.15-.54-8.27-1.28-12.36-2.23-18.91-4.4-35.56-14.99-44.9-25.26-2.64-2.91-13.03-15.8-15.56-20.69.96,22.75,6.76,42.37,17.66,60.42,3.09,5.12,7.5,10.64,10.92,14.24,25.48,11.28,75.8,23.1,114.47,3.11ZM276.92,450.25c0-3.28,1.66-5.94,3.7-5.94s3.7,2.66,3.7,5.94h0v17.58h-7.4v-17.58ZM276.92,496.87c0-3.28,1.66-5.94,3.7-5.94s3.7,2.66,3.7,5.94h0v17.58h-7.4v-17.58ZM151.57,559.4c-20.16-38.97,17.77-70.33,48.92-87.67,2.01.99,4.04,2.08,6.03,3.2,21.36,11.98,46.8,32.57,48.8,57.16-17.57,6.34-34.1,15.16-51.25,22.5-12.64,5.41-25.82,9.86-39.34,10.38-3.24.13-6.5.15-9.78.07-1.23-1.81-2.36-3.69-3.38-5.63ZM68.24,496.09c1.4-12.29,5.31-25.83,10.05-35.64,23.52-48.64,70.66-75.8,124.28-71.62,6.15.48,12.35,1.43,18.25,3.47.17,2.44-11.18,11.51-15.53,15.24-9.75,8.36-11.41,10.79-30.29,15.25-50.47,11.92-83.8,62.56-70.21,112.52.52,1.89.95,3.81,1.79,7.19-15.6-12.49-28.84-28.68-38.34-46.42ZM313.36,567.13c-16.25,8.32-27.33,20.81-39.6,31.87-8.25,7.44-16.66,14.66-26.19,20.39-31.03,18.63-63.75,20.76-97.66,9.37-9.33-3.13-18.48-6.82-27.98-14.11,7.72,1.2,13.83,2.27,19.97,3.07,27.82,3.63,53.74-2.45,77.9-16.12,17.18-9.72,33.52-20.92,51.85-28.55,12.83-5.34,26.05-8.02,41.72-5.92Z" style="fill: url(#linear-gradient);"/>
  </g>
</svg>