<?xml version="1.0" encoding="UTF-8"?>
<svg xmlns="http://www.w3.org/2000/svg" xmlns:xlink="http://www.w3.org/1999/xlink" viewBox="0 0 1000 1000">
  <defs>
    <linearGradient id="linear-gradient" x1="200.93" y1="364.26" x2="200.93" y2="635.74" gradientUnits="userSpaceOnUse">
      <stop offset="0" stop-color="#0c8f75"/>
      <stop offset=".3" stop-color="#0c8c74"/>
      <stop offset=".5" stop-color="#0c8373"/>
      <stop offset=".68" stop-color="#0e7371"/>
      <stop offset=".84" stop-color="#0f5e6e"/>
      <stop offset=".99" stop-color="#11426a"/>
      <stop offset="1" stop-color="#12406a"/>
    </linearGradient>
  </defs>
  <g id="Layer_1_copy">
    <g>
      <path d="M380.26,549.33v-99.45c1.47-.31,5.61-.73,12.43-1.26,6.82-.52,12.01-.79,15.58-.79,25.39,0,38.08,10.39,38.08,31.16,0,11.23-4.56,20.77-13.69,28.64,3.78,8.71,10.23,22.61,19.36,41.7h-20.77c-5.14-11.22-10.7-23.29-16.68-36.19-1.16.21-2.73.31-4.72.31-4.62,0-7.61-.42-8.97-1.26v37.14h-20.61ZM400.88,465.45v30.06c3.15.94,6.55,1.42,10.23,1.42,9.02,0,13.53-5.98,13.53-17.94,0-9.76-4.67-14.63-14.01-14.63-5.35,0-8.6.37-9.76,1.1Z" style="fill: #0b4167;"/>
      <path d="M524.72,520.06h-49.1c.42,4.83,2.38,8.84,5.9,12.04,3.51,3.2,7.68,4.8,12.51,4.8,6.82,0,13.95-2.1,21.4-6.29l5.04,10.54c-7.55,6.71-17,10.07-28.33,10.07-12.17,0-21.66-3.46-28.48-10.39-6.51-6.5-9.76-15.47-9.76-26.91s3.67-20.51,11.02-27.85c6.61-6.71,15-10.07,25.18-10.07,11.33,0,20.14,3.83,26.44,11.49,5.45,6.51,8.18,14.95,8.18,25.33v7.24ZM474.52,505.42h30.37c-.53-10.28-5.51-15.42-14.95-15.42s-14.27,5.14-15.42,15.42Z" style="fill: #0b4167;"/>
      <path d="M583.1,495.19c-5.14-3.36-11.02-5.04-17.62-5.04-5.04,0-7.55,2.15-7.55,6.45,0,3.99,3.41,6.82,10.23,8.5,8.5,2.1,14.27,4.46,17.31,7.08,4.41,3.78,6.61,9.44,6.61,16.99,0,6.72-2.39,12.07-7.16,16.05-4.78,3.99-11.2,5.98-19.28,5.98-11.44,0-21.09-3.25-28.95-9.76l7.24-11.01c5.45,4.3,12.01,6.45,19.67,6.45,3.04,0,5.51-.73,7.4-2.2,1.89-1.47,2.83-3.41,2.83-5.82,0-4.41-3.72-7.29-11.17-8.65-15.95-3.04-23.92-10.8-23.92-23.29,0-5.98,2.44-10.96,7.32-14.95,4.88-3.99,10.99-5.98,18.33-5.98,9.97,0,18.62,2.89,25.96,8.65l-7.24,10.54Z" style="fill: #0b4167;"/>
      <path d="M666.34,549.33h-15.89l-1.57-6.77c-6.92,5.77-13.95,8.66-21.09,8.66-15.84,0-23.76-7.71-23.76-23.13,0-7.66,3.3-13.64,9.91-17.94,6.71-4.41,16.63-6.61,29.74-6.61h3.3v-.31c0-4.51-.94-7.6-2.83-9.28-1.89-1.68-5.3-2.52-10.23-2.52-6.92,0-13.27,2.2-19.04,6.61-1.89-3.46-3.67-6.87-5.35-10.23,5.98-4.62,11.2-7.74,15.66-9.36,4.46-1.63,9.78-2.44,15.97-2.44,16.78,0,25.18,10.49,25.18,31.47v41.86ZM646.36,515.65h-2.36c-5.98,0-10.81,1.05-14.48,3.15-3.67,2.1-5.51,4.88-5.51,8.34,0,6.51,2.83,9.76,8.5,9.76,3.46,0,6.5-1,9.13-2.99,2.62-1.99,4.19-4.51,4.72-7.55v-10.7Z" style="fill: #0b4167;"/>
      <path d="M707.57,447.83v101.5h-19.83v-91.11l19.83-10.39Z" style="fill: #0b4167;"/>
      <path d="M786.57,549.33h-15.89l-1.57-6.77c-6.92,5.77-13.95,8.66-21.09,8.66-15.84,0-23.76-7.71-23.76-23.13,0-7.66,3.3-13.64,9.91-17.94,6.71-4.41,16.63-6.61,29.74-6.61h3.3v-.31c0-4.51-.94-7.6-2.83-9.28-1.89-1.68-5.3-2.52-10.23-2.52-6.92,0-13.27,2.2-19.04,6.61-1.89-3.46-3.67-6.87-5.35-10.23,5.98-4.62,11.2-7.74,15.66-9.36,4.46-1.63,9.78-2.44,15.97-2.44,16.78,0,25.18,10.49,25.18,31.47v41.86ZM766.58,515.65h-2.36c-5.98,0-10.81,1.05-14.48,3.15-3.67,2.1-5.51,4.88-5.51,8.34,0,6.51,2.83,9.76,8.5,9.76,3.46,0,6.5-1,9.13-2.99,2.62-1.99,4.19-4.51,4.72-7.55v-10.7Z" style="fill: #0b4167;"/>
      <path d="M852.66,493.78h-20.46v35.41c0,5.25,1.73,7.87,5.19,7.87,3.15,0,7.08-1.36,11.8-4.09l6.61,10.07c-7.45,5.88-15.68,8.81-24.71,8.81-12.59,0-18.88-6.92-18.88-20.77v-37.29h-9.91v-15.89h10.07v-12.75c5.25-2.83,11.91-6.35,19.99-10.54v23.29h20.3v15.89Z" style="fill: #0b4167;"/>
      <path d="M934.96,520.06h-49.1c.42,4.83,2.38,8.84,5.9,12.04,3.51,3.2,7.68,4.8,12.51,4.8,6.82,0,13.95-2.1,21.4-6.29l5.04,10.54c-7.55,6.71-17,10.07-28.33,10.07-12.17,0-21.66-3.46-28.48-10.39-6.51-6.5-9.76-15.47-9.76-26.91s3.67-20.51,11.02-27.85c6.61-6.71,15-10.07,25.18-10.07,11.33,0,20.14,3.83,26.44,11.49,5.45,6.51,8.18,14.95,8.18,25.33v7.24ZM884.76,505.42h30.37c-.53-10.28-5.51-15.42-14.95-15.42s-14.27,5.14-15.42,15.42Z" style="fill: #0b4167;"/>
    </g>
    <g>
      <path d="M388.24,571.96h4.05l10.53,29.12h-4.37l-2.21-6.58h-11.91l-2.25,6.58h-4.37l10.53-29.12ZM390.26,577.11l-4.74,13.85h9.48l-4.74-13.85Z" style="fill: #0b4167;"/>
      <path d="M417.82,580.19h3.08l.46,2.16c1.72-1.81,3.83-2.71,6.35-2.71,3.1,0,5.54,1.13,7.31,3.4,1.5,1.9,2.25,4.29,2.25,7.18,0,3.8-1.1,6.75-3.31,8.83-1.78,1.72-3.94,2.58-6.49,2.58s-4.32-.74-5.7-2.21v9.89h-3.96v-29.12ZM421.77,586.68v8.37c.21.95.81,1.78,1.79,2.48.98.71,2.04,1.06,3.17,1.06,1.87,0,3.39-.74,4.55-2.21,1.16-1.47,1.75-3.37,1.75-5.7,0-2.67-.61-4.71-1.84-6.12-1.07-1.23-2.46-1.84-4.14-1.84-1.13,0-2.24.41-3.31,1.22-1.07.81-1.73,1.72-1.98,2.74Z" style="fill: #0b4167;"/>
      <path d="M447.03,571.41v29.67h-3.96v-27.55l3.96-2.12Z" style="fill: #0b4167;"/>
      <path d="M470.03,601.08h-3.08l-.46-2.16c-1.66,1.81-3.89,2.71-6.72,2.71-2.15,0-3.84-.59-5.08-1.77s-1.86-2.78-1.86-4.81c0-2.3.94-4.07,2.83-5.31,1.88-1.24,4.56-1.86,8.03-1.86h2.44v-.23c0-3.19-1.61-4.78-4.83-4.78-2.05,0-3.97.66-5.75,1.98l-1.2-2.12c2.39-2.05,5.14-3.08,8.23-3.08,4.97,0,7.45,2.96,7.45,8.88v12.56ZM466.07,590.54h-2.02c-4.72,0-7.08,1.41-7.08,4.23,0,1.17.34,2.09,1.04,2.76.69.67,1.62,1.01,2.78,1.01s2.25-.3,3.27-.9c1.01-.6,1.69-1.36,2.02-2.28v-4.83Z" style="fill: #0b4167;"/>
      <path d="M482.4,583.41l-.04,12.14c0,2.02.77,3.04,2.3,3.04,1.07,0,2.13-.31,3.17-.92l1.38,2.12c-1.69,1.26-3.51,1.89-5.47,1.89-3.56,0-5.34-1.95-5.34-5.84v-12.42h-3.08v-3.22h3.13v-4.28l3.96-2.07v6.35h6.26v3.22h-6.26Z" style="fill: #0b4167;"/>
      <path d="M493.07,583.41v-3.22h3.08v-2.94c0-3.89,1.78-5.84,5.34-5.84,1.96,0,3.79.63,5.47,1.89l-1.38,2.12c-1.04-.61-2.1-.92-3.17-.92-1.53,0-2.3,1.01-2.3,3.04v2.67h5.57v3.22h-5.57v17.66h-3.96v-17.66h-3.08Z" style="fill: #0b4167;"/>
      <path d="M519.16,601.63c-3.16,0-5.72-1.18-7.68-3.54-1.69-2.02-2.53-4.49-2.53-7.41,0-3.37,1.03-6.1,3.08-8.19,1.84-1.9,4.2-2.85,7.08-2.85,3.31,0,5.92,1.21,7.82,3.63,1.56,2.02,2.35,4.49,2.35,7.41,0,3.34-1.07,6.07-3.22,8.19-1.9,1.84-4.2,2.76-6.9,2.76ZM519.06,598.5c1.84,0,3.3-.71,4.39-2.12,1.09-1.41,1.63-3.31,1.63-5.7s-.58-4.46-1.75-5.93c-1.07-1.38-2.48-2.07-4.23-2.07s-3.22.74-4.32,2.21c-1.1,1.47-1.66,3.4-1.66,5.8,0,2.58.61,4.57,1.84,5.98,1.07,1.23,2.44,1.84,4.09,1.84Z" style="fill: #0b4167;"/>
      <path d="M538.84,582.26h.18c1.44-1.75,3.13-2.62,5.06-2.62,2.45,0,4.26.95,5.43,2.85l-3.31,2.07c-1.01-1.01-2.12-1.52-3.31-1.52-1.53,0-2.82.78-3.86,2.35v15.69h-3.96v-20.88h3.4l.37,2.07Z" style="fill: #0b4167;"/>
      <path d="M557.01,582.26h.23c1.56-1.75,3.73-2.62,6.49-2.62,3.46,0,5.72,1.24,6.76,3.73,1.78-2.48,4.31-3.73,7.59-3.73,5.03,0,7.54,2.97,7.54,8.92v12.51h-3.96v-11.64c0-2.3-.41-3.94-1.22-4.92s-2.17-1.47-4.07-1.47-3.63.84-5.2,2.53c.18.86.28,1.86.28,2.99v12.51h-3.96v-11.96c0-2.12-.42-3.66-1.26-4.62-.84-.97-2.2-1.45-4.07-1.45-.89,0-1.81.23-2.76.69s-1.66,1.01-2.12,1.66v15.69h-3.96v-20.88h3.31l.37,2.07Z" style="fill: #0b4167;"/>
      <path d="M601.63,583.41v-3.22h3.08v-2.94c0-3.89,1.78-5.84,5.34-5.84,1.96,0,3.79.63,5.47,1.89l-1.38,2.12c-1.04-.61-2.1-.92-3.17-.92-1.53,0-2.3,1.01-2.3,3.04v2.67h5.57v3.22h-5.57v17.66h-3.96v-17.66h-3.08Z" style="fill: #0b4167;"/>
      <path d="M627.72,601.63c-3.16,0-5.72-1.18-7.68-3.54-1.69-2.02-2.53-4.49-2.53-7.41,0-3.37,1.03-6.1,3.08-8.19,1.84-1.9,4.2-2.85,7.08-2.85,3.31,0,5.92,1.21,7.82,3.63,1.56,2.02,2.35,4.49,2.35,7.41,0,3.34-1.07,6.07-3.22,8.19-1.9,1.84-4.2,2.76-6.9,2.76ZM627.62,598.5c1.84,0,3.3-.71,4.39-2.12,1.09-1.41,1.63-3.31,1.63-5.7s-.58-4.46-1.75-5.93c-1.07-1.38-2.48-2.07-4.23-2.07s-3.22.74-4.32,2.21c-1.1,1.47-1.66,3.4-1.66,5.8,0,2.58.61,4.57,1.84,5.98,1.07,1.23,2.44,1.84,4.09,1.84Z" style="fill: #0b4167;"/>
      <path d="M647.41,582.26h.18c1.44-1.75,3.13-2.62,5.06-2.62,2.45,0,4.26.95,5.43,2.85l-3.31,2.07c-1.01-1.01-2.12-1.52-3.31-1.52-1.53,0-2.82.78-3.86,2.35v15.69h-3.96v-20.88h3.4l.37,2.07Z" style="fill: #0b4167;"/>
      <path d="M690.83,591.97h-14.72c.21,2.02.95,3.63,2.21,4.81,1.26,1.18,2.87,1.77,4.83,1.77s3.83-.58,5.8-1.75l1.2,2.25c-2.15,1.72-4.69,2.58-7.64,2.58-3.37,0-6.06-1.06-8.05-3.17-1.84-1.96-2.76-4.54-2.76-7.73s1-5.96,2.99-8.14c1.81-1.96,4.03-2.94,6.67-2.94,3.22,0,5.69,1.21,7.41,3.63,1.38,1.93,2.07,4.37,2.07,7.31v1.38ZM675.97,588.89h10.81c-.06-1.99-.56-3.53-1.5-4.62-.94-1.09-2.2-1.63-3.79-1.63s-2.8.57-3.79,1.7c-1,1.13-1.57,2.65-1.72,4.55Z" style="fill: #0b4167;"/>
      <path d="M705.27,601.08h-3.59l-7.96-20.88h4.14l5.61,16.1,5.66-16.1h4.23l-8.1,20.88Z" style="fill: #0b4167;"/>
      <path d="M734.94,591.97h-14.72c.21,2.02.95,3.63,2.21,4.81,1.26,1.18,2.87,1.77,4.83,1.77s3.83-.58,5.8-1.75l1.2,2.25c-2.15,1.72-4.69,2.58-7.64,2.58-3.37,0-6.06-1.06-8.05-3.17-1.84-1.96-2.76-4.54-2.76-7.73s1-5.96,2.99-8.14c1.81-1.96,4.03-2.94,6.67-2.94,3.22,0,5.69,1.21,7.41,3.63,1.38,1.93,2.07,4.37,2.07,7.31v1.38ZM720.08,588.89h10.81c-.06-1.99-.56-3.53-1.5-4.62-.94-1.09-2.2-1.63-3.79-1.63s-2.8.57-3.79,1.7c-1,1.13-1.57,2.65-1.72,4.55Z" style="fill: #0b4167;"/>
      <path d="M744.51,582.26h.18c1.44-1.75,3.13-2.62,5.06-2.62,2.45,0,4.26.95,5.43,2.85l-3.31,2.07c-1.01-1.01-2.12-1.52-3.31-1.52-1.53,0-2.82.78-3.86,2.35v15.69h-3.96v-20.88h3.4l.37,2.07Z" style="fill: #0b4167;"/>
      <path d="M777.54,580.19l-8.97,24.01c-1.44,3.77-3.39,5.66-5.84,5.66-1.66,0-3.37-.66-5.15-1.98l1.2-2.02c1.04.61,1.95.92,2.71.92,1.41,0,2.53-1.01,3.36-3.04l1.06-2.67h-.83l-7.82-20.88h4.09l5.93,16.56,6.12-16.56h4.14Z" style="fill: #0b4167;"/>
      <path d="M797.32,577.11v23.97h-4.23v-29.12h5.43c2.36,4.91,4.84,11.62,7.45,20.15.58,1.9,1.03,3.36,1.33,4.37.28-.89.58-1.87.92-2.94,2.88-9.2,5.52-16.39,7.91-21.57h5.47v29.12h-4.28v-24.06c-1.2,4.26-3.96,12.28-8.28,24.06h-3.4c-1.38-3.22-2.95-7.38-4.71-12.49-1.76-5.11-2.97-8.93-3.61-11.48Z" style="fill: #0b4167;"/>
      <path d="M842.77,580.19h3.96v20.88h-3.04l-.32-2.39h-.28c-.71.86-1.66,1.56-2.88,2.12-1.21.55-2.4.83-3.56.83-4.88,0-7.31-2.97-7.31-8.92v-12.51h3.96v11.64c0,4.26,1.53,6.39,4.6,6.39.89,0,1.81-.23,2.76-.69.95-.46,1.66-1.01,2.12-1.66v-15.69Z" style="fill: #0b4167;"/>
      <path d="M865.26,583.96c-1.53-.86-3.22-1.29-5.06-1.29-1.01,0-1.82.24-2.44.71-.61.48-.92,1.11-.92,1.91,0,.89.28,1.57.85,2.05.57.48,1.63.93,3.2,1.36,2.36.67,4,1.4,4.92,2.16,1.26,1.07,1.89,2.59,1.89,4.55s-.68,3.37-2.05,4.51c-1.36,1.14-3.17,1.7-5.41,1.7-2.97,0-5.55-.83-7.73-2.48l1.38-2.21c1.72,1.07,3.63,1.61,5.75,1.61,2.82,0,4.23-1.07,4.23-3.22,0-.92-.3-1.62-.9-2.09-.6-.48-1.74-.93-3.43-1.36-4.48-1.1-6.72-3.27-6.72-6.49,0-1.66.67-3.03,2-4.12s3.01-1.63,5.04-1.63c2.58,0,4.83.72,6.76,2.16l-1.38,2.16Z" style="fill: #0b4167;"/>
      <path d="M877.45,571.41v29.67h-3.96v-27.55l3.96-2.12Z" style="fill: #0b4167;"/>
      <path d="M884.4,573.75c0-.64.23-1.2.69-1.66.46-.46,1.01-.69,1.66-.69s1.2.23,1.68.69c.48.46.71,1.01.71,1.66s-.23,1.24-.69,1.7-1.03.69-1.7.69-1.24-.23-1.68-.69c-.45-.46-.67-1.03-.67-1.7ZM888.67,580.19v20.88h-3.96v-20.88h3.96Z" style="fill: #0b4167;"/>
      <path d="M899.62,582.26h.23c1.56-1.75,3.73-2.62,6.49-2.62,3.46,0,5.72,1.24,6.76,3.73,1.78-2.48,4.31-3.73,7.59-3.73,5.03,0,7.54,2.97,7.54,8.92v12.51h-3.96v-11.64c0-2.3-.41-3.94-1.22-4.92s-2.17-1.47-4.07-1.47-3.63.84-5.2,2.53c.18.86.28,1.86.28,2.99v12.51h-3.96v-11.96c0-2.12-.42-3.66-1.26-4.62-.84-.97-2.2-1.45-4.07-1.45-.89,0-1.81.23-2.76.69-.95.46-1.66,1.01-2.12,1.66v15.69h-3.96v-20.88h3.31l.37,2.07Z" style="fill: #0b4167;"/>
    </g>
  </g>
  <g id="Layer_4">
    <path d="M201.35,593.47c19.14-9.89,36.91-22.25,56.67-31.1,26.72-11.97,54.91-8.58,85.54,8.93-10.77-17.66-18.67-28.11-28.8-35.47-10.07-7.32-20.63-10.51-31.53-10.89v-39.71h1.53l2.28-8.68h-4.55v-38.79c11.38-4.59-6.35-28.97-10.06-33.85,2.54-.33,4.51-2.5,4.51-5.13,0-2.77-2.18-5.03-4.92-5.17,1.96-.14,3.5-1.76,3.5-3.75,0-1.29-.65-2.43-1.64-3.11,5.26-1,9.24-5.61,9.24-11.16,0-.13,0-.26-.01-.39-1.09,3.83-4.61,6.63-8.79,6.63-5.05,0-9.14-4.1-9.14-9.15,0-3.78,2.29-7.01,5.55-8.41-5.8.52-10.34,5.39-10.34,11.32,0,5.55,3.98,10.16,9.24,11.16-.99.68-1.64,1.82-1.64,3.11,0,1.99,1.54,3.61,3.49,3.75-2.73.14-4.91,2.4-4.91,5.17s1.98,4.82,4.54,5.14c-3.71,4.89-21.43,29.26-10.05,33.85v38.79h-4.54l2.28,8.68h1.53v42.51c-1.28.33-2.57.68-3.86,1.06-2.37.69-4.71,1.45-7.03,2.25-2.32-26.65-30.2-49.29-53.85-62.03.91-.44,1.66-1.19,2.09-2.11,1.77-3.75-.82-7.42-4.33-7.6.46-.03.94-.14,1.42-.35.75-.33,1.37-.95,1.7-1.7.85-1.93.13-3.81-1.27-4.77,5.36-1.01,9.39-5.81,9.19-11.51-1.37,4.83-6.62,8.03-12.17,5.99-2.41-.89-4.32-2.88-5.14-5.32-1.69-5.02.87-9.75,5-11.51-7.17.64-12.4,7.96-9.43,15.7,1.07,2.78,3.34,5.01,6.13,6.05.72.27,1.43.46,2.14.59-.52.35-.94.85-1.2,1.42-1.17,2.65.63,5.21,3.08,5.4-.7.04-1.43.22-2.16.56-.92.43-1.69,1.2-2.12,2.12-1.09,2.31-.53,4.58.87,6.03-10.03,4.82-19.8,10.27-28.95,16.9-19.88,14.09-36.73,35.75-33.86,61.49.66,6.02,2.22,11.9,4.55,17.47-4.15-.54-8.27-1.28-12.36-2.23-18.91-4.4-35.56-14.99-44.9-25.26-2.64-2.91-13.03-15.8-15.56-20.69.96,22.75,6.76,42.37,17.66,60.42,3.09,5.12,7.5,10.64,10.92,14.24,25.48,11.28,75.8,23.1,114.47,3.11ZM268.07,450.25c0-3.28,1.66-5.94,3.7-5.94s3.7,2.66,3.7,5.94h0v17.58h-7.4v-17.58ZM268.07,496.87c0-3.28,1.66-5.94,3.7-5.94s3.7,2.66,3.7,5.94h0v17.58h-7.4v-17.58ZM142.73,559.4c-20.16-38.97,17.77-70.33,48.92-87.67,2.01.99,4.04,2.08,6.03,3.2,21.36,11.98,46.8,32.57,48.8,57.16-17.57,6.34-34.1,15.16-51.25,22.5-12.64,5.41-25.82,9.86-39.34,10.38-3.24.13-6.5.15-9.78.07-1.23-1.81-2.36-3.69-3.38-5.63ZM59.4,496.09c1.4-12.29,5.31-25.83,10.05-35.64,23.52-48.64,70.66-75.8,124.28-71.62,6.15.48,12.35,1.43,18.25,3.47.17,2.44-11.18,11.51-15.53,15.24-9.75,8.36-11.41,10.79-30.29,15.25-50.47,11.92-83.8,62.56-70.21,112.52.52,1.89.95,3.81,1.79,7.19-15.6-12.49-28.84-28.68-38.34-46.42ZM304.52,567.13c-16.25,8.32-27.33,20.81-39.6,31.87-8.25,7.44-16.66,14.66-26.19,20.39-31.03,18.63-63.75,20.76-97.66,9.37-9.33-3.13-18.48-6.82-27.98-14.11,7.72,1.2,13.83,2.27,19.97,3.07,27.82,3.63,53.74-2.45,77.9-16.12,17.18-9.72,33.52-20.92,51.85-28.55,12.83-5.34,26.05-8.02,41.72-5.92Z" style="fill: url(#linear-gradient);"/>
  </g>
</svg>