<?xml version="1.0" encoding="UTF-8"?>
<svg xmlns="http://www.w3.org/2000/svg" xmlns:xlink="http://www.w3.org/1999/xlink" viewBox="0 0 1000 1000">
  <defs>
    <linearGradient id="linear-gradient" x1="500" y1="140.12" x2="500" y2="649.81" gradientUnits="userSpaceOnUse">
      <stop offset="0" stop-color="#0c8f75"/>
      <stop offset=".3" stop-color="#0c8c74"/>
      <stop offset=".5" stop-color="#0c8373"/>
      <stop offset=".68" stop-color="#0e7371"/>
      <stop offset=".84" stop-color="#0f5e6e"/>
      <stop offset=".99" stop-color="#11426a"/>
      <stop offset="1" stop-color="#12406a"/>
    </linearGradient>
  </defs>
  <g id="Layer_1_copy">
    <g>
      <path d="M327.84,772.4c-1.13,8.65-6.02,15.42-14.66,20.3-7.8,4.32-17.53,6.49-29.19,6.49-15.61,0-27.35-4.47-35.25-13.4-5.83-6.67-8.74-14.85-8.74-24.53,0-7.42,1.74-13.91,5.22-19.46l16.92-3.53c-3.76,6.39-5.64,13.11-5.64,20.16,0,7.9,2.35,13.96,7.05,18.19,4.7,4.32,11.51,6.49,20.45,6.49,13.91,0,22.37-3.57,25.38-10.72h-13.54l8.88-17.06h23.55v17.06h-.42ZM274.54,830.35c-2.82,0-5.08-.87-6.77-2.61-1.69-1.74-2.54-4.02-2.54-6.84s.85-4.93,2.54-6.63c1.69-1.69,3.95-2.54,6.77-2.54s5.05.82,6.7,2.47,2.47,3.88,2.47,6.7c0,6.3-3.06,9.45-9.17,9.45ZM296.25,830.35c-2.82,0-5.08-.85-6.77-2.54-1.69-1.69-2.54-4-2.54-6.91,0-6.11,3.1-9.17,9.31-9.17,2.82,0,5.05.82,6.7,2.47,1.64,1.64,2.47,3.88,2.47,6.7,0,6.3-3.06,9.45-9.17,9.45Z" style="fill: #0b4167;"/>
      <path d="M371.27,755.34h12.69v17.06h-14.38c-6.86,0-12.55-1.83-17.06-5.5-4.51,3.67-10.2,5.5-17.06,5.5h-14.38v-17.06h12.69c3.57,0,6.11-.78,7.61-2.33,1.5-1.55,2.26-4.16,2.26-7.83v-26.08l17.77-9.31v35.39c0,3.67.75,6.27,2.26,7.83,1.5,1.55,4.04,2.33,7.61,2.33ZM334.47,697.39c-2.82,0-5.08-.85-6.77-2.54-1.69-1.69-2.54-3.99-2.54-6.91,0-2.73.85-4.93,2.54-6.63,1.69-1.69,3.95-2.54,6.77-2.54s5.05.82,6.7,2.47c1.64,1.65,2.47,3.88,2.47,6.7,0,6.3-3.06,9.45-9.17,9.45ZM356.04,697.39c-2.82,0-5.08-.87-6.77-2.61-1.69-1.74-2.54-4.02-2.54-6.84s.87-4.93,2.61-6.63c1.74-1.69,3.97-2.54,6.7-2.54s5.05.82,6.7,2.47c1.64,1.65,2.47,3.88,2.47,6.7,0,6.3-3.05,9.45-9.16,9.45Z" style="fill: #0b4167;"/>
      <path d="M375.5,772.4v-17.06h8.88c4.32,0,7.4-.94,9.24-2.82,1.83-1.88,2.75-5.08,2.75-9.59v-52.03l17.62-9.45v61.62c0,9.12-2.77,16.4-8.32,21.86-5.08,4.98-11.84,7.47-20.3,7.47h-9.87Z" style="fill: #0b4167;"/>
      <path d="M465.31,772.4c-8.55,0-15.18-2.73-19.88-8.18-4.04-4.7-6.06-10.76-6.06-18.19v-55.27l17.77-9.31v63.73c0,3.67.75,6.27,2.26,7.83,1.5,1.55,4.04,2.33,7.61,2.33h12.69v17.06h-14.38Z" style="fill: #0b4167;"/>
      <path d="M471.24,772.4v-17.06h24.82v17.06h-24.82Z" style="fill: #0b4167;"/>
      <path d="M487.59,772.4v-17.06h24.82v17.06h-24.82Z" style="fill: #0b4167;"/>
      <path d="M503.95,772.4v-17.06h24.82v17.06h-24.82Z" style="fill: #0b4167;"/>
      <path d="M520.3,772.4v-17.06h24.82v17.06h-24.82Z" style="fill: #0b4167;"/>
      <path d="M536.66,772.4v-17.06h24.82v17.06h-24.82Z" style="fill: #0b4167;"/>
      <path d="M553.02,772.4v-17.06h24.82v17.06h-24.82Z" style="fill: #0b4167;"/>
      <path d="M569.37,772.4v-17.06h14.95c3.57,0,6.13-.78,7.68-2.33s2.33-4.16,2.33-7.83v-18.61l17.77-9.31v27.92c0,3.67.75,6.27,2.26,7.83,1.5,1.55,4.04,2.33,7.61,2.33h9.59c3.57,0,6.11-.78,7.61-2.33,1.5-1.55,2.26-4.16,2.26-7.83v-22.28l17.77-9.45v31.73c0,3.67.78,6.27,2.33,7.83,1.55,1.55,4.11,2.33,7.68,2.33h9.59c3.57,0,6.11-.78,7.61-2.33,1.5-1.55,2.26-4.16,2.26-7.83v-26.08l17.77-9.31v36.24c0,8.37-2.54,14.95-7.61,19.74-4.42,4.23-10.25,6.44-17.48,6.63h-13.96c-6.96,0-12.64-2.07-17.06-6.2-4.04,4.04-9.4,6.11-16.07,6.2h-13.96c-6.96,0-12.64-2.07-17.06-6.2-4.42,4.14-10.11,6.2-17.06,6.2h-16.78Z" style="fill: #0b4167;"/>
      <path d="M757.18,763.66c0,10.9-3.01,19.74-9.02,26.51-5.55,6.3-12.88,9.45-22,9.45-5.92,0-11.7-1.5-17.34-4.51v-15.51c4.89,2.72,9.68,4.09,14.38,4.09,5.17,0,9.19-1.67,12.06-5.01,2.87-3.34,4.3-7.97,4.3-13.89v-45.54l17.62-9.45v53.86Z" style="fill: #0b4167;"/>
    </g>
    <g>
      <path d="M292.03,877.79h4.69v5.67h-5.32c-3.78,0-6.79-1.17-9.03-3.5-2.19,2.24-5.3,3.41-9.31,3.5h-9.17c-4.57,0-6.86,2.33-6.86,7v11.83l-6.02,3.22v-15.26c0-3.87,1.12-6.93,3.36-9.17,2.01-2.05,4.67-3.15,7.98-3.29-1.68-2.71-2.52-6.02-2.52-9.94,0-5.09,1.33-9.05,3.99-11.9,2.38-2.52,5.51-3.78,9.38-3.78s7.02,1.24,9.17,3.71c1.91,2.19,2.87,5.06,2.87,8.61v6.3c0,4.67,2.26,7,6.79,7ZM279.22,871.28v-6.51c0-4.67-2.01-7-6.02-7-2.33,0-4.14.88-5.42,2.62-1.28,1.75-1.92,4.19-1.92,7.32s.61,5.65,1.82,7.42c1.21,1.77,2.92,2.66,5.11,2.66,4.29,0,6.44-2.17,6.44-6.51Z" style="fill: #0b4167;"/>
      <path d="M316.39,877.79h4.62v5.67h-5.32c-4.01,0-7.12-1.28-9.31-3.85-2.33,2.57-5.55,3.85-9.66,3.85h-4.2v-5.67h3.71c4.85,0,7.28-2.54,7.28-7.63v-28.63l6.09-3.22v31.92c0,2.71.52,4.64,1.58,5.81,1.05,1.17,2.79,1.75,5.21,1.75Z" style="fill: #0b4167;"/>
      <path d="M316.81,883.46v-5.67h6.3c4.53,0,6.79-2.33,6.79-7v-9.8l6.02-3.22v13.02c0,4.67,2.29,7,6.86,7h3.22c4.57,0,6.86-2.33,6.86-7v-12.18l6.02-3.15v15.33c0,4.67,2.26,7,6.79,7h3.29c4.57,0,6.86-2.33,6.86-7v-14.49l6.02-3.22v17.08c0,5.09,2.43,7.63,7.28,7.63h5.81v5.67h-6.3c-4.2,0-7.4-1.42-9.59-4.27-1.96,2.8-5.02,4.22-9.17,4.27h-4.83c-4.11,0-7.16-1.38-9.17-4.13-2.01,2.71-4.99,4.08-8.96,4.13h-4.83c-4.01,0-7.07-1.38-9.17-4.13-2.01,2.75-5.06,4.13-9.17,4.13h-6.93Z" style="fill: #0b4167;"/>
      <path d="M402.21,864.49c0-4.06,1.21-7.21,3.64-9.45,2.15-1.91,4.95-2.87,8.4-2.87,4.43,0,7.84,1.63,10.22,4.9,2.05,2.75,3.08,6.35,3.08,10.78,0,5.04-1.31,8.98-3.92,11.83-2.29,2.52-5.27,3.78-8.96,3.78-4.2,0-7.4-1.17-9.59-3.5-2.24,2.33-5.25,3.5-9.03,3.5h-5.32v-5.67h4.62c4.57,0,6.86-2.33,6.86-7v-6.3ZM408.23,871.28c0,4.34,2.12,6.51,6.37,6.51,2.19,0,3.91-.89,5.14-2.66,1.24-1.77,1.86-4.25,1.86-7.42s-.65-5.57-1.96-7.32c-1.31-1.75-3.1-2.62-5.39-2.62-4.01,0-6.02,2.33-6.02,7v6.51Z" style="fill: #0b4167;"/>
      <path d="M498.53,877.79h4.62v5.67h-5.32c-2.52,0-4.78-.56-6.79-1.68-.65,4.81-2.82,8.59-6.51,11.34-3.27,2.43-7.3,3.64-12.11,3.64-6.25,0-11.08-2.1-14.49-6.3-2.61-3.27-3.92-7.16-3.92-11.69,0-3.97.96-7.35,2.87-10.15l6.02-1.33c-2.15,3.31-3.22,6.93-3.22,10.85s1.24,7.05,3.71,9.52c2.29,2.29,5.3,3.43,9.03,3.43,4.25,0,7.51-1.26,9.8-3.78,1.96-2.15,2.94-4.9,2.94-8.26v-37.52l6.09-3.22v32.48c0,4.67,2.43,7,7.28,7Z" style="fill: #0b4167;"/>
      <path d="M537.24,877.79h3.99v5.67h-4.62c-3.92,0-6.98-1.21-9.17-3.64-2.19,2.43-5.25,3.64-9.17,3.64h-19.32v-5.67h18.76c4.48,0,6.72-2.36,6.72-7.07v-.63c0-3.5-1.35-6.16-4.06-7.98-2.15-1.49-4.78-2.24-7.91-2.24-2.47,0-4.95.47-7.42,1.4v-5.95l15.33-17.01h6.16l-13.79,15.54h.42c5.32,0,9.61,1.61,12.88,4.83,2.94,2.99,4.41,6.77,4.41,11.34v.77c0,4.67,2.26,7,6.79,7Z" style="fill: #0b4167;"/>
      <path d="M537.03,883.46v-5.67h3.71c4.85,0,7.28-2.54,7.28-7.63v-28.63l6.09-3.22v31.92c0,4.15-1.24,7.44-3.71,9.87-2.33,2.24-5.39,3.36-9.17,3.36h-4.2Z" style="fill: #0b4167;"/>
      <path d="M611.02,877.79h4.62v5.67h-5.32c-4.81,0-8.26-1.77-10.36-5.32-2.24,2.15-5.02,3.22-8.33,3.22-4.11,0-7.37-1.54-9.8-4.62-2.01-2.61-3.01-5.81-3.01-9.59,0-4.53,1.38-8.17,4.13-10.92,2.33-2.38,5.18-3.57,8.54-3.57,2.57,0,4.78.65,6.65,1.96v-3.01l6.09-3.22v22.4c0,4.67,2.26,7,6.79,7ZM598.14,861.13c-1.73-1.91-3.85-2.87-6.37-2.87-2.05,0-3.73.83-5.04,2.49-1.31,1.66-1.96,3.81-1.96,6.47s.65,4.88,1.96,6.51c1.31,1.63,3.01,2.45,5.11,2.45,2.61,0,4.76-1.07,6.44-3.22-.09-.84-.14-1.49-.14-1.96v-9.87ZM589.11,843.91c-2.29,0-3.43-1.17-3.43-3.5s1.14-3.43,3.43-3.43,3.36,1.14,3.36,3.43-1.12,3.5-3.36,3.5ZM598,843.91c-2.29,0-3.43-1.17-3.43-3.5s1.14-3.43,3.43-3.43,3.36,1.14,3.36,3.43-1.12,3.5-3.36,3.5Z" style="fill: #0b4167;"/>
      <path d="M683.12,877.79h4.62v5.67h-5.32c-3.92,0-6.98-1.21-9.17-3.64-2.19,2.43-5.25,3.64-9.17,3.64h-28.98c-3.87,0-6.93-1.24-9.17-3.71-2.24,2.47-5.3,3.71-9.17,3.71h-5.32v-5.67h4.62c4.57,0,6.86-2.33,6.86-7v-9.8l6.02-3.22v13.02c0,3.92,1.52,6.18,4.55,6.79,1.87-7.05,4.95-12.93,9.24-17.64,4.81-5.18,10.41-7.77,16.8-7.77,5.32,0,9.57,1.84,12.74,5.53,2.66,3.13,3.99,6.98,3.99,11.55v1.68c0,4.57,2.29,6.86,6.86,6.86ZM663.73,877.79c4.34,0,6.51-2.43,6.51-7.28v-1.26c0-3.64-1.12-6.53-3.36-8.68-1.96-1.87-4.39-2.8-7.28-2.8-4.95,0-9.4,2.29-13.37,6.86-3.03,3.5-5.37,7.89-7,13.16h24.5Z" style="fill: #0b4167;"/>
      <path d="M707.9,877.79h4.62v5.67h-5.32c-3.87,0-6.93-1.24-9.17-3.71-2.24,2.47-5.3,3.71-9.17,3.71h-5.32v-5.67h4.62c4.57,0,6.86-2.33,6.86-7v-14.49l6.02-3.22v17.71c0,4.67,2.29,7,6.86,7ZM696.84,844.61c-2.29,0-3.43-1.17-3.43-3.5s1.14-3.43,3.43-3.43,3.36,1.14,3.36,3.43-1.12,3.5-3.36,3.5Z" style="fill: #0b4167;"/>
      <path d="M719.8,864.49c0-4.06,1.21-7.21,3.64-9.45,2.15-1.91,4.95-2.87,8.4-2.87,4.43,0,7.84,1.63,10.22,4.9,2.05,2.75,3.08,6.35,3.08,10.78,0,5.04-1.31,8.98-3.92,11.83-2.29,2.52-5.27,3.78-8.96,3.78-4.2,0-7.4-1.17-9.59-3.5-2.24,2.33-5.25,3.5-9.03,3.5h-5.32v-5.67h4.62c4.57,0,6.86-2.33,6.86-7v-6.3ZM725.82,871.28c0,4.34,2.12,6.51,6.37,6.51,2.19,0,3.91-.89,5.15-2.66,1.24-1.77,1.85-4.25,1.85-7.42s-.65-5.57-1.96-7.32-3.1-2.62-5.39-2.62c-4.01,0-6.02,2.33-6.02,7v6.51Z" style="fill: #0b4167;"/>
    </g>
  </g>
  <g id="Layer_4">
    <path d="M500.78,570.45c35.93-18.58,69.3-41.76,106.39-58.38,50.16-22.48,103.09-16.1,160.6,16.76-20.21-33.15-35.06-52.78-54.07-66.6-18.91-13.74-38.74-19.74-59.2-20.45v-74.55h2.87l4.27-16.3h-8.54v-72.83c21.37-8.61-11.93-54.4-18.88-63.56,4.78-.62,8.47-4.69,8.47-9.63,0-5.2-4.09-9.43-9.23-9.7,3.68-.26,6.58-3.31,6.58-7.04,0-2.43-1.22-4.57-3.09-5.84,9.87-1.87,17.35-10.53,17.35-20.95,0-.25-.01-.49-.02-.74-2.04,7.18-8.66,12.45-16.5,12.45-9.48,0-17.16-7.69-17.16-17.17,0-7.09,4.3-13.17,10.43-15.79-10.88.98-19.41,10.11-19.41,21.24,0,10.42,7.47,19.08,17.35,20.95-1.86,1.28-3.08,3.42-3.08,5.84,0,3.73,2.89,6.78,6.56,7.04-5.13.26-9.22,4.5-9.22,9.7s3.72,9.05,8.52,9.64c-6.96,9.18-40.23,54.94-18.87,63.55v72.83h-8.53l4.27,16.3h2.87v79.81c-2.41.62-4.82,1.28-7.24,1.99-4.45,1.3-8.84,2.72-13.21,4.22-4.36-50.03-56.7-92.54-101.11-116.46,1.71-.82,3.12-2.24,3.93-3.96,3.32-7.04-1.54-13.94-8.12-14.26.87-.06,1.77-.25,2.67-.65,1.41-.62,2.57-1.78,3.19-3.19,1.6-3.62.25-7.16-2.39-8.96,10.07-1.9,17.63-10.9,17.25-21.61-2.57,9.07-12.43,15.07-22.86,11.24-4.53-1.67-8.1-5.41-9.64-9.99-3.17-9.43,1.63-18.3,9.38-21.61-13.45,1.2-23.29,14.95-17.71,29.47,2.01,5.23,6.26,9.41,11.51,11.37,1.35.5,2.69.87,4.02,1.12-.98.66-1.77,1.59-2.25,2.67-2.19,4.98,1.18,9.78,5.79,10.15-1.31.07-2.68.41-4.05,1.05-1.74.82-3.17,2.25-3.99,3.98-2.04,4.33-.99,8.6,1.64,11.33-18.83,9.06-37.17,19.27-54.35,31.73-37.32,26.44-68.95,67.11-63.56,115.45,1.24,11.3,4.17,22.35,8.54,32.79-7.78-1.02-15.53-2.39-23.2-4.18-35.5-8.27-66.76-28.14-84.29-47.42-4.96-5.46-24.46-29.67-29.21-38.84,1.8,42.71,12.7,79.55,33.15,113.43,5.81,9.62,14.08,19.98,20.49,26.74,47.83,21.17,142.31,43.37,214.91,5.83ZM626.05,301.57c0-6.16,3.12-11.16,6.95-11.16s6.95,4.99,6.95,11.16h0v33h-13.9v-33ZM626.05,389.09c0-6.16,3.12-11.15,6.95-11.15s6.95,4.99,6.95,11.15h0v33.01h-13.9v-33.01ZM390.72,506.48c-37.85-73.17,33.36-132.05,91.85-164.6,3.77,1.86,7.59,3.91,11.31,6,40.1,22.48,87.86,61.14,91.62,107.31-32.98,11.91-64.02,28.46-96.22,42.24-23.72,10.15-48.48,18.5-73.86,19.48-6.08.24-12.21.28-18.36.13-2.31-3.4-4.43-6.94-6.34-10.56ZM234.27,387.62c2.63-23.08,9.96-48.5,18.87-66.91,44.16-91.32,132.65-142.3,233.32-134.46,11.55.9,23.18,2.69,34.27,6.51.32,4.59-20.98,21.61-29.16,28.62-18.3,15.69-21.43,20.26-56.87,28.63-94.75,22.39-157.33,117.46-131.81,211.24.97,3.56,1.79,7.16,3.36,13.51-29.28-23.45-54.15-53.84-71.98-87.14ZM694.47,521c-30.51,15.61-51.31,39.07-74.35,59.83-15.49,13.96-31.28,27.53-49.17,38.27-58.26,34.97-119.69,38.97-183.36,17.58-17.51-5.88-34.69-12.8-52.53-26.49,14.5,2.25,25.96,4.27,37.49,5.77,52.23,6.81,100.89-4.61,146.26-30.27,32.25-18.24,62.94-39.27,97.34-53.59,24.09-10.03,48.91-15.06,78.32-11.11Z" style="fill: url(#linear-gradient);"/>
  </g>
</svg>