<?xml version="1.0" encoding="UTF-8"?>
<svg xmlns="http://www.w3.org/2000/svg" xmlns:xlink="http://www.w3.org/1999/xlink" viewBox="0 0 1000 1000">
  <defs>
    <linearGradient id="linear-gradient" x1="500" y1="139.93" x2="500" y2="649.62" gradientUnits="userSpaceOnUse">
      <stop offset="0" stop-color="#0c8f75"/>
      <stop offset=".3" stop-color="#0c8c74"/>
      <stop offset=".5" stop-color="#0c8373"/>
      <stop offset=".68" stop-color="#0e7371"/>
      <stop offset=".84" stop-color="#0f5e6e"/>
      <stop offset=".99" stop-color="#11426a"/>
      <stop offset="1" stop-color="#12406a"/>
    </linearGradient>
  </defs>
  <g id="Layer_1_copy">
    <g>
      <path d="M268.64,806.06h3.52l9.16,25.32h-3.8l-1.92-5.72h-10.36l-1.96,5.72h-3.8l9.16-25.32ZM270.4,810.54l-4.12,12.04h8.24l-4.12-12.04Z" style="fill: #0b4167;"/>
      <path d="M294.36,813.22h2.68l.4,1.88c1.49-1.57,3.33-2.36,5.52-2.36,2.69,0,4.81.99,6.36,2.96,1.31,1.65,1.96,3.73,1.96,6.24,0,3.31-.96,5.87-2.88,7.68-1.55,1.49-3.43,2.24-5.64,2.24s-3.76-.64-4.96-1.92v8.6h-3.44v-25.32ZM297.8,818.86v7.28c.19.83.71,1.55,1.56,2.16.85.61,1.77.92,2.76.92,1.63,0,2.95-.64,3.96-1.92,1.01-1.28,1.52-2.93,1.52-4.96,0-2.32-.53-4.09-1.6-5.32-.93-1.07-2.13-1.6-3.6-1.6-.99,0-1.95.35-2.88,1.06-.93.71-1.51,1.5-1.72,2.38Z" style="fill: #0b4167;"/>
      <path d="M319.76,805.58v25.8h-3.44v-23.96l3.44-1.84Z" style="fill: #0b4167;"/>
      <path d="M339.76,831.38h-2.68l-.4-1.88c-1.44,1.57-3.39,2.36-5.84,2.36-1.87,0-3.34-.51-4.42-1.54s-1.62-2.42-1.62-4.18c0-2,.82-3.54,2.46-4.62,1.64-1.08,3.97-1.62,6.98-1.62h2.12v-.2c0-2.77-1.4-4.16-4.2-4.16-1.79,0-3.45.57-5,1.72l-1.04-1.84c2.08-1.79,4.47-2.68,7.16-2.68,4.32,0,6.48,2.57,6.48,7.72v10.92ZM336.32,822.22h-1.76c-4.11,0-6.16,1.23-6.16,3.68,0,1.01.3,1.81.9,2.4.6.59,1.41.88,2.42.88s1.96-.26,2.84-.78c.88-.52,1.47-1.18,1.76-1.98v-4.2Z" style="fill: #0b4167;"/>
      <path d="M350.52,816.02l-.04,10.56c0,1.76.67,2.64,2,2.64.93,0,1.85-.27,2.76-.8l1.2,1.84c-1.47,1.09-3.05,1.64-4.76,1.64-3.09,0-4.64-1.69-4.64-5.08v-10.8h-2.68v-2.8h2.72v-3.72l3.44-1.8v5.52h5.44v2.8h-5.44Z" style="fill: #0b4167;"/>
      <path d="M359.8,816.02v-2.8h2.68v-2.56c0-3.39,1.55-5.08,4.64-5.08,1.71,0,3.29.55,4.76,1.64l-1.2,1.84c-.91-.53-1.83-.8-2.76-.8-1.33,0-2,.88-2,2.64v2.32h4.84v2.8h-4.84v15.36h-3.44v-15.36h-2.68Z" style="fill: #0b4167;"/>
      <path d="M382.48,831.86c-2.75,0-4.97-1.03-6.68-3.08-1.47-1.76-2.2-3.91-2.2-6.44,0-2.93.89-5.31,2.68-7.12,1.6-1.65,3.65-2.48,6.16-2.48,2.88,0,5.15,1.05,6.8,3.16,1.36,1.76,2.04,3.91,2.04,6.44,0,2.91-.93,5.28-2.8,7.12-1.65,1.6-3.65,2.4-6,2.4ZM382.4,829.14c1.6,0,2.87-.61,3.82-1.84.95-1.23,1.42-2.88,1.42-4.96s-.51-3.88-1.52-5.16c-.93-1.2-2.16-1.8-3.68-1.8s-2.8.64-3.76,1.92-1.44,2.96-1.44,5.04c0,2.24.53,3.97,1.6,5.2.93,1.07,2.12,1.6,3.56,1.6Z" style="fill: #0b4167;"/>
      <path d="M399.6,815.02h.16c1.25-1.52,2.72-2.28,4.4-2.28,2.13,0,3.71.83,4.72,2.48l-2.88,1.8c-.88-.88-1.84-1.32-2.88-1.32-1.33,0-2.45.68-3.36,2.04v13.64h-3.44v-18.16h2.96l.32,1.8Z" style="fill: #0b4167;"/>
      <path d="M415.4,815.02h.2c1.36-1.52,3.24-2.28,5.64-2.28,3.01,0,4.97,1.08,5.88,3.24,1.55-2.16,3.75-3.24,6.6-3.24,4.37,0,6.56,2.59,6.56,7.76v10.88h-3.44v-10.12c0-2-.35-3.43-1.06-4.28-.71-.85-1.89-1.28-3.54-1.28s-3.16.73-4.52,2.2c.16.75.24,1.61.24,2.6v10.88h-3.44v-10.4c0-1.84-.37-3.18-1.1-4.02s-1.91-1.26-3.54-1.26c-.77,0-1.57.2-2.4.6-.83.4-1.44.88-1.84,1.44v13.64h-3.44v-18.16h2.88l.32,1.8Z" style="fill: #0b4167;"/>
      <path d="M454.2,816.02v-2.8h2.68v-2.56c0-3.39,1.55-5.08,4.64-5.08,1.71,0,3.29.55,4.76,1.64l-1.2,1.84c-.91-.53-1.83-.8-2.76-.8-1.33,0-2,.88-2,2.64v2.32h4.84v2.8h-4.84v15.36h-3.44v-15.36h-2.68Z" style="fill: #0b4167;"/>
      <path d="M476.88,831.86c-2.75,0-4.97-1.03-6.68-3.08-1.47-1.76-2.2-3.91-2.2-6.44,0-2.93.89-5.31,2.68-7.12,1.6-1.65,3.65-2.48,6.16-2.48,2.88,0,5.15,1.05,6.8,3.16,1.36,1.76,2.04,3.91,2.04,6.44,0,2.91-.93,5.28-2.8,7.12-1.65,1.6-3.65,2.4-6,2.4ZM476.8,829.14c1.6,0,2.87-.61,3.82-1.84.95-1.23,1.42-2.88,1.42-4.96s-.51-3.88-1.52-5.16c-.93-1.2-2.16-1.8-3.68-1.8s-2.8.64-3.76,1.92-1.44,2.96-1.44,5.04c0,2.24.53,3.97,1.6,5.2.93,1.07,2.12,1.6,3.56,1.6Z" style="fill: #0b4167;"/>
      <path d="M494,815.02h.16c1.25-1.52,2.72-2.28,4.4-2.28,2.13,0,3.71.83,4.72,2.48l-2.88,1.8c-.88-.88-1.84-1.32-2.88-1.32-1.33,0-2.45.68-3.36,2.04v13.64h-3.44v-18.16h2.96l.32,1.8Z" style="fill: #0b4167;"/>
      <path d="M531.76,823.46h-12.8c.19,1.76.83,3.15,1.92,4.18,1.09,1.03,2.49,1.54,4.2,1.54s3.33-.51,5.04-1.52l1.04,1.96c-1.87,1.49-4.08,2.24-6.64,2.24-2.93,0-5.27-.92-7-2.76-1.6-1.71-2.4-3.95-2.4-6.72s.87-5.19,2.6-7.08c1.57-1.71,3.51-2.56,5.8-2.56,2.8,0,4.95,1.05,6.44,3.16,1.2,1.68,1.8,3.8,1.8,6.36v1.2ZM518.84,820.78h9.4c-.05-1.73-.49-3.07-1.3-4.02-.81-.95-1.91-1.42-3.3-1.42s-2.43.49-3.3,1.48-1.37,2.31-1.5,3.96Z" style="fill: #0b4167;"/>
      <path d="M544.32,831.38h-3.12l-6.92-18.16h3.6l4.88,14,4.92-14h3.68l-7.04,18.16Z" style="fill: #0b4167;"/>
      <path d="M570.12,823.46h-12.8c.19,1.76.83,3.15,1.92,4.18,1.09,1.03,2.49,1.54,4.2,1.54s3.33-.51,5.04-1.52l1.04,1.96c-1.87,1.49-4.08,2.24-6.64,2.24-2.93,0-5.27-.92-7-2.76-1.6-1.71-2.4-3.95-2.4-6.72s.87-5.19,2.6-7.08c1.57-1.71,3.51-2.56,5.8-2.56,2.8,0,4.95,1.05,6.44,3.16,1.2,1.68,1.8,3.8,1.8,6.36v1.2ZM557.2,820.78h9.4c-.05-1.73-.49-3.07-1.3-4.02-.81-.95-1.91-1.42-3.3-1.42s-2.43.49-3.3,1.48-1.37,2.31-1.5,3.96Z" style="fill: #0b4167;"/>
      <path d="M578.44,815.02h.16c1.25-1.52,2.72-2.28,4.4-2.28,2.13,0,3.71.83,4.72,2.48l-2.88,1.8c-.88-.88-1.84-1.32-2.88-1.32-1.33,0-2.45.68-3.36,2.04v13.64h-3.44v-18.16h2.96l.32,1.8Z" style="fill: #0b4167;"/>
      <path d="M607.16,813.22l-7.8,20.88c-1.25,3.28-2.95,4.92-5.08,4.92-1.44,0-2.93-.57-4.48-1.72l1.04-1.76c.91.53,1.69.8,2.36.8,1.23,0,2.2-.88,2.92-2.64l.92-2.32h-.72l-6.8-18.16h3.56l5.16,14.4,5.32-14.4h3.6Z" style="fill: #0b4167;"/>
      <path d="M624.36,810.54v20.84h-3.68v-25.32h4.72c2.05,4.27,4.21,10.11,6.48,17.52.51,1.65.89,2.92,1.16,3.8.24-.77.51-1.63.8-2.56,2.51-8,4.8-14.25,6.88-18.76h4.76v25.32h-3.72v-20.92c-1.04,3.71-3.44,10.68-7.2,20.92h-2.96c-1.2-2.8-2.57-6.42-4.1-10.86-1.53-4.44-2.58-7.77-3.14-9.98Z" style="fill: #0b4167;"/>
      <path d="M663.88,813.22h3.44v18.16h-2.64l-.28-2.08h-.24c-.61.75-1.45,1.36-2.5,1.84-1.05.48-2.09.72-3.1.72-4.24,0-6.36-2.59-6.36-7.76v-10.88h3.44v10.12c0,3.71,1.33,5.56,4,5.56.77,0,1.57-.2,2.4-.6.83-.4,1.44-.88,1.84-1.44v-13.64Z" style="fill: #0b4167;"/>
      <path d="M683.44,816.5c-1.33-.75-2.8-1.12-4.4-1.12-.88,0-1.59.21-2.12.62-.53.41-.8.97-.8,1.66,0,.77.25,1.37.74,1.78.49.41,1.42.81,2.78,1.18,2.05.59,3.48,1.21,4.28,1.88,1.09.93,1.64,2.25,1.64,3.96s-.59,2.93-1.78,3.92c-1.19.99-2.75,1.48-4.7,1.48-2.59,0-4.83-.72-6.72-2.16l1.2-1.92c1.49.93,3.16,1.4,5,1.4,2.45,0,3.68-.93,3.68-2.8,0-.8-.26-1.41-.78-1.82-.52-.41-1.51-.81-2.98-1.18-3.89-.96-5.84-2.84-5.84-5.64,0-1.44.58-2.63,1.74-3.58,1.16-.95,2.62-1.42,4.38-1.42,2.24,0,4.2.63,5.88,1.88l-1.2,1.88Z" style="fill: #0b4167;"/>
      <path d="M694.04,805.58v25.8h-3.44v-23.96l3.44-1.84Z" style="fill: #0b4167;"/>
      <path d="M700.08,807.62c0-.56.2-1.04.6-1.44.4-.4.88-.6,1.44-.6s1.05.2,1.46.6c.41.4.62.88.62,1.44s-.2,1.08-.6,1.48-.89.6-1.48.6-1.07-.2-1.46-.6c-.39-.4-.58-.89-.58-1.48ZM703.8,813.22v18.16h-3.44v-18.16h3.44Z" style="fill: #0b4167;"/>
      <path d="M713.32,815.02h.2c1.36-1.52,3.24-2.28,5.64-2.28,3.01,0,4.97,1.08,5.88,3.24,1.55-2.16,3.75-3.24,6.6-3.24,4.37,0,6.56,2.59,6.56,7.76v10.88h-3.44v-10.12c0-2-.35-3.43-1.06-4.28-.71-.85-1.89-1.28-3.54-1.28s-3.16.73-4.52,2.2c.16.75.24,1.61.24,2.6v10.88h-3.44v-10.4c0-1.84-.37-3.18-1.1-4.02s-1.91-1.26-3.54-1.26c-.77,0-1.57.2-2.4.6-.83.4-1.44.88-1.84,1.44v13.64h-3.44v-18.16h2.88l.32,1.8Z" style="fill: #0b4167;"/>
    </g>
    <g>
      <path d="M254.45,772.21v-89.11c1.32-.28,5.03-.66,11.14-1.13,6.11-.47,10.76-.71,13.96-.71,22.75,0,34.12,9.31,34.12,27.92,0,10.06-4.09,18.61-12.27,25.66,3.38,7.8,9.17,20.26,17.34,37.37h-18.61c-4.61-10.06-9.59-20.87-14.95-32.43-1.04.19-2.45.28-4.23.28-4.14,0-6.82-.37-8.04-1.13v33.28h-18.47ZM272.92,697.06v26.93c2.82.85,5.87,1.27,9.17,1.27,8.08,0,12.13-5.36,12.13-16.07,0-8.74-4.18-13.11-12.55-13.11-4.79,0-7.71.33-8.74.99Z" style="fill: #0b4167;"/>
      <path d="M383.89,745.98h-43.99c.37,4.32,2.14,7.92,5.29,10.79,3.15,2.87,6.88,4.3,11.21,4.3,6.11,0,12.5-1.88,19.18-5.64l4.51,9.45c-6.77,6.02-15.23,9.02-25.38,9.02-10.91,0-19.41-3.1-25.52-9.31-5.83-5.83-8.74-13.86-8.74-24.11s3.29-18.38,9.87-24.96c5.92-6.01,13.44-9.02,22.56-9.02,10.15,0,18.05,3.43,23.69,10.29,4.89,5.83,7.33,13.4,7.33,22.7v6.49ZM338.91,732.87h27.21c-.47-9.21-4.94-13.82-13.4-13.82s-12.78,4.61-13.82,13.82Z" style="fill: #0b4167;"/>
      <path d="M436.2,723.71c-4.61-3.01-9.87-4.51-15.79-4.51-4.51,0-6.77,1.93-6.77,5.78,0,3.57,3.05,6.11,9.17,7.61,7.61,1.88,12.78,4,15.51,6.34,3.95,3.38,5.92,8.46,5.92,15.23,0,6.02-2.14,10.81-6.42,14.38-4.28,3.57-10.04,5.36-17.27,5.36-10.25,0-18.89-2.91-25.94-8.74l6.49-9.87c4.89,3.86,10.76,5.78,17.62,5.78,2.73,0,4.93-.66,6.63-1.97,1.69-1.32,2.54-3.05,2.54-5.22,0-3.95-3.34-6.53-10.01-7.75-14.29-2.73-21.43-9.68-21.43-20.87,0-5.36,2.19-9.82,6.56-13.39,4.37-3.57,9.85-5.36,16.43-5.36,8.93,0,16.68,2.59,23.27,7.75l-6.49,9.45Z" style="fill: #0b4167;"/>
      <path d="M510.79,772.21h-14.24l-1.41-6.06c-6.21,5.17-12.5,7.76-18.89,7.76-14.19,0-21.29-6.91-21.29-20.73,0-6.86,2.96-12.22,8.88-16.07,6.01-3.95,14.9-5.92,26.65-5.92h2.96v-.28c0-4.04-.85-6.81-2.54-8.32-1.69-1.5-4.75-2.26-9.16-2.26-6.21,0-11.89,1.97-17.06,5.92-1.69-3.1-3.29-6.16-4.79-9.17,5.36-4.14,10.03-6.93,14.03-8.39,3.99-1.46,8.76-2.19,14.31-2.19,15.04,0,22.56,9.4,22.56,28.2v37.51ZM492.88,742.04h-2.12c-5.36,0-9.68.94-12.97,2.82-3.29,1.88-4.94,4.37-4.94,7.47,0,5.83,2.54,8.74,7.61,8.74,3.1,0,5.83-.89,8.18-2.68,2.35-1.78,3.76-4.04,4.23-6.77v-9.59Z" style="fill: #0b4167;"/>
      <path d="M547.73,681.26v90.95h-17.77v-81.64l17.77-9.31Z" style="fill: #0b4167;"/>
      <path d="M618.51,772.21h-14.24l-1.41-6.06c-6.2,5.17-12.5,7.76-18.89,7.76-14.2,0-21.29-6.91-21.29-20.73,0-6.86,2.96-12.22,8.88-16.07,6.01-3.95,14.9-5.92,26.65-5.92h2.96v-.28c0-4.04-.85-6.81-2.54-8.32-1.69-1.5-4.75-2.26-9.17-2.26-6.2,0-11.89,1.97-17.06,5.92-1.69-3.1-3.29-6.16-4.79-9.17,5.36-4.14,10.03-6.93,14.03-8.39,3.99-1.46,8.76-2.19,14.31-2.19,15.04,0,22.56,9.4,22.56,28.2v37.51ZM600.6,742.04h-2.12c-5.36,0-9.68.94-12.97,2.82-3.29,1.88-4.94,4.37-4.94,7.47,0,5.83,2.54,8.74,7.61,8.74,3.1,0,5.83-.89,8.18-2.68,2.35-1.78,3.76-4.04,4.23-6.77v-9.59Z" style="fill: #0b4167;"/>
      <path d="M677.73,722.44h-18.33v31.73c0,4.7,1.55,7.05,4.65,7.05,2.82,0,6.34-1.22,10.58-3.67l5.92,9.02c-6.68,5.26-14.05,7.9-22.14,7.9-11.28,0-16.92-6.2-16.92-18.61v-33.42h-8.88v-14.24h9.02v-11.42c4.7-2.54,10.67-5.69,17.91-9.45v20.87h18.19v14.24Z" style="fill: #0b4167;"/>
      <path d="M751.47,745.98h-43.99c.37,4.32,2.14,7.92,5.29,10.79,3.15,2.87,6.88,4.3,11.21,4.3,6.11,0,12.5-1.88,19.18-5.64l4.51,9.45c-6.77,6.02-15.23,9.02-25.38,9.02-10.91,0-19.41-3.1-25.52-9.31-5.83-5.83-8.74-13.86-8.74-24.11s3.29-18.38,9.87-24.96c5.92-6.01,13.44-9.02,22.56-9.02,10.15,0,18.05,3.43,23.69,10.29,4.89,5.83,7.33,13.4,7.33,22.7v6.49ZM706.49,732.87h27.21c-.47-9.21-4.93-13.82-13.39-13.82s-12.79,4.61-13.82,13.82Z" style="fill: #0b4167;"/>
    </g>
  </g>
  <g id="Layer_4">
    <path d="M500.78,570.26c35.93-18.58,69.3-41.76,106.39-58.38,50.16-22.48,103.09-16.1,160.6,16.76-20.21-33.15-35.06-52.78-54.07-66.6-18.91-13.74-38.74-19.74-59.2-20.45v-74.55h2.87l4.27-16.3h-8.54v-72.83c21.37-8.61-11.93-54.4-18.88-63.56,4.78-.62,8.47-4.69,8.47-9.63,0-5.2-4.09-9.43-9.23-9.7,3.68-.26,6.58-3.31,6.58-7.04,0-2.43-1.22-4.57-3.09-5.84,9.87-1.87,17.35-10.53,17.35-20.95,0-.25-.01-.49-.02-.74-2.04,7.18-8.66,12.45-16.5,12.45-9.48,0-17.16-7.69-17.16-17.17,0-7.09,4.3-13.17,10.43-15.79-10.88.98-19.41,10.11-19.41,21.24,0,10.42,7.47,19.08,17.35,20.95-1.86,1.28-3.08,3.42-3.08,5.84,0,3.73,2.89,6.78,6.56,7.04-5.13.26-9.22,4.5-9.22,9.7s3.72,9.05,8.52,9.64c-6.96,9.18-40.23,54.94-18.87,63.55v72.83h-8.53l4.27,16.3h2.87v79.81c-2.41.62-4.82,1.28-7.24,1.99-4.45,1.3-8.84,2.72-13.21,4.22-4.36-50.03-56.7-92.54-101.11-116.46,1.71-.82,3.12-2.24,3.93-3.96,3.32-7.04-1.54-13.94-8.12-14.26.87-.06,1.77-.25,2.67-.65,1.41-.62,2.57-1.78,3.19-3.19,1.6-3.62.25-7.16-2.39-8.96,10.07-1.9,17.63-10.9,17.25-21.61-2.57,9.07-12.43,15.07-22.86,11.24-4.53-1.67-8.1-5.41-9.64-9.99-3.17-9.43,1.63-18.3,9.38-21.61-13.45,1.2-23.29,14.95-17.71,29.47,2.01,5.23,6.26,9.41,11.51,11.37,1.35.5,2.69.87,4.02,1.12-.98.66-1.77,1.59-2.25,2.67-2.19,4.98,1.18,9.78,5.79,10.15-1.31.07-2.68.41-4.05,1.05-1.74.82-3.17,2.25-3.99,3.98-2.04,4.33-.99,8.6,1.64,11.33-18.83,9.06-37.17,19.27-54.35,31.73-37.32,26.44-68.95,67.11-63.56,115.45,1.24,11.3,4.17,22.35,8.54,32.79-7.78-1.02-15.53-2.39-23.2-4.18-35.5-8.27-66.76-28.14-84.29-47.42-4.96-5.46-24.46-29.67-29.21-38.84,1.8,42.71,12.7,79.55,33.15,113.43,5.81,9.62,14.08,19.98,20.49,26.74,47.83,21.17,142.31,43.37,214.91,5.83ZM626.05,301.38c0-6.16,3.12-11.16,6.95-11.16s6.95,4.99,6.95,11.16h0v33h-13.9v-33ZM626.05,388.9c0-6.16,3.12-11.15,6.95-11.15s6.95,4.99,6.95,11.15h0v33.01h-13.9v-33.01ZM390.72,506.29c-37.85-73.17,33.36-132.05,91.85-164.6,3.77,1.86,7.59,3.91,11.31,6,40.1,22.48,87.86,61.14,91.62,107.31-32.98,11.91-64.02,28.46-96.22,42.24-23.72,10.15-48.48,18.5-73.86,19.48-6.08.24-12.21.28-18.36.13-2.31-3.4-4.43-6.94-6.34-10.56ZM234.27,387.43c2.63-23.08,9.96-48.5,18.87-66.91,44.16-91.32,132.65-142.3,233.32-134.46,11.55.9,23.18,2.69,34.27,6.51.32,4.59-20.98,21.61-29.16,28.62-18.3,15.69-21.43,20.26-56.87,28.63-94.75,22.39-157.33,117.46-131.81,211.24.97,3.56,1.79,7.16,3.36,13.51-29.28-23.45-54.15-53.84-71.98-87.14ZM694.47,520.81c-30.51,15.61-51.31,39.07-74.35,59.83-15.49,13.96-31.28,27.53-49.17,38.27-58.26,34.97-119.69,38.97-183.36,17.58-17.51-5.88-34.69-12.8-52.53-26.49,14.5,2.25,25.96,4.27,37.49,5.77,52.23,6.81,100.89-4.61,146.26-30.27,32.25-18.24,62.94-39.27,97.34-53.59,24.09-10.03,48.91-15.06,78.32-11.11Z" style="fill: url(#linear-gradient);"/>
  </g>
</svg>